<?xml version="1.0" standalone="no"?>
<svg
  width="600"
  height="600"
  viewBox="0 0 600 600"
  xmlns="http://www.w3.org/2000/svg"
>
  <g transform="translate(300,300)">
    <path d="M158.2,-185.7C191.7,-160.4,196.3,-97.9,198.7,-41.4C201.2,15.2,201.5,65.9,182.2,110.8C162.9,155.7,124,194.8,80.7,202C37.4,209.2,-10.4,184.5,-54.2,162.6C-97.9,140.7,-137.7,121.6,-157.4,89.8C-177.1,58,-176.7,13.4,-169.5,-30.3C-162.3,-74.1,-148.3,-117.1,-118.9,-143.1C-89.6,-169.1,-44.8,-178,8.8,-188.5C62.4,-199,124.7,-210.9,158.2,-185.7Z" fill="#abb8c3" />
  </g>
</svg>
  