<?xml version="1.0" standalone="no"?>
<svg
  width="600"
  height="600"
  viewBox="0 0 600 600"
  xmlns="http://www.w3.org/2000/svg"
>
  <g transform="translate(300,300)">
    <path d="M153.5,-203.4C197.2,-179.4,229.9,-132.4,234.8,-84.1C239.7,-35.8,216.8,13.6,194.4,57.1C171.9,100.5,149.7,138.1,117.4,164.4C85,190.7,42.5,205.9,-5.4,213.3C-53.3,220.7,-106.6,220.4,-140.3,194.5C-174.1,168.6,-188.3,117.2,-197.5,68.9C-206.7,20.6,-210.8,-24.6,-200.5,-67.8C-190.1,-111,-165.3,-152.2,-129.5,-178.7C-93.7,-205.2,-46.8,-217.1,4,-222.6C54.9,-228.2,109.7,-227.3,153.5,-203.4Z" fill="#6136ff" />
  </g>
</svg>
  