<?xml version="1.0" encoding="utf-8"?>
<!-- Generator: Adobe Illustrator 24.1.1, SVG Export Plug-In . SVG Version: 6.00 Build 0)  -->
<svg version="1.1" id="Layer_1" xmlns="http://www.w3.org/2000/svg" xmlns:xlink="http://www.w3.org/1999/xlink" x="0px" y="0px"
	 viewBox="0 0 516 562" style="enable-background:new 0 0 516 562;" xml:space="preserve">
<style type="text/css">
	.st0{fill:#41378C;}
	.st1{fill:#0091C8;}
	.st2{fill:#0073AA;}
	.st3{clip-path:url(#SVGID_2_);}
	.st4{fill:#2BE279;}
</style>
<g>
	<g>
		<path class="st0" d="M52.5,435.5l3.2,8.1c0.6,1.6,1.9,2.8,3.5,3.5l8.1,3.2c5.2,2.1,5.2,9.4,0,11.5l-8.1,3.2
			c-1.6,0.6-2.8,1.9-3.5,3.5l-3.2,8.1c-2.1,5.2-9.4,5.2-11.5,0l-3.2-8.1c-0.6-1.6-1.9-2.8-3.5-3.5l-8.1-3.2c-5.2-2.1-5.2-9.4,0-11.5
			l8.1-3.2c1.6-0.6,2.8-1.9,3.5-3.5l3.2-8.1C43.1,430.3,50.4,430.3,52.5,435.5z"/>
		<path class="st0" d="M444.7,43.3l1.9,4.9c0.4,0.9,1.1,1.7,2.1,2.1l4.9,1.9c3.1,1.2,3.1,5.7,0,6.9l-4.9,1.9
			c-0.9,0.4-1.7,1.1-2.1,2.1l-1.9,4.9c-1.2,3.1-5.7,3.1-6.9,0l-1.9-4.9c-0.4-0.9-1.1-1.7-2.1-2.1l-4.9-1.9c-3.1-1.2-3.1-5.7,0-6.9
			l4.9-1.9c0.9-0.4,1.7-1.1,2.1-2.1l1.9-4.9C439.1,40.2,443.5,40.2,444.7,43.3z"/>
		<path class="st0" d="M471.8,478.7l1.9,4.9c0.4,0.9,1.1,1.7,2.1,2.1l4.9,1.9c3.1,1.2,3.1,5.7,0,6.9l-4.9,1.9
			c-0.9,0.4-1.7,1.1-2.1,2.1l-1.9,4.9c-1.2,3.1-5.7,3.1-6.9,0l-1.9-4.9c-0.4-0.9-1.1-1.7-2.1-2.1l-4.9-1.9c-3.1-1.2-3.1-5.7,0-6.9
			l4.9-1.9c0.9-0.4,1.7-1.1,2.1-2.1l1.9-4.9C466.2,475.6,470.6,475.6,471.8,478.7z"/>
		<g>
			<g>
				
					<ellipse transform="matrix(0.7071 -0.7071 0.7071 0.7071 -117.6975 283.7611)" class="st1" cx="283.7" cy="284" rx="201.2" ry="201.2"/>
				<path class="st2" d="M283.7,82.7c-7.3,0-14.6,0.4-21.7,1.2c79.6,9.5,141.3,77.1,141.3,159.2c0,88.6-71.8,160.4-160.4,160.4
					c-82.1,0-149.8-61.7-159.2-141.3c-0.8,7.1-1.2,14.3-1.2,21.7c0,111.1,90.1,201.2,201.2,201.2c111.1,0,201.2-90.1,201.2-201.2
					C484.9,172.8,394.8,82.7,283.7,82.7z"/>
			</g>
			<g>
				<defs>
					
						<ellipse id="SVGID_1_" transform="matrix(0.7071 -0.7071 0.7071 0.7071 -117.6975 283.7611)" cx="283.7" cy="284" rx="201.2" ry="201.2"/>
				</defs>
				<clipPath id="SVGID_2_">
					<use xlink:href="#SVGID_1_"  style="overflow:visible;"/>
				</clipPath>
				<g class="st3">
					<path class="st4" d="M224.1,274.8l-7.1-5.9c-2.6-2.2-6.3-2.5-9.2-0.7l-12.5,7.5c-1.9,1.1-4.2,1.4-6.3,0.8l-15.9-4.5
						c-2.8-0.8-4.9-3-5.6-5.8l-1.2-5.1c-0.7-2.8-2.8-5.1-5.7-5.9l-15.1-4.2c-4.2-1.1-6.7-5.4-5.7-9.6l0.2-0.7
						c1.1-4.7,6-7.3,10.5-5.6l29.2,10.7c2,0.7,4.1,0.6,6-0.2l12.4-5.5c1.9-0.8,3.4-2.3,4.1-4.2c2.4-5.9,7.6-18.6,7.6-20.1
						c0-1.6,5.7-8.4,8.3-11.5c0.8-0.9,1.8-1.7,3-2.2l9.5-4c3.7-1.6,7.9-0.2,10,3.3l0.4,0.7c2.9,4.9,9.9,5.2,13.3,0.6l3.7-5.1
						c1.3-1.8,1.8-4.1,1.4-6.2l-3.1-16c-0.2-1-0.6-2-1.2-2.9l-5.9-8.8c-1.7-2.5-4.7-3.9-7.7-3.5l-29.4,3.7c-1.9,0.2-3.8-0.2-5.4-1.3
						l-3.6-2.4l16.8-8.4c0.6-0.3,1.1-0.5,1.7-0.6l12.2-2.9c5.1-1.2,7.7-6.8,5.3-11.5l-1.7-3.3c-1.4-2.8-4.3-4.4-7.5-4.3l-21.8,1
						c-2.3,0.1-4.6-0.8-6.2-2.5L186.5,111c-2.2-2.3-5.6-3.1-8.6-2l-75.8,28.5c-2.5,1-4.4,3.1-5,5.8L82,211.7
						c-0.2,0.8-0.2,1.7-0.1,2.6l3.5,32.4c0.3,2.7,1.9,5.1,4.4,6.3l16.4,8.2l24.1,11.1c1.5,0.7,2.8,1.9,3.6,3.3l10.2,18.2
						c0.5,0.8,0.8,1.7,0.9,2.7L150,327c0.2,1.3,0.8,2.6,1.6,3.6l14.7,19c0.2,0.3,0.4,0.5,0.7,0.8l18.1,18.1c0.8,0.8,1.5,1.8,1.9,2.9
						l17.6,48.8c0.1,0.3,0.2,0.6,0.4,0.9l7.7,15.4c1,2,2.8,3.5,5,4.1l7.5,2.1c4.4,1.3,9-1.4,10-5.9l0,0c0.1-0.4,0.2-0.8,0.2-1.2
						l1.2-17.8c0.1-0.8,0.2-1.6,0.5-2.3l12.5-32.6c0.4-1,1-2,1.8-2.8l18.9-18.9c1.5-1.5,2.3-3.5,2.3-5.5l0.6-38.5
						c0-1.5-0.4-3.1-1.2-4.4L259.4,293c-0.8-1.3-2-2.3-3.4-3l-30.2-14.2C225.2,275.6,224.7,275.2,224.1,274.8z"/>
					<path class="st4" d="M470.6,232.5l-8.8-3.4c-0.9-0.3-1.9-0.5-2.8-0.5h-63.3c-0.2,0-0.4,0-0.7,0l-28.4-2.4
						c-2.4-0.2-4.8,0.7-6.5,2.5l-6.4,6.9c-0.3,0.3-0.5,0.6-0.8,0.9L337,259.7c-1,1.4-1.5,3.1-1.4,4.8l1.2,32.6
						c0.1,1.8,0.7,3.5,1.9,4.9l13.7,16.3c1.4,1.7,3.4,2.7,5.5,2.8l23.4,1.8c0.3,0,0.6,0.1,0.8,0.1l9.9,1.8c2.9,0.5,5.2,2.5,6.1,5.3
						l6.8,20c0.7,2.1,0.5,4.5-0.6,6.4l-4.3,7.9c-0.9,1.7-1.2,3.6-0.8,5.5c1.5,7.3,5.5,26,5.5,27.6c0,1.6,1.2,27.4,1.8,39.4
						c0.2,3.6,2.7,6.6,6.2,7.4l13.5,3.1c2.7,0.6,5.5-0.2,7.5-2.2l42.9-43.5c1.4-1.4,2.2-3.2,2.3-5.1l3.9-63.5l2.7-47.1
						c0-0.7,0-1.4-0.2-2.1l-9.7-45.6C475,235.6,473.1,233.5,470.6,232.5z"/>
					<path class="st4" d="M390.3,198.4l2.4-1.5c2.8-1.8,6.3-1.7,8.9,0.2l3.4,2.5c1.1,0.8,2,1.8,2.6,3.1l4.5,9.5
						c1.3,2.6,3.9,4.4,6.8,4.5l20.8,1.1c6,0.3,10.2-5.8,7.7-11.3l-5.4-11.7l15.9,18.7c2.2,2.6,5.9,3.5,9.1,2.2l0.9-0.4
						c3.1-1.3,5.1-4.4,4.9-7.8l-0.9-16.6c-0.1-1.4-0.5-2.8-1.3-4c-6.3-9.4-36.1-52.3-60.7-65.6c-5.2-2.8-11.6,0.8-11.8,6.8
						l-0.9,24.1c0,0.4-0.1,0.8-0.1,1.2l-1.5,8c-0.3,1.5-1,2.9-2,4l-9.1,9.6c-0.6,0.6-1.2,1.1-2,1.5l-17.5,9.5
						c-2.4,1.3-3.9,3.7-4.1,6.4l-0.8,10.2c-0.2,2.4,0.7,4.8,2.5,6.4l2.1,2c3,2.8,7.6,2.9,10.7,0.2l13.8-11.9
						C389.7,198.9,390,198.6,390.3,198.4z"/>
				</g>
			</g>
		</g>
	</g>
</g>
</svg>
