<?xml version="1.0" encoding="utf-8"?>
<!-- Generator: Adobe Illustrator 24.1.1, SVG Export Plug-In . SVG Version: 6.00 Build 0)  -->
<svg version="1.1" id="Layer_1" xmlns="http://www.w3.org/2000/svg" xmlns:xlink="http://www.w3.org/1999/xlink" x="0px" y="0px"
	 viewBox="0 0 750 500" style="enable-background:new 0 0 750 500;" xml:space="preserve">
<style type="text/css">
	.st0{clip-path:url(#SVGID_2_);fill:url(#SVGID_3_);}
	.st1{clip-path:url(#SVGID_2_);fill:url(#SVGID_4_);}
	.st2{clip-path:url(#SVGID_2_);}
	.st3{clip-path:url(#SVGID_6_);fill:url(#SVGID_7_);}
	.st4{clip-path:url(#SVGID_6_);fill:url(#SVGID_8_);}
	.st5{clip-path:url(#SVGID_10_);fill:url(#SVGID_11_);}
	.st6{clip-path:url(#SVGID_10_);fill:url(#SVGID_12_);}
	.st7{fill:#0571BF;}
	.st8{fill:#2B2E8D;}
	.st9{fill:url(#SVGID_13_);}
	.st10{fill:url(#SVGID_14_);}
	.st11{fill:url(#SVGID_15_);}
	.st12{fill:#FFFFFF;}
	.st13{fill:#09C7F5;}
	.st14{opacity:0.57;fill:#FFFFFF;}
	.st15{fill:url(#SVGID_16_);}
	.st16{fill:url(#SVGID_17_);}
	.st17{fill:url(#SVGID_18_);}
	.st18{fill:#3EE3DE;}
	.st19{fill:#0592F7;}
	.st20{fill:url(#SVGID_19_);}
	.st21{fill:url(#SVGID_20_);}
	.st22{fill:url(#SVGID_21_);}
	.st23{fill:url(#SVGID_22_);}
	.st24{fill:url(#SVGID_23_);}
	.st25{fill:url(#SVGID_24_);}
	.st26{fill:url(#SVGID_25_);}
	.st27{fill:url(#SVGID_26_);}
	.st28{fill:url(#SVGID_27_);}
	.st29{fill:url(#SVGID_28_);}
	.st30{fill:url(#SVGID_29_);}
	.st31{fill:url(#SVGID_30_);}
	.st32{fill:url(#SVGID_31_);}
	.st33{fill:url(#SVGID_32_);}
	.st34{fill:url(#SVGID_33_);}
	.st35{fill:url(#SVGID_34_);}
	.st36{fill:url(#SVGID_35_);}
	.st37{opacity:0.48;fill:#FFFFFF;}
	.st38{fill:#0CA1A1;}
	.st39{fill:url(#SVGID_36_);}
	.st40{fill:url(#SVGID_37_);}
	.st41{fill:url(#SVGID_38_);}
	.st42{fill:#036D6A;}
	.st43{fill:url(#SVGID_39_);}
	.st44{fill:url(#SVGID_40_);}
	.st45{fill:url(#SVGID_41_);}
	.st46{fill:url(#SVGID_42_);}
	.st47{fill:url(#SVGID_43_);}
	.st48{fill:url(#SVGID_44_);}
	.st49{fill:url(#SVGID_45_);}
	.st50{fill:url(#SVGID_46_);}
	.st51{fill:url(#SVGID_47_);}
	.st52{opacity:0.3;fill:#FFFFFF;}
	.st53{fill:url(#SVGID_48_);}
	.st54{fill:url(#SVGID_49_);}
	.st55{opacity:0.53;}
	.st56{fill:url(#SVGID_50_);}
	.st57{opacity:0.7;fill:#1034A3;}
	.st58{fill:url(#SVGID_51_);}
	.st59{fill:url(#SVGID_52_);}
	.st60{fill:url(#SVGID_53_);}
	.st61{fill:url(#SVGID_54_);}
	.st62{fill:url(#SVGID_55_);}
	.st63{fill:url(#SVGID_56_);}
	.st64{fill:url(#SVGID_57_);}
	.st65{opacity:0.38;fill:#FFFFFF;}
	.st66{fill:url(#SVGID_58_);}
	.st67{fill:url(#SVGID_59_);}
	.st68{fill:url(#SVGID_60_);}
	.st69{fill:url(#SVGID_61_);}
	.st70{fill:url(#SVGID_62_);}
	.st71{fill:url(#SVGID_63_);}
	.st72{fill:url(#SVGID_64_);}
	.st73{fill:url(#SVGID_65_);}
	.st74{fill:url(#SVGID_66_);}
	.st75{fill:url(#SVGID_67_);}
	.st76{fill:url(#SVGID_68_);}
	.st77{fill:url(#SVGID_69_);}
	.st78{fill:url(#SVGID_70_);}
	.st79{fill:url(#SVGID_71_);}
	.st80{fill:url(#SVGID_72_);}
	.st81{fill:url(#SVGID_73_);}
	.st82{fill:url(#SVGID_74_);}
	.st83{fill:url(#SVGID_75_);}
	.st84{fill:url(#SVGID_76_);}
	.st85{fill:url(#SVGID_77_);}
	.st86{fill:#B816B8;}
	.st87{fill:url(#SVGID_78_);}
	.st88{fill:url(#SVGID_79_);}
	.st89{fill:url(#SVGID_80_);}
	.st90{fill:url(#SVGID_81_);}
	.st91{fill:url(#SVGID_82_);}
	.st92{fill:url(#SVGID_83_);}
	.st93{fill:url(#SVGID_84_);}
	.st94{fill:url(#SVGID_85_);}
	.st95{fill:url(#SVGID_86_);}
	.st96{fill:url(#SVGID_87_);}
	.st97{fill:url(#SVGID_88_);}
	.st98{fill:url(#SVGID_89_);}
	.st99{fill:url(#SVGID_90_);}
	.st100{fill:url(#SVGID_91_);}
	.st101{fill:url(#SVGID_92_);}
	.st102{fill:url(#SVGID_93_);}
	.st103{fill:url(#SVGID_94_);}
	.st104{fill:url(#SVGID_95_);}
	.st105{fill:url(#SVGID_96_);}
	.st106{fill:url(#SVGID_97_);}
	.st107{fill:url(#SVGID_98_);}
	.st108{fill:url(#SVGID_99_);}
	.st109{fill:url(#SVGID_100_);}
</style>
<g>
	<defs>
		<rect id="SVGID_1_" x="0.4" y="-0.1" width="750" height="500"/>
	</defs>
	<clipPath id="SVGID_2_">
		<use xlink:href="#SVGID_1_"  style="overflow:visible;"/>
	</clipPath>
	<linearGradient id="SVGID_3_" gradientUnits="userSpaceOnUse" x1="541.4849" y1="286.114" x2="752.8245" y2="497.4536">
		<stop  offset="0" style="stop-color:#09C7F5"/>
		<stop  offset="1" style="stop-color:#2B2E8D"/>
	</linearGradient>
	<path class="st0" d="M750.4,499.9v-317c-18.4,5.3-35.9,19.7-44.5,41.8c-5.4,13.9-7.6,31.1-17.1,40.5c-7.9,7.9-19,8-28.6,4.4
		c-9.6-3.6-18.2-10.5-27.3-15.7c-14.3-8.1-30.4-11.9-45.5-7c-15.1,4.9-28.8,19.6-32.9,39.4c-4.4,21.4,1.9,47.5-9.1,64.2
		c-12.3,18.7-37.4,11.4-51.1,28.5c-8.7,10.9-10,28.7-8.2,44.4c1.8,15.7,0.3,37.5-5.3,46.7c-6.3,10.4-33.2,21.6-37.7,29.9H750.4z"/>
	<linearGradient id="SVGID_4_" gradientUnits="userSpaceOnUse" x1="-51.005" y1="234.2832" x2="265.995" y2="551.2831">
		<stop  offset="0" style="stop-color:#2B2E8D"/>
		<stop  offset="1" style="stop-color:#09C7F5"/>
	</linearGradient>
	<path class="st1" d="M0.4,499.9h317c-5.3-19-19.7-37.1-41.8-45.9c-13.9-5.6-31.1-7.9-40.5-17.6c-7.9-8.2-8-19.6-4.4-29.5
		c3.6-9.9,10.5-18.8,15.7-28.2c8.1-14.7,11.9-31.3,7-46.9c-4.9-15.6-19.6-29.7-39.4-33.9c-21.4-4.5-47.5,2-64.2-9.3
		c-18.7-12.7-11.4-38.6-28.5-52.7c-10.9-9-28.7-10.3-44.4-8.5c-15.7,1.9-37.5,0.3-46.7-5.5c-10.4-6.5-21.6-34.3-29.9-38.9V499.9z"/>
	<g class="st2">
		<defs>
			<path id="SVGID_5_" d="M750.4,499.9v-317c-18.4,5.3-35.9,19.7-44.5,41.8c-5.4,13.9-7.6,31.1-17.1,40.5c-7.9,7.9-19,8-28.6,4.4
				c-9.6-3.6-18.2-10.5-27.3-15.7c-14.3-8.1-30.4-11.9-45.5-7c-15.1,4.9-28.8,19.6-32.9,39.4c-4.4,21.4,1.9,47.5-9.1,64.2
				c-12.3,18.7-37.4,11.4-51.1,28.5c-8.7,10.9-10,28.7-8.2,44.4c1.8,15.7,0.3,37.5-5.3,46.7c-6.3,10.4-33.2,21.6-37.7,29.9H750.4z"
				/>
		</defs>
		<clipPath id="SVGID_6_">
			<use xlink:href="#SVGID_5_"  style="overflow:visible;"/>
		</clipPath>
		
			<linearGradient id="SVGID_7_" gradientUnits="userSpaceOnUse" x1="-426.3279" y1="-55.3927" x2="-293.708" y2="77.2272" gradientTransform="matrix(0 -1 1 0 730.7901 -96.44)">
			<stop  offset="0" style="stop-color:#FFFFFF;stop-opacity:0"/>
			<stop  offset="1" style="stop-color:#FFFFFF"/>
		</linearGradient>
		<path class="st3" d="M750.4,233.9v225.6h-63.1c-23.5-14.1-41.2-33.2-8.4-50.2c61.3-31.8,30.6-101.1-16.2-76.9
			c-63.2,32.7-95.7-31.8-112.2-30.8v-51.3c24,4.2,43.3,14.3,47.2,26.1c2,6.2,0.3,12.5,0.8,18.7c0.5,6.2,3.7,12.9,13.6,17.1
			c9.8,4.3,27.7,4.8,35.7-0.2c6-3.7,4.6-8.9,4.7-13.5c0-4.7,3.2-10.2,12.8-11.6c17.9-2.5,23,14.8,50.1,8.2
			C742.8,288.5,714.9,247.4,750.4,233.9z"/>
		
			<linearGradient id="SVGID_8_" gradientUnits="userSpaceOnUse" x1="-827.7709" y1="484.5457" x2="-908.1723" y2="335.757" gradientTransform="matrix(-1 0 0 1 -248.09 0)">
			<stop  offset="0" style="stop-color:#FFFFFF;stop-opacity:0"/>
			<stop  offset="1" style="stop-color:#FFFFFF"/>
		</linearGradient>
		<path class="st4" d="M446.4,501.1h303.9v-45.2c-19-16.9-44.8-29.5-67.6-6c-42.8,43.9-136.3,21.9-103.6-11.6
			c44-45.2-42.8-68.5-41.5-80.3h-69.1c5.6,17.2,19.3,31,35.2,33.8c8.3,1.5,16.8,0.2,25.2,0.5c8.4,0.3,17.3,2.7,23.1,9.7
			c5.7,7,6.5,19.9-0.3,25.6c-5,4.3-11.9,3.3-18.2,3.3c-6.3,0-13.8,2.3-15.6,9.2c-3.4,12.8,19.9,16.5,11,35.9
			C519.9,495.7,464.6,475.7,446.4,501.1z"/>
	</g>
	<g class="st2">
		<defs>
			<path id="SVGID_9_" d="M0.4,499.9h317c-5.3-19-19.7-37.1-41.8-45.9c-13.9-5.6-31.1-7.9-40.5-17.6c-7.9-8.2-8-19.6-4.4-29.5
				c3.6-9.9,10.5-18.8,15.7-28.2c8.1-14.7,11.9-31.3,7-46.9c-4.9-15.6-19.6-29.7-39.4-33.9c-21.4-4.5-47.5,2-64.2-9.3
				c-18.7-12.7-11.4-38.6-28.5-52.7c-10.9-9-28.7-10.3-44.4-8.5c-15.7,1.9-37.5,0.3-46.7-5.5c-10.4-6.5-21.6-34.3-29.9-38.9V499.9z"
				/>
		</defs>
		<clipPath id="SVGID_10_">
			<use xlink:href="#SVGID_9_"  style="overflow:visible;"/>
		</clipPath>
		<linearGradient id="SVGID_11_" gradientUnits="userSpaceOnUse" x1="309.7975" y1="536.6731" x2="120.5893" y2="427.7096">
			<stop  offset="0" style="stop-color:#FFFFFF"/>
			<stop  offset="1" style="stop-color:#FFFFFF;stop-opacity:0"/>
		</linearGradient>
		<path class="st5" d="M240.5,424.2c11.1-15.9-23.5-31.5,15.8-34.9c14.7-1.3,18.5-9,19.3-14h-5.8c-3,4.9-12.6,10.9-41.5,12.2
			c-51.1,2.3,26.6,110.6-60.1,96.5c-86.7-14.1-108.1-34.9-144.7-9c-7.3,5.1-15.3,9.5-23.1,13.3v12.1h281
			C276.3,462.8,202.4,479,240.5,424.2z"/>
		
			<linearGradient id="SVGID_12_" gradientUnits="userSpaceOnUse" x1="-477.7474" y1="535.421" x2="-315.4817" y2="373.1553" gradientTransform="matrix(0 -1 -1 0 567.56 -96.44)">
			<stop  offset="0" style="stop-color:#FFFFFF;stop-opacity:0"/>
			<stop  offset="1" style="stop-color:#FFFFFF"/>
		</linearGradient>
		<path class="st6" d="M1.7,274.9v225.6H49c17.6-14.1,30.8-33.2,6.3-50.2c-45.8-31.8-22.9-101.1,12.1-76.9
			c47.3,32.7,71.6-31.8,84-30.8v-51.3c-17.9,4.2-32.4,14.3-35.3,26.1c-1.5,6.2-0.2,12.5-0.6,18.7c-0.4,6.2-2.8,12.9-10.2,17.1
			c-7.4,4.3-20.8,4.8-26.7-0.2c-4.5-3.7-3.5-8.9-3.5-13.5c0-4.7-2.4-10.2-9.6-11.6c-13.4-2.5-17.2,14.8-37.5,8.2
			C7.4,329.5,28.3,288.4,1.7,274.9z"/>
	</g>
	<g class="st2">
		<circle class="st7" cx="525.5" cy="424.6" r="6.5"/>
		<circle class="st7" cx="490.7" cy="459.2" r="11.3"/>
		<path class="st8" d="M472.3,425.4c0-2,1.6-3.5,3.5-3.5c2,0,3.5,1.6,3.5,3.5c0,2-1.6,3.5-3.5,3.5
			C473.9,428.9,472.3,427.3,472.3,425.4z"/>
		
			<linearGradient id="SVGID_13_" gradientUnits="userSpaceOnUse" x1="-276.253" y1="1142.8796" x2="-276.253" y2="1112.1597" gradientTransform="matrix(-0.7071 0.7071 0.7071 0.7071 -371.0907 -197.7269)">
			<stop  offset="0" style="stop-color:#FFFFFF;stop-opacity:0.7754"/>
			<stop  offset="1" style="stop-color:#FFFFFF;stop-opacity:0"/>
		</linearGradient>
		<path class="st9" d="M623.4,411.9c3.6,3.6,7.8,5.2,9.4,3.6c1.6-1.6,0-5.9-3.6-9.4c-3.6-3.6-26-23.4-27.6-21.7
			C600,385.9,619.8,408.3,623.4,411.9z"/>
		
			<linearGradient id="SVGID_14_" gradientUnits="userSpaceOnUse" x1="-190.3105" y1="1165.3522" x2="-190.3105" y2="1142.5664" gradientTransform="matrix(-0.7071 0.7071 0.7071 0.7071 -371.0907 -197.7269)">
			<stop  offset="0" style="stop-color:#FFFFFF;stop-opacity:0.7754"/>
			<stop  offset="1" style="stop-color:#FFFFFF;stop-opacity:0"/>
		</linearGradient>
		<path class="st10" d="M580.8,489.4c2.7,2.7,5.8,3.8,7,2.6c1.2-1.2,0-4.3-2.6-7c-2.7-2.7-19.3-17.3-20.5-16.1
			C563.5,470.1,578.1,486.7,580.8,489.4z"/>
		
			<linearGradient id="SVGID_15_" gradientUnits="userSpaceOnUse" x1="-298.1866" y1="1264.5099" x2="-298.1866" y2="1236.9635" gradientTransform="matrix(-0.7071 0.7071 0.7071 0.7071 -371.0907 -197.7269)">
			<stop  offset="0" style="stop-color:#FFFFFF;stop-opacity:0.7754"/>
			<stop  offset="1" style="stop-color:#FFFFFF;stop-opacity:0"/>
		</linearGradient>
		<path class="st11" d="M725.8,482.7c3.2,3.2,7,4.6,8.5,3.2c1.5-1.5,0-5.3-3.2-8.5c-3.2-3.2-23.3-21-24.8-19.5
			C704.8,459.4,722.6,479.5,725.8,482.7z"/>
		<polygon class="st12" points="554,478.1 553.3,481 550.4,481.7 553.3,482.4 554,485.3 554.7,482.4 557.6,481.7 554.7,481 		"/>
		<polygon class="st12" points="533.8,388 533.4,389.7 531.7,390.1 533.4,390.5 533.8,392.2 534.3,390.5 536,390.1 534.3,389.7 		
			"/>
		<polygon class="st12" points="617.9,431 617.2,434.2 614,435 617.2,435.7 617.9,439 618.7,435.7 621.9,435 618.7,434.2 		"/>
		<polygon class="st12" points="704.7,483.5 703.8,487 700.3,487.9 703.8,488.8 704.7,492.3 705.5,488.8 709.1,487.9 705.5,487 		
			"/>
		<polygon class="st12" points="734.8,445.2 733.7,449.4 729.5,450.5 733.7,451.5 734.8,455.7 735.8,451.5 740.1,450.5 735.8,449.4 
					"/>
		<polygon class="st12" points="671.7,388.2 671.2,390.5 668.9,391 671.2,391.6 671.7,393.9 672.3,391.6 674.5,391 672.3,390.5 		
			"/>
		<polygon class="st13" points="501.7,411.5 501.1,413.8 498.8,414.4 501.1,415 501.7,417.3 502.2,415 504.6,414.4 502.2,413.8 		
			"/>
		<polygon class="st8" points="512.7,470.7 512.3,472.5 510.6,472.9 512.3,473.3 512.7,475 513.1,473.3 514.9,472.9 513.1,472.5 		
			"/>
		<polygon class="st8" points="465.9,449.6 465,453.5 461.1,454.4 465,455.3 465.9,459.2 466.8,455.3 470.7,454.4 466.8,453.5 		"/>
		<circle class="st12" cx="668.6" cy="420.9" r="1.4"/>
		<circle class="st14" cx="573.4" cy="385.1" r="1.4"/>
		<circle class="st12" cx="598.5" cy="389.6" r="0.6"/>
		<path class="st12" d="M589.5,454.4c0,0.5,0.4,0.8,0.8,0.8c0.5,0,0.8-0.4,0.8-0.8s-0.4-0.8-0.8-0.8
			C589.9,453.6,589.5,453.9,589.5,454.4z"/>
		<path class="st14" d="M549.2,466.6c0,0.5,0.4,1,1,1c0.5,0,1-0.4,1-1c0-0.5-0.4-1-1-1C549.7,465.7,549.2,466.1,549.2,466.6z"/>
		<path class="st12" d="M530.1,452.3c0,0.5,0.4,1,1,1c0.5,0,1-0.4,1-1c0-0.5-0.4-1-1-1C530.5,451.3,530.1,451.7,530.1,452.3z"/>
		<path class="st14" d="M612.9,490.7c0,0.6,0.5,1.1,1.1,1.1s1.1-0.5,1.1-1.1s-0.5-1.1-1.1-1.1S612.9,490.1,612.9,490.7z"/>
		<circle class="st12" cx="687.3" cy="492.3" r="0.7"/>
		<circle class="st12" cx="708.6" cy="456.7" r="0.6"/>
		<path class="st14" d="M741.5,491.1c0,0.5,0.4,1,1,1c0.5,0,1-0.4,1-1c0-0.5-0.4-1-1-1C742,490.2,741.5,490.6,741.5,491.1z"/>
		<path class="st12" d="M739,385.7c0,0.5,0.4,0.8,0.8,0.8s0.8-0.4,0.8-0.8s-0.4-0.8-0.8-0.8S739,385.2,739,385.7z"/>
		<path class="st12" d="M709.4,383.4c0,0.3,0.3,0.6,0.6,0.6c0.3,0,0.6-0.3,0.6-0.6s-0.3-0.6-0.6-0.6
			C709.7,382.9,709.4,383.1,709.4,383.4z"/>
		<path class="st12" d="M637.1,383.3c0,0.2,0.2,0.4,0.4,0.4c0.2,0,0.4-0.2,0.4-0.4c0-0.2-0.2-0.4-0.4-0.4
			C637.3,382.9,637.1,383.1,637.1,383.3z"/>
		<path class="st12" d="M647.5,407.2c0,0.2,0.2,0.4,0.4,0.4c0.2,0,0.4-0.2,0.4-0.4c0-0.2-0.2-0.4-0.4-0.4
			C647.7,406.8,647.5,407,647.5,407.2z"/>
		<path class="st12" d="M742.7,429.6c0,0.2,0.1,0.3,0.3,0.3s0.3-0.1,0.3-0.3c0-0.2-0.1-0.3-0.3-0.3S742.7,429.5,742.7,429.6z"/>
		<path class="st14" d="M495.4,383.5c0,0.4,0.3,0.8,0.8,0.8c0.4,0,0.8-0.3,0.8-0.8s-0.3-0.8-0.8-0.8
			C495.7,382.8,495.4,383.1,495.4,383.5z"/>
		<path class="st12" d="M690.9,438.9c0,0.6,0.5,1.1,1.1,1.1s1.1-0.5,1.1-1.1c0-0.6-0.5-1.1-1.1-1.1S690.9,438.3,690.9,438.9z"/>
		<circle class="st14" cx="689.3" cy="388.1" r="0.7"/>
		
			<linearGradient id="SVGID_16_" gradientUnits="userSpaceOnUse" x1="-398.5836" y1="1115.3022" x2="-398.5836" y2="1084.5823" gradientTransform="matrix(-0.7071 0.7071 0.7071 0.7071 -371.0907 -197.7269)">
			<stop  offset="0" style="stop-color:#FFFFFF;stop-opacity:0.7754"/>
			<stop  offset="1" style="stop-color:#FFFFFF;stop-opacity:0"/>
		</linearGradient>
		<path class="st15" d="M690.4,305.9c3.6,3.6,7.8,5.2,9.4,3.6c1.6-1.6,0-5.9-3.6-9.4c-3.6-3.6-26-23.4-27.6-21.7
			S686.8,302.3,690.4,305.9z"/>
		
			<linearGradient id="SVGID_17_" gradientUnits="userSpaceOnUse" x1="-312.6411" y1="1137.7748" x2="-312.6411" y2="1114.989" gradientTransform="matrix(-0.7071 0.7071 0.7071 0.7071 -371.0907 -197.7269)">
			<stop  offset="0" style="stop-color:#FFFFFF;stop-opacity:0.7754"/>
			<stop  offset="1" style="stop-color:#FFFFFF;stop-opacity:0"/>
		</linearGradient>
		<path class="st16" d="M647.8,383.4c2.7,2.7,5.8,3.8,7,2.6c1.2-1.2,0-4.3-2.6-7c-2.7-2.7-19.3-17.3-20.5-16.1
			C630.5,364.1,645.1,380.7,647.8,383.4z"/>
		
			<linearGradient id="SVGID_18_" gradientUnits="userSpaceOnUse" x1="-473.5508" y1="1100.4595" x2="-473.5508" y2="1072.9132" gradientTransform="matrix(-0.7071 0.7071 0.7071 0.7071 -371.0907 -197.7269)">
			<stop  offset="0" style="stop-color:#FFFFFF;stop-opacity:0.7754"/>
			<stop  offset="1" style="stop-color:#FFFFFF;stop-opacity:0"/>
		</linearGradient>
		<path class="st17" d="M733.8,242.7c3.2,3.2,7,4.6,8.5,3.2c1.5-1.5,0-5.3-3.2-8.5c-3.2-3.2-23.3-21-24.8-19.5
			C712.8,219.4,730.6,239.5,733.8,242.7z"/>
		<polygon class="st12" points="621,372.1 620.3,375 617.4,375.7 620.3,376.4 621,379.3 621.7,376.4 624.6,375.7 621.7,375 		"/>
		<polygon class="st12" points="600.8,282 600.4,283.7 598.7,284.1 600.4,284.5 600.8,286.2 601.3,284.5 603,284.1 601.3,283.7 		
			"/>
		<polygon class="st12" points="684.9,325 684.2,328.2 681,329 684.2,329.7 684.9,333 685.7,329.7 688.9,329 685.7,328.2 		"/>
		<polygon class="st12" points="591.7,260.5 590.8,264 587.3,264.9 590.8,265.8 591.7,269.3 592.5,265.8 596.1,264.9 592.5,264 		
			"/>
		<polygon class="st12" points="562.8,335.2 561.7,339.4 557.5,340.5 561.7,341.5 562.8,345.7 563.8,341.5 568.1,340.5 563.8,339.4 
					"/>
		<polygon class="st12" points="738.7,282.2 738.2,284.5 735.9,285 738.2,285.6 738.7,287.9 739.3,285.6 741.5,285 739.3,284.5 		
			"/>
		<polygon class="st13" points="568.7,305.5 568.1,307.8 565.8,308.4 568.1,309 568.7,311.3 569.2,309 571.6,308.4 569.2,307.8 		
			"/>
		<polygon class="st8" points="579.7,364.7 579.3,366.5 577.6,366.9 579.3,367.3 579.7,369 580.1,367.3 581.9,366.9 580.1,366.5 		
			"/>
		<circle class="st12" cx="735.6" cy="314.9" r="1.4"/>
		<circle class="st14" cx="640.4" cy="279.1" r="1.4"/>
		<circle class="st12" cx="665.5" cy="283.6" r="0.6"/>
		<path class="st12" d="M656.5,348.4c0,0.5,0.4,0.8,0.8,0.8c0.5,0,0.8-0.4,0.8-0.8s-0.4-0.8-0.8-0.8
			C656.9,347.6,656.5,347.9,656.5,348.4z"/>
		<path class="st14" d="M616.2,360.6c0,0.5,0.4,1,1,1c0.5,0,1-0.4,1-1c0-0.5-0.4-1-1-1C616.7,359.7,616.2,360.1,616.2,360.6z"/>
		<path class="st12" d="M597.1,346.3c0,0.5,0.4,1,1,1c0.5,0,1-0.4,1-1c0-0.5-0.4-1-1-1C597.5,345.3,597.1,345.7,597.1,346.3z"/>
		<path class="st14" d="M679.9,384.7c0,0.6,0.5,1.1,1.1,1.1s1.1-0.5,1.1-1.1s-0.5-1.1-1.1-1.1S679.9,384.1,679.9,384.7z"/>
		<circle class="st12" cx="754.3" cy="386.3" r="0.7"/>
		<path class="st14" d="M724.5,259.1c0,0.5,0.4,1,1,1c0.5,0,1-0.4,1-1c0-0.5-0.4-1-1-1C725,258.2,724.5,258.6,724.5,259.1z"/>
		<path class="st12" d="M704.1,277.3c0,0.2,0.2,0.4,0.4,0.4c0.2,0,0.4-0.2,0.4-0.4c0-0.2-0.2-0.4-0.4-0.4
			C704.3,276.9,704.1,277.1,704.1,277.3z"/>
		<path class="st12" d="M714.5,301.2c0,0.2,0.2,0.4,0.4,0.4c0.2,0,0.4-0.2,0.4-0.4c0-0.2-0.2-0.4-0.4-0.4
			C714.7,300.8,714.5,301,714.5,301.2z"/>
		<path class="st14" d="M562.4,277.5c0,0.4,0.3,0.8,0.8,0.8c0.4,0,0.8-0.3,0.8-0.8s-0.3-0.8-0.8-0.8
			C562.7,276.8,562.4,277.1,562.4,277.5z"/>
		<path class="st12" d="M757.9,332.9c0,0.6,0.5,1.1,1.1,1.1s1.1-0.5,1.1-1.1c0-0.6-0.5-1.1-1.1-1.1S757.9,332.3,757.9,332.9z"/>
		<circle class="st14" cx="756.3" cy="282.1" r="0.7"/>
		<polygon class="st7" points="672.9,237.2 673.6,240.3 676.7,241 673.6,241.7 672.9,244.7 672.2,241.7 669.1,241 672.2,240.3 		"/>
		<polygon class="st7" points="540.9,327.9 541.7,331 544.8,331.8 541.7,332.6 540.9,335.7 540.1,332.6 537,331.8 540.1,331 		"/>
		<path class="st18" d="M541.1,347.5c0-3.7-3-6.6-6.6-6.6c-3.7,0-6.6,3-6.6,6.6c0,3.7,3,6.6,6.6,6.6
			C538.1,354.1,541.1,351.1,541.1,347.5z"/>
		<circle class="st8" cx="668.5" cy="256.6" r="4.7"/>
	</g>
	<g class="st2">
		
			<ellipse transform="matrix(0.9246 -0.3809 0.3809 0.9246 -151.2922 130.0829)" class="st7" cx="253" cy="447.2" rx="7.6" ry="7.6"/>
		<path class="st8" d="M274.8,410.8c0,3-2.4,5.3-5.3,5.3s-5.3-2.4-5.3-5.3s2.4-5.3,5.3-5.3S274.8,407.8,274.8,410.8z"/>
		<circle class="st18" cx="280.9" cy="477.9" r="4.2"/>
		<polygon class="st19" points="275.1,454.6 275.8,457.7 278.9,458.4 275.8,459.1 275.1,462.2 274.4,459.1 271.4,458.4 274.4,457.7 
					"/>
		<polygon class="st7" points="256.3,394.8 257.2,398.2 260.5,399 257.2,399.8 256.3,403.2 255.5,399.8 252.2,399 255.5,398.2 		"/>
		<linearGradient id="SVGID_19_" gradientUnits="userSpaceOnUse" x1="233.0547" y1="449.47" x2="239.7479" y2="449.47">
			<stop  offset="0" style="stop-color:#06C2CC"/>
			<stop  offset="0.1098" style="stop-color:#19C4C9"/>
			<stop  offset="0.3322" style="stop-color:#4ACAC2"/>
			<stop  offset="0.6475" style="stop-color:#98D4B6"/>
			<stop  offset="1" style="stop-color:#F8DFA7"/>
		</linearGradient>
		<polygon class="st20" points="236.4,446.1 237.1,448.8 239.7,449.5 237.1,450.1 236.4,452.8 235.7,450.1 233.1,449.5 235.7,448.8 
					"/>
		
			<linearGradient id="SVGID_20_" gradientUnits="userSpaceOnUse" x1="391.6173" y1="423.3358" x2="391.6173" y2="400.55" gradientTransform="matrix(0.7071 0.7071 -0.7071 0.7071 123.0007 -197.7269)">
			<stop  offset="0" style="stop-color:#FFFFFF;stop-opacity:0.7754"/>
			<stop  offset="1" style="stop-color:#FFFFFF;stop-opacity:0"/>
		</linearGradient>
		<path class="st21" d="M107.3,376.2c-2.7,2.7-5.8,3.8-7,2.6c-1.2-1.2,0-4.3,2.6-7c2.7-2.7,19.3-17.3,20.5-16.1
			C124.6,356.9,109.9,373.5,107.3,376.2z"/>
		
			<linearGradient id="SVGID_21_" gradientUnits="userSpaceOnUse" x1="460.5428" y1="396.1198" x2="460.5428" y2="381.7592" gradientTransform="matrix(0.7071 0.7071 -0.7071 0.7071 123.0007 -197.7269)">
			<stop  offset="0" style="stop-color:#FFFFFF;stop-opacity:0.7754"/>
			<stop  offset="1" style="stop-color:#FFFFFF;stop-opacity:0"/>
		</linearGradient>
		<path class="st22" d="M172.8,406.6c-1.7,1.7-3.7,2.4-4.4,1.7c-0.8-0.8,0-2.7,1.7-4.4c1.7-1.7,12.2-10.9,12.9-10.2
			C183.7,394.4,174.5,404.9,172.8,406.6z"/>
		
			<linearGradient id="SVGID_22_" gradientUnits="userSpaceOnUse" x1="543.4989" y1="430.8664" x2="543.4989" y2="408.0807" gradientTransform="matrix(0.7071 0.7071 -0.7071 0.7071 123.0007 -197.7269)">
			<stop  offset="0" style="stop-color:#FFFFFF;stop-opacity:0.7754"/>
			<stop  offset="1" style="stop-color:#FFFFFF;stop-opacity:0"/>
		</linearGradient>
		<path class="st23" d="M209.3,488.9c-2.7,2.7-5.8,3.8-7,2.6s0-4.3,2.6-7c2.7-2.7,19.3-17.3,20.5-16.1
			C226.7,469.6,212,486.3,209.3,488.9z"/>
		
			<linearGradient id="SVGID_23_" gradientUnits="userSpaceOnUse" x1="417.2729" y1="553.9069" x2="417.2729" y2="531.1211" gradientTransform="matrix(0.7071 0.7071 -0.7071 0.7071 123.0007 -197.7269)">
			<stop  offset="0" style="stop-color:#FFFFFF;stop-opacity:0.7754"/>
			<stop  offset="1" style="stop-color:#FFFFFF;stop-opacity:0"/>
		</linearGradient>
		<path class="st24" d="M33.1,486.7c-2.7,2.7-5.8,3.8-7,2.6c-1.2-1.2,0-4.3,2.6-7c2.7-2.7,19.3-17.3,20.5-16.1
			C50.4,467.4,35.7,484,33.1,486.7z"/>
		<circle class="st12" cx="11.7" cy="388.1" r="2.3"/>
		<circle class="st12" cx="63.3" cy="466.4" r="0.9"/>
		<path class="st12" d="M131.6,405.7c0,0.8-0.7,1.5-1.5,1.5c-0.8,0-1.5-0.7-1.5-1.5c0-0.8,0.7-1.5,1.5-1.5
			C130.9,404.2,131.6,404.9,131.6,405.7z"/>
		<path class="st14" d="M189.6,433.2c0,0.6-0.5,1.1-1.1,1.1c-0.6,0-1.1-0.5-1.1-1.1c0-0.6,0.5-1.1,1.1-1.1
			C189.1,432,189.6,432.5,189.6,433.2z"/>
		<path class="st12" d="M201.6,388.1c0,1-0.8,1.9-1.9,1.9s-1.9-0.8-1.9-1.9c0-1,0.8-1.9,1.9-1.9S201.6,387.1,201.6,388.1z"/>
		<path class="st14" d="M242.9,486.7c0,0.9-0.8,1.7-1.7,1.7s-1.7-0.8-1.7-1.7c0-0.9,0.8-1.7,1.7-1.7S242.9,485.7,242.9,486.7z"/>
		<path class="st12" d="M178.4,493c0,0.3-0.3,0.6-0.6,0.6s-0.6-0.3-0.6-0.6c0-0.3,0.3-0.6,0.6-0.6S178.4,492.7,178.4,493z"/>
		<circle class="st14" cx="14.3" cy="488.7" r="0.8"/>
		<path class="st12" d="M18.1,457.8c0,0.7-0.6,1.3-1.3,1.3s-1.3-0.6-1.3-1.3s0.6-1.3,1.3-1.3S18.1,457,18.1,457.8z"/>
		<path class="st12" d="M63.1,388.3c0,0.5-0.4,0.9-0.9,0.9c-0.5,0-0.9-0.4-0.9-0.9c0-0.5,0.4-0.9,0.9-0.9
			C62.7,387.4,63.1,387.8,63.1,388.3z"/>
		<path class="st12" d="M90.1,418.3c0,0.5-0.4,0.9-0.9,0.9c-0.5,0-0.9-0.4-0.9-0.9c0-0.5,0.4-0.9,0.9-0.9
			C89.7,417.4,90.1,417.8,90.1,418.3z"/>
		<path class="st12" d="M148,387.7c0,0.6-0.5,1.1-1.1,1.1s-1.1-0.5-1.1-1.1s0.5-1.1,1.1-1.1S148,387.1,148,387.7z"/>
		<path class="st14" d="M101.4,489.3c0,0.5-0.4,0.9-0.9,0.9c-0.5,0-0.9-0.4-0.9-0.9s0.4-0.9,0.9-0.9
			C101,488.4,101.4,488.8,101.4,489.3z"/>
		<path class="st14" d="M198.3,453.1c0,0.4-0.3,0.8-0.8,0.8s-0.8-0.3-0.8-0.8c0-0.4,0.3-0.8,0.8-0.8S198.3,452.7,198.3,453.1z"/>
		<circle class="st12" cx="246.1" cy="381.9" r="0.9"/>
		<path class="st12" d="M159.2,417.8c0,0.4-0.3,0.8-0.8,0.8c-0.4,0-0.8-0.3-0.8-0.8c0-0.4,0.3-0.8,0.8-0.8
			C158.9,417,159.2,417.4,159.2,417.8z"/>
		<polygon class="st12" points="106.7,416.3 107.3,418.7 109.7,419.3 107.3,419.9 106.7,422.3 106.1,419.9 103.6,419.3 106.1,418.7 
					"/>
		<polygon class="st12" points="117.6,384.7 118.1,386.9 120.2,387.4 118.1,387.9 117.6,390 117,387.9 114.9,387.4 117,386.9 		"/>
		<polygon class="st12" points="227.9,469.7 228.5,472 230.9,472.6 228.5,473.2 227.9,475.5 227.3,473.2 225,472.6 227.3,472 		"/>
		<polygon class="st12" points="59,488.2 59.5,490.1 61.4,490.6 59.5,491.1 59,493 58.5,491.1 56.6,490.6 58.5,490.1 		"/>
		<polygon class="st14" points="6.8,403 7.3,404.9 9.2,405.4 7.3,405.9 6.8,407.8 6.3,405.9 4.4,405.4 6.3,404.9 		"/>
		<polygon class="st12" points="37.6,382.6 38.2,384.9 40.5,385.5 38.2,386.1 37.6,388.4 37,386.1 34.7,385.5 37,384.9 		"/>
		<polygon class="st12" points="191.9,414.4 192.2,415.9 193.8,416.3 192.2,416.6 191.9,418.2 191.5,416.6 190,416.3 191.5,415.9 		
			"/>
		<path class="st12" d="M83.8,472.2c0,0.6-0.5,1.1-1.1,1.1c-0.6,0-1.1-0.5-1.1-1.1s0.5-1.1,1.1-1.1
			C83.3,471.1,83.8,471.6,83.8,472.2z"/>
		<circle class="st12" cx="5.5" cy="445.7" r="0.6"/>
		<circle class="st14" cx="78.3" cy="381.9" r="0.9"/>
		<path class="st12" d="M175.7,381.9c0,0.5-0.4,0.9-0.9,0.9c-0.5,0-0.9-0.4-0.9-0.9c0-0.5,0.4-0.9,0.9-0.9
			C175.3,381,175.7,381.4,175.7,381.9z"/>
		
			<linearGradient id="SVGID_24_" gradientUnits="userSpaceOnUse" x1="345.6549" y1="392.9299" x2="345.6549" y2="370.1441" gradientTransform="matrix(0.7071 0.7071 -0.7071 0.7071 123.0007 -197.7269)">
			<stop  offset="0" style="stop-color:#FFFFFF;stop-opacity:0.7754"/>
			<stop  offset="1" style="stop-color:#FFFFFF;stop-opacity:0"/>
		</linearGradient>
		<path class="st25" d="M96.3,322.2c-2.7,2.7-5.8,3.8-7,2.6c-1.2-1.2,0-4.3,2.6-7c2.7-2.7,19.3-17.3,20.5-16.1
			C113.6,302.9,98.9,319.5,96.3,322.2z"/>
		
			<linearGradient id="SVGID_25_" gradientUnits="userSpaceOnUse" x1="455.593" y1="326.1155" x2="455.593" y2="311.755" gradientTransform="matrix(0.7071 0.7071 -0.7071 0.7071 123.0007 -197.7269)">
			<stop  offset="0" style="stop-color:#FFFFFF;stop-opacity:0.7754"/>
			<stop  offset="1" style="stop-color:#FFFFFF;stop-opacity:0"/>
		</linearGradient>
		<path class="st26" d="M218.8,353.6c-1.7,1.7-3.7,2.4-4.4,1.7c-0.8-0.8,0-2.7,1.7-4.4c1.7-1.7,12.2-10.9,12.9-10.2
			C229.7,341.4,220.5,351.9,218.8,353.6z"/>
		
			<linearGradient id="SVGID_26_" gradientUnits="userSpaceOnUse" x1="250.5301" y1="385.5131" x2="250.5301" y2="371.1526" gradientTransform="matrix(0.7071 0.7071 -0.7071 0.7071 123.0007 -197.7269)">
			<stop  offset="0" style="stop-color:#FFFFFF;stop-opacity:0.7754"/>
			<stop  offset="1" style="stop-color:#FFFFFF;stop-opacity:0"/>
		</linearGradient>
		<path class="st27" d="M31.8,250.6c-1.7,1.7-3.7,2.4-4.4,1.7c-0.8-0.8,0-2.7,1.7-4.4c1.7-1.7,12.2-10.9,12.9-10.2
			C42.7,238.4,33.5,248.9,31.8,250.6z"/>
		
			<linearGradient id="SVGID_27_" gradientUnits="userSpaceOnUse" x1="331.7122" y1="472.5888" x2="331.7122" y2="449.803" gradientTransform="matrix(0.7071 0.7071 -0.7071 0.7071 123.0007 -197.7269)">
			<stop  offset="0" style="stop-color:#FFFFFF;stop-opacity:0.7754"/>
			<stop  offset="1" style="stop-color:#FFFFFF;stop-opacity:0"/>
		</linearGradient>
		<path class="st28" d="M30.1,368.7c-2.7,2.7-5.8,3.8-7,2.6c-1.2-1.2,0-4.3,2.6-7c2.7-2.7,19.3-17.3,20.5-16.1
			C47.4,349.4,32.7,366,30.1,368.7z"/>
		<circle class="st12" cx="22.7" cy="244.1" r="2.3"/>
		<circle class="st12" cx="60.3" cy="348.4" r="0.9"/>
		<path class="st12" d="M128.6,287.7c0,0.8-0.7,1.5-1.5,1.5c-0.8,0-1.5-0.7-1.5-1.5c0-0.8,0.7-1.5,1.5-1.5
			C127.9,286.2,128.6,286.9,128.6,287.7z"/>
		<path class="st14" d="M186.6,315.2c0,0.6-0.5,1.1-1.1,1.1c-0.6,0-1.1-0.5-1.1-1.1c0-0.6,0.5-1.1,1.1-1.1
			C186.1,314,186.6,314.5,186.6,315.2z"/>
		<path class="st12" d="M198.6,270.1c0,1-0.8,1.9-1.9,1.9s-1.9-0.8-1.9-1.9c0-1,0.8-1.9,1.9-1.9S198.6,269.1,198.6,270.1z"/>
		<path class="st12" d="M175.4,375c0,0.3-0.3,0.6-0.6,0.6s-0.6-0.3-0.6-0.6c0-0.3,0.3-0.6,0.6-0.6S175.4,374.7,175.4,375z"/>
		<circle class="st14" cx="11.3" cy="370.7" r="0.8"/>
		<path class="st12" d="M15.1,339.8c0,0.7-0.6,1.3-1.3,1.3s-1.3-0.6-1.3-1.3s0.6-1.3,1.3-1.3S15.1,339,15.1,339.8z"/>
		<path class="st12" d="M60.1,270.3c0,0.5-0.4,0.9-0.9,0.9c-0.5,0-0.9-0.4-0.9-0.9c0-0.5,0.4-0.9,0.9-0.9
			C59.7,269.4,60.1,269.8,60.1,270.3z"/>
		<path class="st12" d="M87.1,300.3c0,0.5-0.4,0.9-0.9,0.9c-0.5,0-0.9-0.4-0.9-0.9c0-0.5,0.4-0.9,0.9-0.9
			C86.7,299.4,87.1,299.8,87.1,300.3z"/>
		<path class="st12" d="M145,269.7c0,0.6-0.5,1.1-1.1,1.1s-1.1-0.5-1.1-1.1s0.5-1.1,1.1-1.1S145,269.1,145,269.7z"/>
		<path class="st14" d="M98.4,371.3c0,0.5-0.4,0.9-0.9,0.9c-0.5,0-0.9-0.4-0.9-0.9s0.4-0.9,0.9-0.9C98,370.4,98.4,370.8,98.4,371.3z
			"/>
		<path class="st14" d="M195.3,335.1c0,0.4-0.3,0.8-0.8,0.8s-0.8-0.3-0.8-0.8c0-0.4,0.3-0.8,0.8-0.8S195.3,334.7,195.3,335.1z"/>
		<path class="st12" d="M156.2,299.8c0,0.4-0.3,0.8-0.8,0.8c-0.4,0-0.8-0.3-0.8-0.8c0-0.4,0.3-0.8,0.8-0.8
			C155.9,299,156.2,299.4,156.2,299.8z"/>
		<polygon class="st12" points="103.7,298.3 104.3,300.7 106.7,301.3 104.3,301.9 103.7,304.3 103.1,301.9 100.6,301.3 103.1,300.7 
					"/>
		<polygon class="st12" points="114.6,266.7 115.1,268.9 117.2,269.4 115.1,269.9 114.6,272 114,269.9 111.9,269.4 114,268.9 		"/>
		<polygon class="st12" points="56,370.2 56.5,372.1 58.4,372.6 56.5,373.1 56,375 55.5,373.1 53.6,372.6 55.5,372.1 		"/>
		<polygon class="st14" points="3.8,285 4.3,286.9 6.2,287.4 4.3,287.9 3.8,289.8 3.3,287.9 1.4,287.4 3.3,286.9 		"/>
		<polygon class="st12" points="34.6,264.6 35.2,266.9 37.5,267.5 35.2,268.1 34.6,270.4 34,268.1 31.7,267.5 34,266.9 		"/>
		<polygon class="st12" points="188.9,296.4 189.2,297.9 190.8,298.3 189.2,298.6 188.9,300.2 188.5,298.6 187,298.3 188.5,297.9 		
			"/>
		<path class="st12" d="M80.8,354.2c0,0.6-0.5,1.1-1.1,1.1c-0.6,0-1.1-0.5-1.1-1.1s0.5-1.1,1.1-1.1
			C80.3,353.1,80.8,353.6,80.8,354.2z"/>
		<circle class="st12" cx="2.5" cy="327.7" r="0.6"/>
		<circle class="st14" cx="75.3" cy="263.9" r="0.9"/>
		<path class="st12" d="M172.7,263.9c0,0.5-0.4,0.9-0.9,0.9c-0.5,0-0.9-0.4-0.9-0.9c0-0.5,0.4-0.9,0.9-0.9
			C172.3,263,172.7,263.4,172.7,263.9z"/>
		<path class="st12" d="M202.8,471.3c0,0.9-0.8,1.7-1.7,1.7s-1.7-0.8-1.7-1.7c0-0.9,0.8-1.7,1.7-1.7S202.8,470.3,202.8,471.3z"/>
		<path class="st12" d="M222.7,454.2c0,0.8-0.7,1.5-1.5,1.5c-0.8,0-1.5-0.7-1.5-1.5c0-0.8,0.7-1.5,1.5-1.5
			C222,452.7,222.7,453.4,222.7,454.2z"/>
		<polygon class="st12" points="224.8,318.2 223.7,322.4 219.5,323.5 223.7,324.5 224.8,328.7 225.8,324.5 230.1,323.5 225.8,322.4 
					"/>
		<polygon class="st12" points="52.8,241.2 51.7,245.4 47.5,246.5 51.7,247.5 52.8,251.7 53.8,247.5 58.1,246.5 53.8,245.4 		"/>
		<circle class="st18" cx="152.9" cy="264.9" r="4.2"/>
		<polygon class="st19" points="147.1,241.6 147.8,244.7 150.9,245.4 147.8,246.1 147.1,249.2 146.4,246.1 143.4,245.4 146.4,244.7 
					"/>
	</g>
	<g class="st2">
		<g>
			<radialGradient id="SVGID_28_" cx="56.7644" cy="409.4254" r="39.279" gradientUnits="userSpaceOnUse">
				<stop  offset="0" style="stop-color:#FAC40F"/>
				<stop  offset="1" style="stop-color:#FAC40F;stop-opacity:0"/>
			</radialGradient>
			<circle class="st29" cx="56.8" cy="409.4" r="39.3"/>
			<g>
				<linearGradient id="SVGID_29_" gradientUnits="userSpaceOnUse" x1="77.5987" y1="432.571" x2="40.0473" y2="392.4594">
					<stop  offset="0" style="stop-color:#FAC40F"/>
					<stop  offset="1" style="stop-color:#E72AE3"/>
				</linearGradient>
				<path class="st30" d="M85.2,410.2c0,0.2,0,0.3,0,0.5c0,0,0,0,0,0v0c0,0.3,0,0.7,0,1c0,0.4,0,0.7-0.1,1c-0.3,2.7-0.9,5.3-1.9,7.8
					c-0.8,2-1.8,3.9-3,5.6c-1,1.4-2.1,2.8-3.4,4.1c-1,1-2,1.9-3.1,2.7c-10.2,7.6-24.3,7.6-34.4,0c-1.1-0.8-2.1-1.7-3.1-2.7
					c-2.9-2.9-5-6.2-6.4-9.7c0,0,0,0,0,0c-2-5-2.5-10.5-1.6-15.8c0.7-3.9,2.3-7.8,4.6-11.2c1-1.4,2.1-2.7,3.3-3.9
					c4.3-4.3,9.7-7,15.2-8c5-0.9,10.2-0.4,15.1,1.3c2.6,1,5.1,2.3,7.4,4.1c0.2,0.1,0.4,0.3,0.5,0.4c0.8,0.7,1.6,1.4,2.4,2.1
					c3.1,3.1,5.4,6.8,6.8,10.7c0,0.1,0.1,0.2,0.1,0.3c0.1,0.3,0.2,0.5,0.2,0.7c0.1,0.2,0.1,0.4,0.2,0.6c0,0.1,0.1,0.2,0.1,0.4
					c0,0.1,0,0.1,0,0.2c0,0.1,0.1,0.2,0.1,0.3c0.1,0.2,0.1,0.5,0.2,0.7c0,0,0,0.1,0,0.1c0.1,0.6,0.2,1.2,0.3,1.9c0,0.1,0,0.1,0,0.2
					c0.1,0.4,0.1,0.7,0.1,1.1c0,0.1,0,0.2,0,0.2c0,0.3,0.1,0.7,0.1,1c0,0.4,0,0.8,0.1,1.2C85.2,409.7,85.2,409.9,85.2,410.2z"/>
				<linearGradient id="SVGID_30_" gradientUnits="userSpaceOnUse" x1="49.7534" y1="409.3727" x2="31.1705" y2="392.7607">
					<stop  offset="0" style="stop-color:#FFFFFF;stop-opacity:0.7754"/>
					<stop  offset="1" style="stop-color:#FFFFFF;stop-opacity:0"/>
				</linearGradient>
				<path class="st31" d="M36.2,389.7c4.3-4.3,9.7-7,15.2-8c-1.1,6.9,10.6,13.5,0.8,13.7c-12.1,0.2-11.8,6.4-11.2,18.9
					c0.4,7.1-5.8,7.4-11.3,6.3c0,0,0,0,0,0c-2-5-2.5-10.5-1.6-15.8c0.7-3.9,2.3-7.8,4.6-11.2C33.9,392.3,35,391,36.2,389.7z"/>
				<linearGradient id="SVGID_31_" gradientUnits="userSpaceOnUse" x1="39.3015" y1="427.8059" x2="73.7383" y2="427.8059">
					<stop  offset="0" style="stop-color:#FFFFFF;stop-opacity:0.7754"/>
					<stop  offset="1" style="stop-color:#FFFFFF;stop-opacity:0"/>
				</linearGradient>
				<path class="st32" d="M73.2,431c0.2,0.7,0.4,1.4,0.5,2.1c-0.8,0.6-1.7,1.2-2.6,1.7c-7.7,4.6-17.2,5.2-25.4,1.9
					c-2.3-0.9-4.5-2.1-6.5-3.6c7.7,0.8,17,0.3,15.5-6.9C52.3,414.1,67.8,411.8,73.2,431z"/>
				<linearGradient id="SVGID_32_" gradientUnits="userSpaceOnUse" x1="54.2802" y1="398.4606" x2="85.242" y2="398.4606">
					<stop  offset="0" style="stop-color:#FFFFFF;stop-opacity:0.7754"/>
					<stop  offset="1" style="stop-color:#FFFFFF;stop-opacity:0"/>
				</linearGradient>
				<path class="st33" d="M85.2,410.2v0.2c0,0.1,0,0.2,0,0.3c0,0,0,0,0,0v0c0,0.3,0,0.7,0,1c0,0.4,0,0.7-0.1,1
					c-5.5,2.8-12.3-0.6-19.8-4.5c-4.4-2.3-11.1,0.2-11-2.3c0.1-3.2,4.4-5.9,8.2-8.7c3.8-2.7,3.3-9,4-14.2c2.6,1,5.1,2.3,7.4,4.1
					c0,0.2,0.2,0.3,0.5,0.4c0.8,0.7,1.6,1.4,2.4,2.1c3.1,3.1,5.4,6.8,6.8,10.7c-0.5,0.5-0.4,0.9,0.3,1.1c0.1,0.2,0.1,0.4,0.2,0.6
					c0,0.1,0.1,0.2,0.1,0.4c0,0.1,0,0.1,0,0.2c0,0.1,0.1,0.2,0.1,0.3c0.1,0.3,0.1,0.5,0.2,0.7c0,0,0,0.1,0,0.1
					c0,0.2,0.1,0.5,0.1,0.7c0.3,1.6,0.5,3.2,0.5,4.9C85.2,409.7,85.2,409.9,85.2,410.2z"/>
			</g>
		</g>
		<g>
			<radialGradient id="SVGID_33_" cx="220.3737" cy="389.5741" r="29.6715" gradientUnits="userSpaceOnUse">
				<stop  offset="0" style="stop-color:#FDEFD2"/>
				<stop  offset="1" style="stop-color:#FDEFD2;stop-opacity:0"/>
			</radialGradient>
			<circle class="st34" cx="220.4" cy="389.6" r="29.7"/>
			<g>
				<linearGradient id="SVGID_34_" gradientUnits="userSpaceOnUse" x1="243.8377" y1="414.1183" x2="207.2297" y2="371.3355">
					<stop  offset="0" style="stop-color:#06C2CC"/>
					<stop  offset="0.1098" style="stop-color:#19C4C9"/>
					<stop  offset="0.3322" style="stop-color:#4ACAC2"/>
					<stop  offset="0.6475" style="stop-color:#98D4B6"/>
					<stop  offset="1" style="stop-color:#F8DFA7"/>
				</linearGradient>
				<circle class="st35" cx="222" cy="388.6" r="23.7"/>
				<g>
					<linearGradient id="SVGID_35_" gradientUnits="userSpaceOnUse" x1="226.5213" y1="379.9218" x2="219.1564" y2="372.557">
						<stop  offset="0" style="stop-color:#06C2CC"/>
						<stop  offset="0.1098" style="stop-color:#19C4C9"/>
						<stop  offset="0.3322" style="stop-color:#4ACAC2"/>
						<stop  offset="0.6475" style="stop-color:#98D4B6"/>
						<stop  offset="1" style="stop-color:#F8DFA7"/>
					</linearGradient>
					<path class="st36" d="M226.7,375.5c0,2.5-2,4.6-4.6,4.6c-2.5,0-4.6-2-4.6-4.6c0-2.5,2-4.6,4.6-4.6
						C224.6,370.9,226.7,373,226.7,375.5z"/>
					<path class="st37" d="M226.4,373.9c0.2,0.5,0.3,1,0.3,1.6c0,2.5-2,4.6-4.6,4.6c-1.6,0-3-0.8-3.8-2.1c0.6,1.7,2.3,3,4.3,3
						c2.5,0,4.6-2,4.6-4.6C227.1,375.5,226.8,374.6,226.4,373.9z"/>
					<path class="st38" d="M218.1,376.3c0-2.5,2-4.6,4.6-4.6c1.4,0,2.7,0.6,3.5,1.7c-0.8-1.4-2.3-2.4-4-2.4c-2.5,0-4.6,2-4.6,4.6
						c0,1.1,0.4,2.1,1.1,2.9C218.2,377.8,218.1,377,218.1,376.3z"/>
				</g>
				<g>
					<linearGradient id="SVGID_36_" gradientUnits="userSpaceOnUse" x1="211.6899" y1="400.1904" x2="206.3766" y2="394.877">
						<stop  offset="0" style="stop-color:#06C2CC"/>
						<stop  offset="0.1098" style="stop-color:#19C4C9"/>
						<stop  offset="0.3322" style="stop-color:#4ACAC2"/>
						<stop  offset="0.6475" style="stop-color:#98D4B6"/>
						<stop  offset="1" style="stop-color:#F8DFA7"/>
					</linearGradient>
					<path class="st39" d="M211.8,397c0,1.8-1.5,3.3-3.3,3.3c-1.8,0-3.3-1.5-3.3-3.3c0-1.8,1.5-3.3,3.3-3.3
						C210.3,393.7,211.8,395.2,211.8,397z"/>
					<path class="st37" d="M211.6,395.8c0.1,0.4,0.2,0.7,0.2,1.2c0,1.8-1.5,3.3-3.3,3.3c-1.2,0-2.2-0.6-2.8-1.5
						c0.5,1.2,1.7,2.1,3.1,2.1c1.8,0,3.3-1.5,3.3-3.3C212.1,397,211.9,396.4,211.6,395.8z"/>
					<path class="st38" d="M205.6,397.6c0-1.8,1.5-3.3,3.3-3.3c1,0,1.9,0.5,2.5,1.2c-0.6-1-1.6-1.8-2.9-1.8c-1.8,0-3.3,1.5-3.3,3.3
						c0,0.8,0.3,1.5,0.8,2.1C205.7,398.6,205.6,398.1,205.6,397.6z"/>
				</g>
				<g>
					<linearGradient id="SVGID_37_" gradientUnits="userSpaceOnUse" x1="230.5441" y1="403.8479" x2="225.8233" y2="399.1272">
						<stop  offset="0" style="stop-color:#06C2CC"/>
						<stop  offset="0.1098" style="stop-color:#19C4C9"/>
						<stop  offset="0.3322" style="stop-color:#4ACAC2"/>
						<stop  offset="0.6475" style="stop-color:#98D4B6"/>
						<stop  offset="1" style="stop-color:#F8DFA7"/>
					</linearGradient>
					<path class="st40" d="M230.6,401c0,1.6-1.3,2.9-2.9,2.9c-1.6,0-2.9-1.3-2.9-2.9c0-1.6,1.3-2.9,2.9-2.9
						C229.3,398.1,230.6,399.4,230.6,401z"/>
					<path class="st37" d="M230.4,400c0.1,0.3,0.2,0.7,0.2,1c0,1.6-1.3,2.9-2.9,2.9c-1,0-1.9-0.5-2.5-1.3c0.4,1.1,1.5,1.9,2.7,1.9
						c1.6,0,2.9-1.3,2.9-2.9C230.9,401,230.7,400.4,230.4,400z"/>
					<path class="st38" d="M225.1,401.5c0-1.6,1.3-2.9,2.9-2.9c0.9,0,1.7,0.4,2.3,1.1c-0.5-0.9-1.5-1.6-2.6-1.6
						c-1.6,0-2.9,1.3-2.9,2.9c0,0.7,0.3,1.4,0.7,1.9C225.2,402.5,225.1,402,225.1,401.5z"/>
				</g>
				<g>
					<linearGradient id="SVGID_38_" gradientUnits="userSpaceOnUse" x1="237.555" y1="387.8982" x2="231.2067" y2="381.5499">
						<stop  offset="0" style="stop-color:#06C2CC"/>
						<stop  offset="0.1098" style="stop-color:#19C4C9"/>
						<stop  offset="0.3322" style="stop-color:#4ACAC2"/>
						<stop  offset="0.6475" style="stop-color:#98D4B6"/>
						<stop  offset="1" style="stop-color:#F8DFA7"/>
					</linearGradient>
					<path class="st41" d="M237.7,384.1c0,2.2-1.8,3.9-3.9,3.9c-2.2,0-3.9-1.8-3.9-3.9s1.8-3.9,3.9-3.9
						C235.9,380.1,237.7,381.9,237.7,384.1z"/>
					<path class="st37" d="M237.4,382.7c0.2,0.4,0.3,0.9,0.3,1.4c0,2.2-1.8,3.9-3.9,3.9c-1.4,0-2.6-0.7-3.3-1.8
						c0.6,1.5,2,2.6,3.7,2.6c2.2,0,3.9-1.8,3.9-3.9C238,384,237.8,383.3,237.4,382.7z"/>
					<path class="st38" d="M230.3,384.8c0-2.2,1.8-3.9,3.9-3.9c1.2,0,2.3,0.6,3,1.4c-0.7-1.2-2-2.1-3.5-2.1c-2.2,0-3.9,1.8-3.9,3.9
						c0,1,0.3,1.8,0.9,2.5C230.4,386,230.3,385.4,230.3,384.8z"/>
				</g>
				<g>
					<circle class="st38" cx="221.4" cy="389.6" r="3"/>
					<path class="st37" d="M224.2,388.6c0.1,0.3,0.2,0.7,0.2,1c0,1.7-1.3,3-3,3c-1.1,0-2-0.5-2.5-1.4c0.4,1.1,1.5,1.9,2.8,1.9
						c1.7,0,3-1.3,3-3C224.7,389.6,224.5,389,224.2,388.6z"/>
					<path class="st42" d="M218.8,390.1c0-1.7,1.3-3,3-3c0.9,0,1.8,0.4,2.3,1.1c-0.5-0.9-1.5-1.6-2.6-1.6c-1.7,0-3,1.3-3,3
						c0,0.7,0.3,1.4,0.7,1.9C218.9,391.1,218.8,390.6,218.8,390.1z"/>
				</g>
			</g>
		</g>
		<g>
			<radialGradient id="SVGID_39_" cx="150.8992" cy="443.6819" r="44.9022" gradientUnits="userSpaceOnUse">
				<stop  offset="0" style="stop-color:#63FFFF"/>
				<stop  offset="1" style="stop-color:#63FFFF;stop-opacity:0"/>
			</radialGradient>
			<circle class="st43" cx="150.9" cy="443.7" r="44.9"/>
			<g>
				
					<linearGradient id="SVGID_40_" gradientUnits="userSpaceOnUse" x1="178.1271" y1="495.6306" x2="151.2297" y2="450.1119" gradientTransform="matrix(0.9715 0.2369 -0.2369 0.9715 100.5793 -58.5596)">
					<stop  offset="0" style="stop-color:#3EE3DE"/>
					<stop  offset="1" style="stop-color:#0592F7"/>
				</linearGradient>
				<path class="st44" d="M180.5,451.6c-0.3,1.3-0.7,2.6-1.2,3.8c-1.8,4.8-4.7,8.9-8.3,12.1c-1.1,1-2.2,1.9-3.4,2.7
					c-1.9,1.3-3.9,2.3-6,3.2c-5.9,2.4-12.6,3-19.2,1.4c-5.4-1.3-10.1-3.9-13.9-7.4l0,0c-3.7-3.4-6.5-7.7-8.3-12.4
					c-1-2.7-1.6-5.5-1.9-8.4c-0.1-1.8-0.1-3.7,0.1-5.6c0.1-1.5,0.4-2.9,0.8-4.4c0.3-1.2,0.6-2.3,1-3.4c0.7-1.8,1.5-3.6,2.5-5.2
					c1.2-2.1,2.6-3.9,4.3-5.6c3.2-3.3,7-5.9,11.3-7.6c5.9-2.3,12.5-2.9,19.1-1.3c8.2,2,14.8,7,19,13.6c0.6,0.9,1.1,1.8,1.6,2.7
					c0.6,1.1,1.1,2.3,1.6,3.6c1.7,4.5,2.3,9.5,1.7,14.5C181,449.1,180.8,450.4,180.5,451.6z"/>
				
					<linearGradient id="SVGID_41_" gradientUnits="userSpaceOnUse" x1="178.7466" y1="456.1494" x2="132.9007" y2="455.9401" gradientTransform="matrix(0.9715 0.2369 -0.2369 0.9715 100.5793 -58.5596)">
					<stop  offset="0" style="stop-color:#FFFFFF;stop-opacity:0"/>
					<stop  offset="1" style="stop-color:#FFFFFF;stop-opacity:0.7754"/>
				</linearGradient>
				<path class="st45" d="M177.9,429.8c-12.1-1.9-33.7-5.3-51-7.4c3.2-3.3,7-5.9,11.3-7.6c12.6,4.7,27.4,9.7,38.1,12.2
					C176.9,427.9,177.5,428.8,177.9,429.8z"/>
				
					<linearGradient id="SVGID_42_" gradientUnits="userSpaceOnUse" x1="193.217" y1="505.3596" x2="156.5807" y2="455.5342" gradientTransform="matrix(0.9715 0.2369 -0.2369 0.9715 100.5793 -58.5596)">
					<stop  offset="0" style="stop-color:#FFFFFF;stop-opacity:0.7754"/>
					<stop  offset="1" style="stop-color:#FFFFFF;stop-opacity:0"/>
				</linearGradient>
				<path class="st46" d="M181.2,447.8c-14.9-3.7-45.9-11.3-60.9-14.6c0.7-1.8,1.5-3.6,2.5-5.2c15.8,1.1,41.8,3,56.8,5.3
					C181.1,437.8,181.8,442.8,181.2,447.8z"/>
				
					<linearGradient id="SVGID_43_" gradientUnits="userSpaceOnUse" x1="193.8208" y1="487.3582" x2="126.6222" y2="478.3565" gradientTransform="matrix(0.9715 0.2369 -0.2369 0.9715 100.5793 -58.5596)">
					<stop  offset="0" style="stop-color:#FFFFFF;stop-opacity:0"/>
					<stop  offset="1" style="stop-color:#FFFFFF;stop-opacity:0.7754"/>
				</linearGradient>
				<path class="st47" d="M179.3,455.4c-1.8,4.8-4.7,8.9-8.3,12.1c-6.7-3.9-15.4-8.7-24.4-12.4c-10.4-4.3-21.2-7-28.2-8.6
					c-0.1-1.8-0.1-3.7,0.1-5.6c7.4,0.6,19.9,1.2,32,4.7C160.1,448.6,170.2,452.5,179.3,455.4z"/>
				
					<linearGradient id="SVGID_44_" gradientUnits="userSpaceOnUse" x1="179.6588" y1="515.3266" x2="143.0229" y2="465.5017" gradientTransform="matrix(0.9715 0.2369 -0.2369 0.9715 100.5793 -58.5596)">
					<stop  offset="0" style="stop-color:#FFFFFF;stop-opacity:0.7754"/>
					<stop  offset="1" style="stop-color:#FFFFFF;stop-opacity:0"/>
				</linearGradient>
				<path class="st48" d="M167.5,470.2c-1.9,1.3-3.9,2.3-6,3.2c-8.9-1.8-22.2-4.4-33.1-6l0,0c-3.7-3.4-6.5-7.7-8.3-12.4
					C133.8,459,157.3,466,167.5,470.2z"/>
				
					<linearGradient id="SVGID_45_" gradientUnits="userSpaceOnUse" x1="168.6142" y1="500.8586" x2="168.6142" y2="463.6137" gradientTransform="matrix(0.9715 0.2369 -0.2369 0.9715 100.5793 -58.5596)">
					<stop  offset="0" style="stop-color:#F8DFA7"/>
					<stop  offset="0.1162" style="stop-color:#E3DDAA"/>
					<stop  offset="0.3559" style="stop-color:#AED6B2"/>
					<stop  offset="0.6948" style="stop-color:#58CCBF"/>
					<stop  offset="1" style="stop-color:#06C2CC"/>
				</linearGradient>
				<path class="st49" d="M180.4,436.1c0.4,1.4,0.7,2.9,0.8,4.4c12.3,4.8,20,9.7,19.2,13c-0.8,3.1-9.1,4-21.4,2.9
					c-8.3-0.8-18.4-2.5-29.1-5.1c-12.3-3-23.2-6.6-31.4-10.2c-9.6-4.2-15.2-8.2-14.5-11.1c0.7-3,8.3-3.9,19.5-3
					c0.8-1.3,1.7-2.4,2.7-3.6c-17.9-1.8-30.8,0-32.1,5.4c-1.3,5.2,8.6,12.4,24.5,18.9c8.5,3.5,18.7,6.8,29.9,9.6
					c9.7,2.4,19.1,4,27.4,4.9c18.9,2.1,32.6,0.3,33.9-5.2C211.1,451.3,199,443.1,180.4,436.1z"/>
			</g>
		</g>
		<g>
			
				<radialGradient id="SVGID_46_" cx="-811.7654" cy="398.1308" r="36.0638" gradientTransform="matrix(-1 0 0 1 -248.09 0)" gradientUnits="userSpaceOnUse">
				<stop  offset="0" style="stop-color:#FDEFD2"/>
				<stop  offset="1" style="stop-color:#FDEFD2;stop-opacity:0"/>
			</radialGradient>
			<circle class="st50" cx="563.7" cy="398.1" r="36.1"/>
			<g>
				
					<linearGradient id="SVGID_47_" gradientUnits="userSpaceOnUse" x1="-790.4008" y1="424.845" x2="-825.5019" y2="379.9155" gradientTransform="matrix(-1 0 0 1 -248.09 0)">
					<stop  offset="0.1366" style="stop-color:#06C2CC"/>
					<stop  offset="0.2314" style="stop-color:#19C4C9"/>
					<stop  offset="0.4235" style="stop-color:#4ACAC2"/>
					<stop  offset="0.6957" style="stop-color:#98D4B6"/>
					<stop  offset="1" style="stop-color:#F8DFA7"/>
				</linearGradient>
				<path class="st51" d="M534.5,398.7c0,9.9,5.1,18.6,12.8,23.6c2.7,1.8,5.8,3.1,9.1,3.9c2,0.5,4.1,0.7,6.2,0.7
					c7.4,0,14.2-2.9,19.2-7.6c1.7-1.6,3.3-3.4,4.6-5.5c1.2-1.9,2.3-4.1,3-6.3c0.9-2.8,1.4-5.8,1.4-8.9c0-2.9-0.4-5.7-1.2-8.3
					c-2.9-9.4-10.6-16.7-20.1-19c-2.2-0.5-4.5-0.8-6.8-0.8c-5.8,0-11.2,1.8-15.7,4.8c-0.5,0.4-1.1,0.7-1.6,1.1
					c-6.6,5.1-10.8,13-10.9,21.9C534.5,398.5,534.5,398.6,534.5,398.7z"/>
				<path class="st52" d="M534.5,398.7c0,9.9,5.1,18.6,12.8,23.6c5.2-3.8,7.4-11.9,0.9-17.2c-9.6-7.9-0.6-9.3,9.6-22.2
					c6.7-8.5-3.2-8.6-10.8-7.6c-0.5,0.4-1.1,0.7-1.6,1.1c-6.6,5.1-10.8,13-10.9,21.9C534.5,398.5,534.5,398.6,534.5,398.7z"/>
				<path class="st52" d="M571.6,378.6c9.6,8.2,10.6,4.7,6.7,14.9c-2.4,6.2,2,15.4,8.2,20.4c1.2-1.9,2.3-4.1,3-6.3
					c0.9-2.8,1.4-5.8,1.4-8.9c0-2.9-0.4-5.7-1.2-8.3c-2.9-9.4-10.6-16.7-20.1-19C568.1,373.2,568.1,375.6,571.6,378.6z"/>
				<path class="st52" d="M556.5,426.2c2,0.5,4.1,0.7,6.2,0.7c7.4,0,14.2-2.9,19.2-7.6c-0.8-0.4-1.7-0.8-2.9-1.2
					c-12.3-3.9-6.3-30.2-13-22.3C562.3,400.2,555.4,416.3,556.5,426.2z"/>
				<path class="st52" d="M562.8,383.4c1.5-3.1,5.7-4.1,8.1-1.7c1.2,1.2,1.7,2.9-0.5,5.3C566.4,391.5,560.5,388.3,562.8,383.4z"/>
			</g>
		</g>
		<g>
			
				<radialGradient id="SVGID_48_" cx="-958.5519" cy="386.3053" r="33.0554" gradientTransform="matrix(-1 0 0 1 -248.09 0)" gradientUnits="userSpaceOnUse">
				<stop  offset="0" style="stop-color:#63FFFF"/>
				<stop  offset="1" style="stop-color:#63FFFF;stop-opacity:0"/>
			</radialGradient>
			<circle class="st53" cx="710.5" cy="386.3" r="33.1"/>
			<g>
				
					<linearGradient id="SVGID_49_" gradientUnits="userSpaceOnUse" x1="-949.0597" y1="403.6299" x2="-967.7076" y2="370.9142" gradientTransform="matrix(-1 0 0 1 -248.09 0)">
					<stop  offset="0" style="stop-color:#3EE3DE"/>
					<stop  offset="1" style="stop-color:#0592F7"/>
				</linearGradient>
				<circle class="st54" cx="710.6" cy="386.8" r="23.2"/>
				<g class="st55">
					
						<linearGradient id="SVGID_50_" gradientUnits="userSpaceOnUse" x1="-960.3278" y1="403.1096" x2="-967.4531" y2="395.9843" gradientTransform="matrix(-1 0 0 1 -248.09 0)">
						<stop  offset="0" style="stop-color:#183BBB"/>
						<stop  offset="1" style="stop-color:#3EE3DE;stop-opacity:0.7754"/>
					</linearGradient>
					<path class="st56" d="M711.7,399.2c0,2.4,2,4.4,4.4,4.4c2.4,0,4.4-2,4.4-4.4c0-2.4-2-4.4-4.4-4.4
						C713.7,394.8,711.7,396.8,711.7,399.2z"/>
					<path class="st37" d="M712,397.7c-0.2,0.5-0.3,1-0.3,1.5c0,2.4,2,4.4,4.4,4.4c1.6,0,2.9-0.8,3.7-2c-0.6,1.7-2.2,2.9-4.1,2.9
						c-2.4,0-4.4-2-4.4-4.4C711.3,399.2,711.5,398.4,712,397.7z"/>
					<path class="st57" d="M720,400c0-2.4-2-4.4-4.4-4.4c-1.4,0-2.6,0.6-3.4,1.6c0.7-1.4,2.2-2.4,3.9-2.4c2.4,0,4.4,2,4.4,4.4
						c0,1.1-0.4,2.1-1,2.8C719.8,401.4,720,400.7,720,400z"/>
				</g>
				<g class="st55">
					
						<linearGradient id="SVGID_51_" gradientUnits="userSpaceOnUse" x1="-963.3578" y1="372.8906" x2="-966.9804" y2="369.268" gradientTransform="matrix(-1 0 0 1 -248.09 0)">
						<stop  offset="0" style="stop-color:#183BBB"/>
						<stop  offset="1" style="stop-color:#3EE3DE;stop-opacity:0.7754"/>
					</linearGradient>
					<circle class="st58" cx="717.2" cy="370.9" r="2.2"/>
					<path class="st37" d="M715.1,370.1c-0.1,0.2-0.1,0.5-0.1,0.8c0,1.2,1,2.2,2.2,2.2c0.8,0,1.5-0.4,1.9-1
						c-0.3,0.9-1.1,1.5-2.1,1.5c-1.2,0-2.2-1-2.2-2.2C714.8,370.9,714.9,370.5,715.1,370.1z"/>
					<path class="st57" d="M719.2,371.3c0-1.2-1-2.2-2.2-2.2c-0.7,0-1.3,0.3-1.7,0.8c0.4-0.7,1.1-1.2,2-1.2c1.2,0,2.2,1,2.2,2.2
						c0,0.5-0.2,1-0.5,1.4C719.1,372,719.2,371.7,719.2,371.3z"/>
				</g>
				<g class="st55">
					
						<linearGradient id="SVGID_52_" gradientUnits="userSpaceOnUse" x1="-949.9973" y1="382.2475" x2="-956.1771" y2="376.0677" gradientTransform="matrix(-1 0 0 1 -248.09 0)">
						<stop  offset="0" style="stop-color:#183BBB"/>
						<stop  offset="1" style="stop-color:#3EE3DE;stop-opacity:0.7754"/>
					</linearGradient>
					<path class="st59" d="M701.4,378.9c0,2.1,1.7,3.8,3.8,3.8c2.1,0,3.8-1.7,3.8-3.8s-1.7-3.8-3.8-3.8
						C703.2,375.1,701.4,376.8,701.4,378.9z"/>
					<path class="st37" d="M701.7,377.5c-0.2,0.4-0.2,0.9-0.2,1.3c0,2.1,1.7,3.8,3.8,3.8c1.4,0,2.5-0.7,3.2-1.8
						c-0.5,1.5-1.9,2.5-3.6,2.5c-2.1,0-3.8-1.7-3.8-3.8C701.1,378.9,701.3,378.1,701.7,377.5z"/>
					<path class="st57" d="M708.7,379.5c0-2.1-1.7-3.8-3.8-3.8c-1.2,0-2.2,0.5-2.9,1.4c0.6-1.2,1.9-2,3.4-2c2.1,0,3.8,1.7,3.8,3.8
						c0,0.9-0.3,1.8-0.9,2.4C708.5,380.8,708.7,380.2,708.7,379.5z"/>
				</g>
				<g class="st55">
					
						<linearGradient id="SVGID_53_" gradientUnits="userSpaceOnUse" x1="-940.7756" y1="391.3812" x2="-946.1021" y2="386.0548" gradientTransform="matrix(-1 0 0 1 -248.09 0)">
						<stop  offset="0" style="stop-color:#183BBB"/>
						<stop  offset="1" style="stop-color:#3EE3DE;stop-opacity:0.7754"/>
					</linearGradient>
					<circle class="st60" cx="695.6" cy="388.5" r="3.3"/>
					<path class="st37" d="M692.5,387.3c-0.1,0.4-0.2,0.7-0.2,1.2c0,1.8,1.5,3.3,3.3,3.3c1.2,0,2.2-0.6,2.8-1.5
						c-0.5,1.3-1.7,2.1-3.1,2.1c-1.8,0-3.3-1.5-3.3-3.3C692,388.5,692.2,387.8,692.5,387.3z"/>
					<path class="st57" d="M698.5,389c0-1.8-1.5-3.3-3.3-3.3c-1,0-1.9,0.5-2.5,1.2c0.6-1,1.7-1.8,2.9-1.8c1.8,0,3.3,1.5,3.3,3.3
						c0,0.8-0.3,1.5-0.8,2.1C698.4,390.1,698.5,389.6,698.5,389z"/>
				</g>
				<g class="st55">
					
						<linearGradient id="SVGID_54_" gradientUnits="userSpaceOnUse" x1="-948.0092" y1="402.4644" x2="-950.5981" y2="399.8755" gradientTransform="matrix(-1 0 0 1 -248.09 0)">
						<stop  offset="0" style="stop-color:#183BBB"/>
						<stop  offset="1" style="stop-color:#3EE3DE;stop-opacity:0.7754"/>
					</linearGradient>
					<circle class="st61" cx="701.3" cy="401.1" r="1.6"/>
					<path class="st37" d="M699.8,400.5c-0.1,0.2-0.1,0.4-0.1,0.6c0,0.9,0.7,1.6,1.6,1.6c0.6,0,1.1-0.3,1.3-0.7
						c-0.2,0.6-0.8,1-1.5,1c-0.9,0-1.6-0.7-1.6-1.6C699.6,401,699.7,400.7,699.8,400.5z"/>
					<path class="st57" d="M702.7,401.3c0-0.9-0.7-1.6-1.6-1.6c-0.5,0-0.9,0.2-1.2,0.6c0.3-0.5,0.8-0.9,1.4-0.9
						c0.9,0,1.6,0.7,1.6,1.6c0,0.4-0.1,0.7-0.4,1C702.7,401.9,702.7,401.6,702.7,401.3z"/>
				</g>
				<g class="st55">
					
						<linearGradient id="SVGID_55_" gradientUnits="userSpaceOnUse" x1="-970.5781" y1="388.2084" x2="-976.6301" y2="382.1565" gradientTransform="matrix(-1 0 0 1 -248.09 0)">
						<stop  offset="0" style="stop-color:#183BBB"/>
						<stop  offset="1" style="stop-color:#3EE3DE;stop-opacity:0.7754"/>
					</linearGradient>
					<path class="st62" d="M722,384.9c0,2.1,1.7,3.8,3.8,3.8c2.1,0,3.8-1.7,3.8-3.8c0-2.1-1.7-3.8-3.8-3.8
						C723.7,381.2,722,382.8,722,384.9z"/>
					<path class="st37" d="M722.3,383.6c-0.2,0.4-0.2,0.9-0.2,1.3c0,2.1,1.7,3.8,3.8,3.8c1.3,0,2.5-0.7,3.2-1.7
						c-0.5,1.4-1.9,2.4-3.5,2.4c-2.1,0-3.8-1.7-3.8-3.8C721.7,384.9,721.9,384.2,722.3,383.6z"/>
					<path class="st57" d="M729.1,385.6c0-2.1-1.7-3.8-3.8-3.8c-1.2,0-2.2,0.5-2.9,1.4c0.6-1.2,1.9-2,3.3-2c2.1,0,3.8,1.7,3.8,3.8
						c0,0.9-0.3,1.7-0.9,2.4C728.9,386.8,729.1,386.2,729.1,385.6z"/>
				</g>
			</g>
		</g>
		<g>
			
				<radialGradient id="SVGID_56_" cx="-895.6702" cy="436.9861" r="42.1445" gradientTransform="matrix(-1 0 0 1 -248.09 0)" gradientUnits="userSpaceOnUse">
				<stop  offset="0" style="stop-color:#FAC40F"/>
				<stop  offset="1" style="stop-color:#FAC40F;stop-opacity:0"/>
			</radialGradient>
			<circle class="st63" cx="647.6" cy="437" r="42.1"/>
			<g>
				
					<linearGradient id="SVGID_57_" gradientUnits="userSpaceOnUse" x1="-907.8781" y1="272.5445" x2="-952.6646" y2="227.7581" gradientTransform="matrix(-0.9873 -0.1591 -0.1591 0.9873 -233.878 44.199)">
					<stop  offset="0" style="stop-color:#FAC40F"/>
					<stop  offset="1" style="stop-color:#E72AE3"/>
				</linearGradient>
				<path class="st64" d="M617.1,432.6c-0.3,1.8-0.4,3.6-0.4,5.4c0.1,4.3,1,8.5,2.8,12.2c0.7,1.5,1.5,3,2.5,4.4
					c4.6,6.7,11.8,11.6,20.4,13c6.2,1,12.2,0.1,17.5-2.3c6.1-2.8,11.2-7.6,14.4-13.6c1.5-2.8,2.5-6,3.1-9.3c0.1-0.7,0.2-1.4,0.3-2.1
					c0.1-0.9,0.1-1.8,0.1-2.7c0-2.1-0.2-4.1-0.6-6.1c-0.9-4.6-2.9-8.9-5.7-12.5c-4.6-6-11.4-10.3-19.4-11.6
					c-7.8-1.3-15.4,0.6-21.6,4.6c-1.1,0.7-2.1,1.5-3.1,2.3c-1.2,1-2.4,2.2-3.4,3.4C620.5,421.7,618,426.8,617.1,432.6z"/>
				<path class="st65" d="M627.4,414.2c5,1.6,11.6,3.9,17.5,6.2c7,2.7,21.5,7.5,32.3,11c-0.9-4.6-2.9-8.9-5.7-12.5
					c-4.7-1.5-9.9-2.6-14.9-2.3c-8.1,0.4-18.6-2.3-26.1-4.7C629.4,412.6,628.4,413.3,627.4,414.2z"/>
				<path class="st65" d="M677.8,437.5c-1.9-0.9-18.7-4.1-28.5-7.5c-7.3-2.5-18.9-8.8-25.3-12.4c-3.5,4.1-6,9.2-6.9,14.9
					c-0.3,1.8-0.4,3.6-0.4,5.4c9-0.4,21-1.1,30-2.1c12.6-1.5,25.8,2.5,30.9,4.3L677.8,437.5z"/>
				<path class="st65" d="M619.5,450.2c0.7,1.5,1.5,3,2.5,4.4l21.9,3.4l16,7.2c6.1-2.8,11.2-7.6,14.4-13.6c-2.6-1.2-6.9-2.2-13.9-2
					c-17,0.5-37.4,0.7-37.4,0.7L619.5,450.2z"/>
				
					<linearGradient id="SVGID_58_" gradientUnits="userSpaceOnUse" x1="-896.9275" y1="454.5575" x2="-896.1766" y2="433.9098" gradientTransform="matrix(-1 0 0 1 -248.09 0)">
					<stop  offset="0" style="stop-color:#FAC40F"/>
					<stop  offset="4.011989e-02" style="stop-color:#FAC61B"/>
					<stop  offset="0.1945" style="stop-color:#F9CE46"/>
					<stop  offset="0.3516" style="stop-color:#F9D469"/>
					<stop  offset="0.5099" style="stop-color:#F8D984"/>
					<stop  offset="0.6696" style="stop-color:#F8DC98"/>
					<stop  offset="0.8318" style="stop-color:#F8DEA3"/>
					<stop  offset="1" style="stop-color:#F8DFA7"/>
				</linearGradient>
				<path class="st66" d="M620.6,422.5c-0.8,1.3-1.4,2.8-2,4.2c-6.8-0.1-11,0.5-11.3,2c-0.2,1.4,3.4,3.3,9.5,5.2
					c7.3,2.4,18.2,4.8,30.5,6.8c11.5,1.9,22.1,2.9,29.7,3.1c7.3,0.2,11.9-0.5,12.1-1.9c0.2-1.5-4.2-3.6-11.5-5.8
					c-0.1-1.6-0.3-3.1-0.6-4.6c14.1,4.2,23.1,9.1,22.5,12.9c-0.6,3.7-10.2,5.5-24.4,5.2c-8.4-0.2-18.3-1.1-28.8-2.8
					c-11.2-1.8-21.4-4.2-29.6-6.8c-12.7-4-20.7-8.6-20.1-12.2C597.3,424,606.7,422.2,620.6,422.5z"/>
			</g>
		</g>
		<g>
			<radialGradient id="SVGID_59_" cx="641.6857" cy="323.9503" r="52.6077" gradientUnits="userSpaceOnUse">
				<stop  offset="0" style="stop-color:#FDEFD2"/>
				<stop  offset="1" style="stop-color:#FDEFD2;stop-opacity:0"/>
			</radialGradient>
			<circle class="st67" cx="641.7" cy="324" r="52.6"/>
			<g>
				<linearGradient id="SVGID_60_" gradientUnits="userSpaceOnUse" x1="685.8353" y1="359.3436" x2="615.7892" y2="304.1891">
					<stop  offset="0.1366" style="stop-color:#06C2CC"/>
					<stop  offset="0.2314" style="stop-color:#19C4C9"/>
					<stop  offset="0.4235" style="stop-color:#4ACAC2"/>
					<stop  offset="0.6957" style="stop-color:#98D4B6"/>
					<stop  offset="1" style="stop-color:#F8DFA7"/>
				</linearGradient>
				<path class="st68" d="M683.8,323.4c0,2.1-0.1,4.2-0.4,6.2v0c-0.3,2-0.7,4-1.3,5.9c-0.9,3.2-2.2,6.2-3.8,9.1
					c-1.1,2.1-2.4,4-3.9,5.8c-8,10.1-20.3,16.6-34.2,16.6c-2.4,0-4.8-0.2-7.2-0.6c-1.8-0.3-3.5-0.7-5.1-1.2
					c-4.6-1.3-8.8-3.4-12.6-6.1c-0.7-0.5-1.3-1-2-1.4c-2.8-2.2-5.3-4.7-7.5-7.5c-0.2-0.3-0.4-0.6-0.7-0.9c-1.5-2-2.8-4.2-4-6.5
					c-1.8-3.6-3.1-7.5-3.9-11.5c-0.3-1.8-0.6-3.7-0.7-5.6c0-0.8-0.1-1.5-0.1-2.3c0-1.8,0.1-3.6,0.3-5.4c0.1-1,0.3-2,0.5-3v0
					c1-5.2,3-10.1,5.7-14.5c0.6-1,1.3-2,2-2.9c2.7-3.6,5.9-6.8,9.5-9.5c7.2-5.2,16-8.3,25.6-8.3c4.3,0,8.6,0.6,12.5,1.8
					c4.3,1.3,8.2,3.2,11.8,5.6c0.8,0.5,1.5,1,2.2,1.6c2.7,2,5.1,4.4,7.2,7c0.5,0.6,1,1.3,1.5,1.9c1.6,2.2,3,4.6,4.2,7.1
					c0.6,1.2,1.1,2.4,1.5,3.7c0.6,1.7,1.1,3.3,1.5,5.1v0c0.4,1.5,0.6,3.1,0.8,4.7c0.2,1.4,0.3,2.9,0.3,4.4
					C683.8,323,683.8,323.2,683.8,323.4z"/>
				<linearGradient id="SVGID_61_" gradientUnits="userSpaceOnUse" x1="597.4507" y1="301.1621" x2="673.9648" y2="301.1621">
					<stop  offset="0" style="stop-color:#FFFFFF;stop-opacity:0.7754"/>
					<stop  offset="1" style="stop-color:#FFFFFF;stop-opacity:0"/>
				</linearGradient>
				<path class="st69" d="M674,295.9c-7,2.9-15.9,5.4-25.1,4.6c-16.2-1.4-38,2.8-51.4,14.6c1-5.2,3-10.1,5.7-14.5c0.6-1,1.3-2,2-2.9
					c8.9-1.5,19.6-3,29-3.4c12.1-0.6,22.4-3.5,30.4-6.9c0.8,0.5,1.5,1,2.2,1.6C669.5,291,671.9,293.3,674,295.9z"/>
				<linearGradient id="SVGID_62_" gradientUnits="userSpaceOnUse" x1="596.6965" y1="323.8754" x2="682.6819" y2="323.8754">
					<stop  offset="0" style="stop-color:#FFFFFF;stop-opacity:0.7754"/>
					<stop  offset="1" style="stop-color:#FFFFFF;stop-opacity:0"/>
				</linearGradient>
				<path class="st70" d="M682.7,313.7L682.7,313.7c-3.1,1.8-7,3.7-11.8,5.6c-7.7,3-21.7,5.7-32,8.6c-4.3,1.3-14.5-2.1-18.4-1
					c-7.5,2.2-14.4,9.1-19.3,16c-1.8-3.6-3.1-7.5-3.9-11.5c-0.3-1.8-0.6-3.7-0.7-5.6c5.6-7.1,15.6-14.8,32.3-12.8
					c17.9,2.2,37.7-3.3,50.6-8c0.6,1.2,1.1,2.4,1.5,3.7C681.8,310.2,682.3,311.9,682.7,313.7z"/>
				<linearGradient id="SVGID_63_" gradientUnits="userSpaceOnUse" x1="605.1785" y1="340.9618" x2="683.769" y2="340.9618">
					<stop  offset="0" style="stop-color:#FFFFFF;stop-opacity:0.7754"/>
					<stop  offset="1" style="stop-color:#FFFFFF;stop-opacity:0"/>
				</linearGradient>
				<path class="st71" d="M683.8,322.8l-0.4,6.8v0c-3.2,1.8-7.2,3.9-11.7,6.2c-9.9,4.9-19.6,19.8-33.5,18.7
					c-8.1-0.6-16.5,1.9-22.9,4.7c-0.7-0.5-1.3-1-2-1.4c-2.8-2.2-5.3-4.7-7.5-7.5c-0.2-0.3-0.4-0.6-0.7-0.9
					c11.2-6.9,28.3-15.6,41.5-16.2c11.4-0.5,21.3-3.4,28.8-6.5C678.7,325.4,681.5,324,683.8,322.8z"/>
				<linearGradient id="SVGID_64_" gradientUnits="userSpaceOnUse" x1="614.6202" y1="284.1046" x2="652.7206" y2="284.1046">
					<stop  offset="0" style="stop-color:#FFFFFF;stop-opacity:0.7754"/>
					<stop  offset="1" style="stop-color:#FFFFFF;stop-opacity:0"/>
				</linearGradient>
				<path class="st72" d="M652.7,281.7c-12.2,6.8-28.3,7.1-38.1,6.5c7.2-5.2,16-8.3,25.6-8.3C644.6,279.8,648.8,280.5,652.7,281.7z"
					/>
				<linearGradient id="SVGID_65_" gradientUnits="userSpaceOnUse" x1="633.0339" y1="358.7191" x2="674.386" y2="358.7191">
					<stop  offset="0" style="stop-color:#FFFFFF;stop-opacity:0.7754"/>
					<stop  offset="1" style="stop-color:#FFFFFF;stop-opacity:0"/>
				</linearGradient>
				<path class="st73" d="M674.4,350.4c-8,10.1-20.3,16.6-34.2,16.6c-2.4,0-4.8-0.2-7.2-0.6c3.4-2.4,11.5-7.5,21.1-8.8
					C661.1,356.7,668.7,353.4,674.4,350.4z"/>
			</g>
		</g>
		<g>
			<radialGradient id="SVGID_66_" cx="733.4973" cy="305.3575" r="32.8677" gradientUnits="userSpaceOnUse">
				<stop  offset="0" style="stop-color:#63FFFF"/>
				<stop  offset="1" style="stop-color:#63FFFF;stop-opacity:0"/>
			</radialGradient>
			<circle class="st74" cx="733.5" cy="305.4" r="32.9"/>
			<g>
				<linearGradient id="SVGID_67_" gradientUnits="userSpaceOnUse" x1="741.9783" y1="323.4609" x2="725.0236" y2="282.5216">
					<stop  offset="0" style="stop-color:#3EE3DE"/>
					<stop  offset="1" style="stop-color:#0592F7"/>
				</linearGradient>
				<path class="st75" d="M754.8,315.9c-6.4,11.5-20.9,15.6-32.4,9.1c-3.3-1.8-6-4.3-8-7.3c-0.4-0.5-0.7-1.1-1-1.6
					c-2.5-4.3-3.6-9.3-3.1-14.3c0.2-1.7,0.5-3.5,1.1-5.2c0.5-1.4,1.1-2.7,1.8-4c6.4-11.5,20.9-15.6,32.4-9.1
					c7.1,4,11.3,11,12.1,18.5c0.3,3.3-0.1,6.7-1.2,10C756.1,313.3,755.5,314.6,754.8,315.9z"/>
				<path class="st19" d="M757.7,302c-2.3,0.6-5.2,1-8.8,0.8c-11.9-0.6-27.1-13.5-37.4-6.1c0.5-1.4,1.1-2.7,1.8-4
					c1.6-2.8,3.6-5.1,5.9-7c7.3-5.8,17.8-7,26.4-2.2c1,0.6,2,1.2,2.9,1.9C753.9,289.5,757.1,295.6,757.7,302z"/>
				<linearGradient id="SVGID_68_" gradientUnits="userSpaceOnUse" x1="735.3487" y1="327.8232" x2="735.4865" y2="313.901">
					<stop  offset="0" style="stop-color:#3EE3DE"/>
					<stop  offset="1" style="stop-color:#0592F7"/>
				</linearGradient>
				<path class="st76" d="M754.8,315.9c-6.4,11.5-20.9,15.6-32.4,9.1c-3.3-1.8-6-4.3-8-7.2c5.2-5.7,14.4-8,20.5-6
					c7.4,2.5,15.5,1.6,21.5,0.2C756.1,313.3,755.5,314.6,754.8,315.9z"/>
				<linearGradient id="SVGID_69_" gradientUnits="userSpaceOnUse" x1="735.3126" y1="292.8173" x2="732.5558" y2="279.0329">
					<stop  offset="0" style="stop-color:#3EE3DE"/>
					<stop  offset="1" style="stop-color:#0592F7"/>
				</linearGradient>
				<path class="st77" d="M739.5,290.2c-9.2-1-15-3.9-20.4-4.6c7.3-5.8,17.8-7,26.4-2.2c1,0.6,2,1.2,2.9,1.9
					C747.6,288.3,745.2,290.8,739.5,290.2z"/>
			</g>
		</g>
		<g>
			<radialGradient id="SVGID_70_" cx="92.6815" cy="237.8191" r="22.9304" gradientUnits="userSpaceOnUse">
				<stop  offset="0" style="stop-color:#FAC40F"/>
				<stop  offset="1" style="stop-color:#FAC40F;stop-opacity:0"/>
			</radialGradient>
			<circle class="st78" cx="92.7" cy="237.8" r="22.9"/>
			<g>
				<linearGradient id="SVGID_71_" gradientUnits="userSpaceOnUse" x1="96.3532" y1="246.3055" x2="82.7653" y2="221.1022">
					<stop  offset="0" style="stop-color:#FAC40F"/>
					<stop  offset="1" style="stop-color:#E72AE3"/>
				</linearGradient>
				<path class="st79" d="M109.7,237.6c0,1.9-0.3,3.8-0.9,5.6c-0.9,2.8-2.5,5.3-4.5,7.3c-3.3,3.2-7.7,5.2-12.7,5.2
					c-7.4,0-13.8-4.5-16.6-10.9c-0.9-2-1.4-4.2-1.4-6.5c0-0.2,0-0.4,0-0.6c0-2.7,0.6-5.3,1.7-7.7c1.3-2.7,3.1-5,5.5-6.7
					c3-2.3,6.8-3.6,10.8-3.6c6.6,0,12.4,3.6,15.5,8.9c1.1,1.9,1.9,4,2.3,6.2C109.6,235.7,109.7,236.6,109.7,237.6z"/>
				<linearGradient id="SVGID_72_" gradientUnits="userSpaceOnUse" x1="114.4092" y1="254.7276" x2="78.2479" y2="225.7987">
					<stop  offset="0" style="stop-color:#FFFFFF;stop-opacity:0.7754"/>
					<stop  offset="1" style="stop-color:#FFFFFF;stop-opacity:0"/>
				</linearGradient>
				<path class="st80" d="M109.7,237.6c0,1.9-0.3,3.8-0.9,5.6c-3.9,1.6-10.4,2.7-19.7-1.6c-7.9-3.6-12.4-4.3-15.5-3.4
					c0-0.2,0-0.4,0-0.6c0-2.7,0.6-5.3,1.7-7.7c3-0.8,7.5-0.6,14.2,2.7c8.9,4.4,16,3.4,19.9,2.1C109.6,235.7,109.7,236.6,109.7,237.6
					z"/>
				<linearGradient id="SVGID_73_" gradientUnits="userSpaceOnUse" x1="114.5546" y1="241.5229" x2="78.3933" y2="212.5939">
					<stop  offset="0" style="stop-color:#FFFFFF;stop-opacity:0.7754"/>
					<stop  offset="1" style="stop-color:#FFFFFF;stop-opacity:0"/>
				</linearGradient>
				<path class="st81" d="M107.2,228.5c-4,1.2-10,1.6-18.1-2.1c-3.3-1.5-6-2.5-8.3-3.1c3-2.3,6.8-3.6,10.8-3.6
					C98.3,219.6,104.1,223.2,107.2,228.5z"/>
				<linearGradient id="SVGID_74_" gradientUnits="userSpaceOnUse" x1="101.2319" y1="258.1764" x2="65.0705" y2="229.2473">
					<stop  offset="0" style="stop-color:#FFFFFF;stop-opacity:0.7754"/>
					<stop  offset="1" style="stop-color:#FFFFFF;stop-opacity:0"/>
				</linearGradient>
				<path class="st82" d="M104.3,250.5c-3.3,3.2-7.7,5.2-12.7,5.2c-7.4,0-13.8-4.5-16.6-10.9c3-0.8,7.6-0.8,14.4,2.6
					C95.4,250.2,100.5,250.8,104.3,250.5z"/>
			</g>
		</g>
		<g>
			<radialGradient id="SVGID_75_" cx="698.334" cy="251.5187" r="17.9157" gradientUnits="userSpaceOnUse">
				<stop  offset="0" style="stop-color:#FAC40F"/>
				<stop  offset="1" style="stop-color:#FAC40F;stop-opacity:0"/>
			</radialGradient>
			<circle class="st83" cx="698.3" cy="251.5" r="17.9"/>
			<g>
				<linearGradient id="SVGID_76_" gradientUnits="userSpaceOnUse" x1="684.9089" y1="251.6203" x2="712.5527" y2="251.6203">
					<stop  offset="0" style="stop-color:#FAC40F"/>
					<stop  offset="1" style="stop-color:#E72AE3"/>
				</linearGradient>
				<path class="st84" d="M712.6,251.6c0,7.6-6.2,13.8-13.8,13.8c-7.6,0-13.8-6.2-13.8-13.8c0-4.2,1.8-7.9,4.8-10.4c0,0,0,0,0.1-0.1
					c1.2-1,2.6-1.9,4.2-2.5c0,0,0,0,0,0c1.5-0.6,3.1-0.9,4.8-0.9C706.4,237.8,712.6,244,712.6,251.6z"/>
				<g class="st55">
					<linearGradient id="SVGID_77_" gradientUnits="userSpaceOnUse" x1="702.8706" y1="262.6395" x2="697.65" y2="257.4189">
						<stop  offset="0" style="stop-color:#E72AE3"/>
						<stop  offset="1" style="stop-color:#FAC40F"/>
					</linearGradient>
					<path class="st85" d="M703.3,259.8c0,1.8-1.4,3.2-3.2,3.2s-3.2-1.4-3.2-3.2c0-1.8,1.4-3.2,3.2-3.2S703.3,258,703.3,259.8z"/>
					<path class="st37" d="M703.1,258.7c0.1,0.4,0.2,0.7,0.2,1.1c0,1.8-1.4,3.2-3.2,3.2c-1.1,0-2.1-0.6-2.7-1.5
						c0.5,1.2,1.6,2.1,3,2.1c1.8,0,3.2-1.4,3.2-3.2C703.6,259.8,703.4,259.2,703.1,258.7z"/>
					<path class="st86" d="M697.2,260.4c0-1.8,1.4-3.2,3.2-3.2c1,0,1.9,0.5,2.5,1.2c-0.5-1-1.6-1.7-2.9-1.7c-1.8,0-3.2,1.4-3.2,3.2
						c0,0.8,0.3,1.5,0.7,2.1C697.3,261.4,697.2,260.9,697.2,260.4z"/>
				</g>
				<g class="st55">
					<linearGradient id="SVGID_78_" gradientUnits="userSpaceOnUse" x1="692.489" y1="250.9516" x2="689.6465" y2="248.1091">
						<stop  offset="0" style="stop-color:#E72AE3"/>
						<stop  offset="1" style="stop-color:#FAC40F"/>
					</linearGradient>
					<path class="st87" d="M692.7,249.4c0,1-0.8,1.8-1.8,1.8c-1,0-1.8-0.8-1.8-1.8c0-1,0.8-1.8,1.8-1.8
						C691.9,247.6,692.7,248.4,692.7,249.4z"/>
					<path class="st37" d="M692.6,248.8c0.1,0.2,0.1,0.4,0.1,0.6c0,1-0.8,1.8-1.8,1.8c-0.6,0-1.2-0.3-1.5-0.8
						c0.3,0.7,0.9,1.1,1.6,1.1c1,0,1.8-0.8,1.8-1.8C692.9,249.4,692.8,249.1,692.6,248.8z"/>
					<path class="st86" d="M689.4,249.7c0-1,0.8-1.8,1.8-1.8c0.5,0,1,0.2,1.4,0.6c-0.3-0.6-0.9-0.9-1.6-0.9c-1,0-1.8,0.8-1.8,1.8
						c0,0.4,0.2,0.8,0.4,1.1C689.5,250.3,689.4,250,689.4,249.7z"/>
				</g>
				<g class="st55">
					<linearGradient id="SVGID_79_" gradientUnits="userSpaceOnUse" x1="709.6691" y1="250.5493" x2="705.774" y2="246.6541">
						<stop  offset="0" style="stop-color:#E72AE3"/>
						<stop  offset="1" style="stop-color:#FAC40F"/>
					</linearGradient>
					<path class="st88" d="M710,248.4c0,1.3-1.1,2.4-2.4,2.4s-2.4-1.1-2.4-2.4s1.1-2.4,2.4-2.4S710,247.1,710,248.4z"/>
					<path class="st37" d="M709.8,247.6c0.1,0.3,0.2,0.5,0.2,0.8c0,1.3-1.1,2.4-2.4,2.4c-0.9,0-1.6-0.4-2-1.1
						c0.3,0.9,1.2,1.6,2.3,1.6c1.3,0,2.4-1.1,2.4-2.4C710.2,248.4,710.1,248,709.8,247.6z"/>
					<path class="st86" d="M705.4,248.8c0-1.3,1.1-2.4,2.4-2.4c0.7,0,1.4,0.3,1.9,0.9c-0.4-0.8-1.2-1.3-2.1-1.3
						c-1.3,0-2.4,1.1-2.4,2.4c0,0.6,0.2,1.1,0.6,1.5C705.5,249.6,705.4,249.3,705.4,248.8z"/>
				</g>
				<g class="st55">
					<linearGradient id="SVGID_80_" gradientUnits="userSpaceOnUse" x1="700.0453" y1="251.1165" x2="698.2554" y2="249.3266">
						<stop  offset="0" style="stop-color:#E72AE3"/>
						<stop  offset="1" style="stop-color:#FAC40F"/>
					</linearGradient>
					<path class="st89" d="M700.2,250.1c0,0.6-0.5,1.1-1.1,1.1c-0.6,0-1.1-0.5-1.1-1.1s0.5-1.1,1.1-1.1
						C699.7,249,700.2,249.5,700.2,250.1z"/>
					<path class="st37" d="M700.1,249.8c0,0.1,0.1,0.3,0.1,0.4c0,0.6-0.5,1.1-1.1,1.1c-0.4,0-0.7-0.2-0.9-0.5c0.2,0.4,0.6,0.7,1,0.7
						c0.6,0,1.1-0.5,1.1-1.1C700.3,250.1,700.2,249.9,700.1,249.8z"/>
					<path class="st86" d="M698.1,250.3c0-0.6,0.5-1.1,1.1-1.1c0.3,0,0.7,0.2,0.9,0.4c-0.2-0.4-0.6-0.6-1-0.6
						c-0.6,0-1.1,0.5-1.1,1.1c0,0.3,0.1,0.5,0.3,0.7C698.1,250.7,698.1,250.5,698.1,250.3z"/>
				</g>
				<g class="st55">
					<linearGradient id="SVGID_81_" gradientUnits="userSpaceOnUse" x1="689.6988" y1="241.0681" x2="689.6868" y2="241.056">
						<stop  offset="0" style="stop-color:#E72AE3"/>
						<stop  offset="1" style="stop-color:#FAC40F"/>
					</linearGradient>
					<polygon class="st90" points="689.7,241.1 689.7,241.1 689.7,241.1 					"/>
					<linearGradient id="SVGID_82_" gradientUnits="userSpaceOnUse" x1="693.4765" y1="241.5428" x2="691.3615" y2="239.4278">
						<stop  offset="0" style="stop-color:#E72AE3"/>
						<stop  offset="1" style="stop-color:#FAC40F"/>
					</linearGradient>
					<path class="st91" d="M694.1,239.5c0,1.4-1.1,2.5-2.5,2.5c-0.1,0-0.2,0-0.3,0c-0.1,0-0.2,0-0.2,0c-0.1,0-0.1,0-0.2,0
						c0,0-0.1,0-0.1,0c-0.1,0-0.1,0-0.2-0.1c0,0-0.1,0-0.1-0.1c-0.1,0-0.2-0.1-0.3-0.2c-0.1,0-0.1-0.1-0.2-0.1c0,0,0,0,0,0
						c-0.1,0-0.1-0.1-0.2-0.2c0,0-0.1-0.1-0.1-0.1c1.2-1,2.6-1.9,4.2-2.5c0,0.1,0,0.1,0.1,0.2c0,0.1,0,0.1,0,0.2c0,0.1,0,0.1,0,0.2
						C694.1,239.3,694.1,239.4,694.1,239.5z"/>
					<path class="st37" d="M693.9,238.7c0.2,0.4,0.4,0.8,0.4,1.3c0,1.4-1.1,2.5-2.5,2.5c-0.9,0-1.7-0.5-2.1-1.3l0.1-0.1
						c0,0,0.1,0.1,0.1,0.1c0.1,0.1,0.1,0.1,0.2,0.2c0,0,0,0,0,0c0.1,0,0.1,0.1,0.2,0.1c0.1,0.1,0.2,0.1,0.3,0.2c0,0,0.1,0,0.1,0.1
						c0.1,0,0.1,0.1,0.2,0.1c0,0,0.1,0,0.1,0c0.1,0,0.1,0,0.2,0c0.1,0,0.1,0,0.2,0c0.1,0,0.2,0,0.3,0c1.4,0,2.5-1.1,2.5-2.5
						c0-0.1,0-0.2,0-0.3c0-0.1,0-0.1,0-0.2c0-0.1,0-0.1,0-0.2C694,238.8,693.9,238.7,693.9,238.7L693.9,238.7z"/>
				</g>
				<linearGradient id="SVGID_83_" gradientUnits="userSpaceOnUse" x1="699.329" y1="242.0237" x2="704.421" y2="242.0237">
					<stop  offset="0" style="stop-color:#FAC40F"/>
					<stop  offset="1" style="stop-color:#E72AE3"/>
				</linearGradient>
				<ellipse class="st92" cx="701.9" cy="242" rx="2.5" ry="2.6"/>
				<linearGradient id="SVGID_84_" gradientUnits="userSpaceOnUse" x1="709.4725" y1="256.7656" x2="705.6418" y2="253.0742">
					<stop  offset="0" style="stop-color:#E72AE3"/>
					<stop  offset="1" style="stop-color:#FAC40F"/>
				</linearGradient>
				<path class="st93" d="M710.6,255.5c0,1.2-1.1,2.2-2.4,2.2s-2.4-1-2.4-2.2c0-1.2,1.1-2.2,2.4-2.2
					C709.5,253.3,710.6,254.3,710.6,255.5z"/>
				<linearGradient id="SVGID_85_" gradientUnits="userSpaceOnUse" x1="693.4789" y1="260.5535" x2="689.4819" y2="256.3827">
					<stop  offset="0" style="stop-color:#E72AE3"/>
					<stop  offset="1" style="stop-color:#FAC40F"/>
				</linearGradient>
				<path class="st94" d="M693.2,257.7c0,1.3-1.1,2.3-2.5,2.3c-1.4,0-2.5-1-2.5-2.3c0-1.3,1.1-2.3,2.5-2.3
					C692.1,255.4,693.2,256.5,693.2,257.7z"/>
			</g>
		</g>
		<g>
			<radialGradient id="SVGID_86_" cx="31.2338" cy="299.4023" r="42.1557" gradientUnits="userSpaceOnUse">
				<stop  offset="0" style="stop-color:#FDEFD2"/>
				<stop  offset="1" style="stop-color:#FDEFD2;stop-opacity:0"/>
			</radialGradient>
			<circle class="st95" cx="31.2" cy="299.4" r="42.2"/>
			<g>
				<linearGradient id="SVGID_87_" gradientUnits="userSpaceOnUse" x1="66.6118" y1="327.7637" x2="10.4823" y2="283.5672">
					<stop  offset="0.1366" style="stop-color:#06C2CC"/>
					<stop  offset="0.2314" style="stop-color:#19C4C9"/>
					<stop  offset="0.4235" style="stop-color:#4ACAC2"/>
					<stop  offset="0.6957" style="stop-color:#98D4B6"/>
					<stop  offset="1" style="stop-color:#F8DFA7"/>
				</linearGradient>
				<path class="st96" d="M65,299c0,1.7-0.1,3.3-0.4,5v0c-0.2,1.6-0.6,3.2-1,4.7c-0.7,2.6-1.8,5-3,7.3c-0.9,1.6-2,3.2-3.1,4.7
					c-6.4,8.1-16.3,13.3-27.4,13.3c-2,0-3.9-0.2-5.7-0.5c-1.4-0.2-2.8-0.5-4.1-0.9c-3.7-1.1-7.1-2.7-10.1-4.9
					c-0.5-0.4-1.1-0.8-1.6-1.2c-2.2-1.8-4.2-3.8-6-6c-0.2-0.2-0.4-0.5-0.5-0.7c-1.2-1.6-2.3-3.4-3.2-5.2c-1.4-2.9-2.5-6-3.1-9.2
					c-0.3-1.5-0.4-3-0.5-4.5c0-0.6,0-1.2,0-1.8c0-1.5,0.1-2.9,0.3-4.3c0.1-0.8,0.2-1.6,0.4-2.4v0c0.8-4.2,2.4-8.1,4.6-11.6
					c0.5-0.8,1-1.6,1.6-2.3c2.1-2.9,4.7-5.5,7.6-7.6c5.8-4.2,12.8-6.7,20.5-6.7c3.5,0,6.9,0.5,10,1.5c3.4,1,6.6,2.5,9.5,4.5
					c0.6,0.4,1.2,0.8,1.8,1.3c2.1,1.6,4.1,3.5,5.7,5.6c0.4,0.5,0.8,1,1.2,1.5c1.3,1.8,2.4,3.7,3.4,5.7c0.5,1,0.9,1.9,1.2,3
					c0.5,1.3,0.9,2.7,1.2,4.1v0c0.3,1.2,0.5,2.5,0.6,3.8c0.1,1.2,0.2,2.3,0.2,3.5C65,298.6,65,298.8,65,299z"/>
				<linearGradient id="SVGID_88_" gradientUnits="userSpaceOnUse" x1="-4.2128" y1="281.1416" x2="57.0998" y2="281.1416">
					<stop  offset="0" style="stop-color:#FFFFFF;stop-opacity:0.7754"/>
					<stop  offset="1" style="stop-color:#FFFFFF;stop-opacity:0"/>
				</linearGradient>
				<path class="st97" d="M57.1,276.9c-5.6,2.4-12.7,4.3-20.1,3.6c-12.9-1.2-30.4,2.2-41.2,11.7c0.8-4.2,2.4-8.1,4.6-11.6
					c0.5-0.8,1-1.6,1.6-2.3c7.1-1.2,15.7-2.4,23.3-2.7c9.7-0.5,17.9-2.8,24.4-5.5c0.6,0.4,1.2,0.8,1.8,1.3
					C53.5,273,55.4,274.8,57.1,276.9z"/>
				<linearGradient id="SVGID_89_" gradientUnits="userSpaceOnUse" x1="-4.8171" y1="299.3423" x2="64.0849" y2="299.3423">
					<stop  offset="0" style="stop-color:#FFFFFF;stop-opacity:0.7754"/>
					<stop  offset="1" style="stop-color:#FFFFFF;stop-opacity:0"/>
				</linearGradient>
				<path class="st98" d="M64.1,291.2L64.1,291.2c-2.5,1.5-5.6,3-9.4,4.5c-6.2,2.4-17.4,4.5-25.6,6.9c-3.5,1-11.6-1.7-14.7-0.8
					c-6,1.8-11.5,7.3-15.5,12.8c-1.4-2.9-2.5-6-3.1-9.2c-0.3-1.5-0.4-3-0.5-4.5c4.5-5.7,12.5-11.9,25.9-10.3
					c14.4,1.8,30.2-2.7,40.6-6.4c0.5,1,0.9,1.9,1.2,3C63.4,288.4,63.8,289.8,64.1,291.2z"/>
				<linearGradient id="SVGID_90_" gradientUnits="userSpaceOnUse" x1="1.9797" y1="313.034" x2="64.9561" y2="313.034">
					<stop  offset="0" style="stop-color:#FFFFFF;stop-opacity:0.7754"/>
					<stop  offset="1" style="stop-color:#FFFFFF;stop-opacity:0"/>
				</linearGradient>
				<path class="st99" d="M65,298.5l-0.3,5.5v0c-2.6,1.4-5.8,3.1-9.4,4.9c-7.9,4-15.7,15.8-26.8,15c-6.5-0.5-13.2,1.5-18.4,3.7
					c-0.5-0.4-1.1-0.8-1.6-1.2c-2.2-1.8-4.2-3.8-6-6c-0.2-0.2-0.4-0.5-0.5-0.7c8.9-5.5,22.7-12.5,33.2-13c9.2-0.4,17.1-2.7,23.1-5.2
					C60.9,300.5,63.1,299.4,65,298.5z"/>
				<linearGradient id="SVGID_91_" gradientUnits="userSpaceOnUse" x1="9.5456" y1="267.473" x2="40.0764" y2="267.473">
					<stop  offset="0" style="stop-color:#FFFFFF;stop-opacity:0.7754"/>
					<stop  offset="1" style="stop-color:#FFFFFF;stop-opacity:0"/>
				</linearGradient>
				<path class="st100" d="M40.1,265.5c-9.8,5.4-22.7,5.7-30.5,5.2c5.8-4.2,12.8-6.7,20.5-6.7C33.5,264.1,36.9,264.6,40.1,265.5z"/>
				<linearGradient id="SVGID_92_" gradientUnits="userSpaceOnUse" x1="24.3009" y1="327.2633" x2="57.4373" y2="327.2633">
					<stop  offset="0" style="stop-color:#FFFFFF;stop-opacity:0.7754"/>
					<stop  offset="1" style="stop-color:#FFFFFF;stop-opacity:0"/>
				</linearGradient>
				<path class="st101" d="M57.4,320.6c-6.4,8.1-16.3,13.3-27.4,13.3c-2,0-3.9-0.2-5.7-0.5c2.7-2,9.2-6,16.9-7
					C46.8,325.7,52.9,323,57.4,320.6z"/>
			</g>
		</g>
		<g>
			<radialGradient id="SVGID_93_" cx="149.2271" cy="321.3053" r="47.4166" gradientUnits="userSpaceOnUse">
				<stop  offset="0" style="stop-color:#63FFFF"/>
				<stop  offset="1" style="stop-color:#63FFFF;stop-opacity:0"/>
			</radialGradient>
			<circle class="st102" cx="149.2" cy="321.3" r="47.4"/>
			<g>
				<linearGradient id="SVGID_94_" gradientUnits="userSpaceOnUse" x1="162.8432" y1="346.1568" x2="136.0935" y2="299.2274">
					<stop  offset="0" style="stop-color:#3EE3DE"/>
					<stop  offset="1" style="stop-color:#0592F7"/>
				</linearGradient>
				<circle class="st103" cx="149.1" cy="322" r="33.2"/>
				<g class="st55">
					<linearGradient id="SVGID_95_" gradientUnits="userSpaceOnUse" x1="146.6797" y1="345.4104" x2="136.4587" y2="335.1895">
						<stop  offset="0" style="stop-color:#183BBB"/>
						<stop  offset="1" style="stop-color:#3EE3DE;stop-opacity:0.7754"/>
					</linearGradient>
					<path class="st104" d="M147.5,339.8c0,3.5-2.8,6.3-6.3,6.3c-3.5,0-6.3-2.8-6.3-6.3c0-3.5,2.8-6.3,6.3-6.3
						C144.6,333.5,147.5,336.3,147.5,339.8z"/>
					<path class="st37" d="M147,337.6c0.3,0.7,0.4,1.4,0.4,2.2c0,3.5-2.8,6.3-6.3,6.3c-2.2,0-4.2-1.2-5.3-2.9
						c0.9,2.4,3.2,4.1,5.9,4.1c3.5,0,6.3-2.8,6.3-6.3C148.1,339.8,147.7,338.6,147,337.6z"/>
					<path class="st57" d="M135.5,340.9c0-3.5,2.8-6.3,6.3-6.3c2,0,3.7,0.9,4.9,2.3c-1.1-2-3.2-3.4-5.6-3.4c-3.5,0-6.3,2.8-6.3,6.3
						c0,1.5,0.5,2.9,1.5,4C135.8,343,135.5,342,135.5,340.9z"/>
				</g>
				<g class="st55">
					<linearGradient id="SVGID_96_" gradientUnits="userSpaceOnUse" x1="142.3331" y1="302.0625" x2="137.1367" y2="296.8661">
						<stop  offset="0" style="stop-color:#183BBB"/>
						<stop  offset="1" style="stop-color:#3EE3DE;stop-opacity:0.7754"/>
					</linearGradient>
					<path class="st105" d="M142.7,299.2c0,1.8-1.4,3.2-3.2,3.2c-1.8,0-3.2-1.4-3.2-3.2c0-1.8,1.4-3.2,3.2-3.2
						C141.3,296,142.7,297.5,142.7,299.2z"/>
					<path class="st37" d="M142.5,298.1c0.1,0.4,0.2,0.7,0.2,1.1c0,1.8-1.4,3.2-3.2,3.2c-1.1,0-2.1-0.6-2.7-1.5
						c0.5,1.2,1.6,2.1,3,2.1c1.8,0,3.2-1.4,3.2-3.2C143,299.2,142.8,298.6,142.5,298.1z"/>
					<path class="st57" d="M136.7,299.8c0-1.8,1.4-3.2,3.2-3.2c1,0,1.9,0.5,2.5,1.2c-0.5-1-1.6-1.7-2.8-1.7c-1.8,0-3.2,1.4-3.2,3.2
						c0,0.8,0.3,1.5,0.7,2.1C136.8,300.8,136.7,300.3,136.7,299.8z"/>
				</g>
				<g class="st55">
					<linearGradient id="SVGID_97_" gradientUnits="userSpaceOnUse" x1="161.4983" y1="315.4846" x2="152.6336" y2="306.6199">
						<stop  offset="0" style="stop-color:#183BBB"/>
						<stop  offset="1" style="stop-color:#3EE3DE;stop-opacity:0.7754"/>
					</linearGradient>
					<path class="st106" d="M162.2,310.7c0,3-2.5,5.5-5.5,5.5c-3,0-5.5-2.5-5.5-5.5s2.5-5.5,5.5-5.5
						C159.7,305.2,162.2,307.6,162.2,310.7z"/>
					<path class="st37" d="M161.8,308.7c0.2,0.6,0.4,1.2,0.4,1.9c0,3-2.5,5.5-5.5,5.5c-1.9,0-3.6-1-4.6-2.5c0.8,2.1,2.8,3.6,5.1,3.6
						c3,0,5.5-2.5,5.5-5.5C162.7,310.6,162.4,309.6,161.8,308.7z"/>
					<path class="st57" d="M151.8,311.6c0-3,2.5-5.5,5.5-5.5c1.7,0,3.2,0.8,4.2,2c-0.9-1.7-2.7-2.9-4.9-2.9c-3,0-5.5,2.5-5.5,5.5
						c0,1.3,0.5,2.6,1.3,3.5C152,313.4,151.8,312.5,151.8,311.6z"/>
				</g>
				<g class="st55">
					<linearGradient id="SVGID_98_" gradientUnits="userSpaceOnUse" x1="174.7263" y1="328.5865" x2="167.0858" y2="320.946">
						<stop  offset="0" style="stop-color:#183BBB"/>
						<stop  offset="1" style="stop-color:#3EE3DE;stop-opacity:0.7754"/>
					</linearGradient>
					<path class="st107" d="M175.3,324.4c0,2.6-2.1,4.7-4.7,4.7s-4.7-2.1-4.7-4.7s2.1-4.7,4.7-4.7S175.3,321.8,175.3,324.4z"/>
					<path class="st37" d="M175,322.8c0.2,0.5,0.3,1.1,0.3,1.7c0,2.6-2.1,4.7-4.7,4.7c-1.7,0-3.1-0.9-4-2.2c0.7,1.8,2.4,3.1,4.4,3.1
						c2.6,0,4.7-2.1,4.7-4.7C175.8,324.4,175.5,323.5,175,322.8z"/>
					<path class="st57" d="M166.4,325.2c0-2.6,2.1-4.7,4.7-4.7c1.5,0,2.8,0.7,3.6,1.7c-0.8-1.5-2.4-2.5-4.2-2.5
						c-2.6,0-4.7,2.1-4.7,4.7c0,1.1,0.4,2.2,1.1,3C166.6,326.8,166.4,326,166.4,325.2z"/>
				</g>
				<g class="st55">
					<linearGradient id="SVGID_99_" gradientUnits="userSpaceOnUse" x1="164.3501" y1="344.485" x2="160.6363" y2="340.7711">
						<stop  offset="0" style="stop-color:#183BBB"/>
						<stop  offset="1" style="stop-color:#3EE3DE;stop-opacity:0.7754"/>
					</linearGradient>
					<path class="st108" d="M164.6,342.5c0,1.3-1,2.3-2.3,2.3s-2.3-1-2.3-2.3c0-1.3,1-2.3,2.3-2.3S164.6,341.2,164.6,342.5z"/>
					<path class="st37" d="M164.5,341.7c0.1,0.3,0.1,0.5,0.1,0.8c0,1.3-1,2.3-2.3,2.3c-0.8,0-1.5-0.4-1.9-1.1
						c0.3,0.9,1.2,1.5,2.2,1.5c1.3,0,2.3-1,2.3-2.3C164.8,342.4,164.7,342,164.5,341.7z"/>
					<path class="st57" d="M160.3,342.9c0-1.3,1-2.3,2.3-2.3c0.7,0,1.3,0.3,1.8,0.8c-0.4-0.7-1.2-1.2-2-1.2c-1.3,0-2.3,1-2.3,2.3
						c0,0.6,0.2,1.1,0.5,1.5C160.4,343.6,160.3,343.2,160.3,342.9z"/>
				</g>
				<g class="st55">
					<linearGradient id="SVGID_100_" gradientUnits="userSpaceOnUse" x1="131.9758" y1="324.0353" x2="123.2946" y2="315.354">
						<stop  offset="0" style="stop-color:#183BBB"/>
						<stop  offset="1" style="stop-color:#3EE3DE;stop-opacity:0.7754"/>
					</linearGradient>
					<path class="st109" d="M132.6,319.3c0,3-2.4,5.4-5.4,5.4c-3,0-5.4-2.4-5.4-5.4c0-3,2.4-5.4,5.4-5.4
						C130.2,313.9,132.6,316.3,132.6,319.3z"/>
					<path class="st37" d="M132.3,317.4c0.2,0.6,0.3,1.2,0.3,1.9c0,3-2.4,5.4-5.4,5.4c-1.9,0-3.6-1-4.5-2.5c0.8,2,2.7,3.5,5,3.5
						c3,0,5.4-2.4,5.4-5.4C133.1,319.3,132.8,318.3,132.3,317.4z"/>
					<path class="st57" d="M122.5,320.2c0-3,2.4-5.4,5.4-5.4c1.7,0,3.2,0.8,4.1,1.9c-0.9-1.7-2.7-2.9-4.8-2.9c-3,0-5.4,2.4-5.4,5.4
						c0,1.3,0.5,2.5,1.2,3.4C122.7,322,122.5,321.1,122.5,320.2z"/>
				</g>
			</g>
		</g>
	</g>
</g>
</svg>
