<svg xmlns="http://www.w3.org/2000/svg" xmlns:xlink="http://www.w3.org/1999/xlink" viewBox="0 0 210.56 218.34"><defs><style>.cls-1{isolation:isolate;}.cls-2{fill:url(#New_Gradient_Swatch_2);}.cls-3{fill:url(#Naranja_amarillo);}.cls-4{opacity:0.37;mix-blend-mode:multiply;fill:url(#Blanco_Negro);}.cls-5{fill:url(#New_Gradient_Swatch_2-2);}.cls-6{fill:url(#Naranja_amarillo-2);}.cls-7{fill:url(#linear-gradient);}.cls-8{fill:url(#linear-gradient-2);}.cls-9{fill:url(#Naranja_amarillo-3);}.cls-10{fill:url(#Naranja_amarillo-4);}</style><linearGradient id="New_Gradient_Swatch_2" x1="11" y1="103.36" x2="194.87" y2="103.36" gradientUnits="userSpaceOnUse"><stop offset="0" stop-color="#ff554c"/><stop offset="1" stop-color="#ffb68c"/></linearGradient><linearGradient id="Naranja_amarillo" x1="4.68" y1="104.79" x2="214.91" y2="104.79" gradientTransform="matrix(0.98, 0.18, -0.18, 0.98, 15.86, -14.38)" gradientUnits="userSpaceOnUse"><stop offset="0" stop-color="#ffed44"/><stop offset="0.04" stop-color="#fae237"/><stop offset="0.12" stop-color="#f3d224"/><stop offset="0.2" stop-color="#efc919"/><stop offset="0.28" stop-color="#eec615"/><stop offset="0.67" stop-color="#d98d3e"/><stop offset="0.89" stop-color="#cb6037"/><stop offset="1" stop-color="#c33431"/></linearGradient><linearGradient id="Blanco_Negro" x1="14.98" y1="93.3" x2="39.38" y2="164" gradientUnits="userSpaceOnUse"><stop offset="0" stop-color="#fff"/><stop offset="1" stop-color="#222221"/></linearGradient><linearGradient id="New_Gradient_Swatch_2-2" x1="4.86" y1="143.37" x2="144.57" y2="143.37" gradientTransform="matrix(0.98, 0.18, -0.18, 0.98, 15.86, -14.38)" xlink:href="#New_Gradient_Swatch_2"/><linearGradient id="Naranja_amarillo-2" x1="4.86" y1="138.8" x2="133.93" y2="138.8" xlink:href="#Naranja_amarillo"/><linearGradient id="linear-gradient" x1="159.16" y1="88.5" x2="93.27" y2="166.97" gradientTransform="matrix(1, -0.05, 0.05, 1, -5.41, 6.73)" gradientUnits="userSpaceOnUse"><stop offset="0" stop-color="#fff"/><stop offset="0.32" stop-color="#b3f2fd"/><stop offset="1" stop-color="#04d3f7"/></linearGradient><linearGradient id="linear-gradient-2" x1="168.85" y1="78.74" x2="106.13" y2="150.74" gradientTransform="matrix(1, -0.05, 0.05, 1, -5.41, 6.73)" gradientUnits="userSpaceOnUse"><stop offset="0" stop-color="#fff"/><stop offset="0.35" stop-color="#b3e6ff"/><stop offset="1" stop-color="#1fb4ff"/></linearGradient><linearGradient id="Naranja_amarillo-3" x1="141.21" y1="109.3" x2="115.49" y2="143.06" gradientTransform="matrix(1, 0, 0, 1, 0, 0)" xlink:href="#Naranja_amarillo"/><linearGradient id="Naranja_amarillo-4" x1="172.41" y1="72.74" x2="148.33" y2="98.49" gradientTransform="matrix(1, -0.05, 0.05, 1, -5.41, 6.73)" xlink:href="#Naranja_amarillo"/></defs><g class="cls-1"><g id="Layer_2" data-name="Layer 2"><g id="OBJECTS"><path class="cls-2" d="M128.08,185.06a6,6,0,1,1-4.84-7A6.05,6.05,0,0,1,128.08,185.06ZM103.47,16.74c-50.73-.27-90,39.67-92.34,89.07-.57,12.11.6,22.91,5.22,32.84,1.5,1.76,2.93,3,4,4.31,13,14.72,32,14,38.08,12.44-24.53-.75-37.28-19.19-36.59-45.24C23,68.23,57.46,34.32,99.48,34.7a76.67,76.67,0,0,1,50.21,19.22A6.76,6.76,0,0,1,147,65.5c-7.25,1.91-16.4,1.59-18.47,1-6.86-2.06-8.68,4.54-3.9,6.37A20.16,20.16,0,0,0,132.7,74a1.87,1.87,0,0,1,.67,3.65,89.27,89.27,0,0,1-17,3.27c-9,1-8,8.27.06,8,19.73-.56,36.46-19.93,43.26-24.36,6.33,8.66,11.72,18.59,14,29.45-1.2,1.41-11.85,16.43-11.25,26.19.37,6,7.28,6.34,6.81-2.07a20.94,20.94,0,0,1,1.49-9.82,2.59,2.59,0,0,1,4.93,1c0,.84,0,1.69,0,2.54-.14,26.1-13.64,44.52-33.81,56.67a8.78,8.78,0,0,0-4.14,9l0,.19a8.89,8.89,0,0,0,13.72,5.89c25.33-16.76,43.18-45.38,43.34-76.82C195.13,57.32,154.21,17,103.47,16.74Z"/><path class="cls-3" d="M125.67,213.4a8.53,8.53,0,0,1-10.42-9.17l0-.17a8.54,8.54,0,0,1,6.51-7.41c40-9.6,72.87-47.13,73.09-89.87.26-49.46-40.66-89.78-91.4-90S13.72,56.42,11.13,105.81c-1.88,35.84,19.15,46.08,28.47,53.41C28.91,156.87,8.37,157.56.38,108.63c0-1.41-.08-2.83-.07-4.25a105.12,105.12,0,0,1,210.24,1.1C210.29,156,172,202.37,125.67,213.4Zm-23.55-12.63a8.86,8.86,0,1,0,7.11,10.32A8.87,8.87,0,0,0,102.12,200.77Z"/><path class="cls-4" d="M58.47,155.4c-11.15-.34-19.86-4.35-26-11.06h0C10.42,133.69,1,110,1.13,91.8a104.37,104.37,0,0,0-.82,12.58c0,1.42,0,2.84.07,4.25,8,48.93,28.53,48.24,39.22,50.59C45,156.72,53,156.79,58.47,155.4Z"/><path class="cls-5" d="M114.21,121.54c-16.54,21.54-38.54,37.69-67.1,33.1-28-4.49-45.73-31.64-46-62.88-7.8,54.41,26.37,82.55,61.51,84.73,30.82,1.91,56.66-15.8,71.79-37.31C129.49,130.41,119,124.52,114.21,121.54Z"/><path class="cls-6" d="M125.46,129.14a98.75,98.75,0,0,0-11.25-7.6c-16.54,21.54-38.54,37.69-67.1,33.1-28-4.49-45.73-31.64-46-62.88a.88.88,0,0,1,0,.16c-4.51,49.73,26.5,72.82,57.37,74.47C86.59,167.89,111.53,151.89,125.46,129.14Z"/><path class="cls-7" d="M137.12,140.85A53.31,53.31,0,0,1,112,121.71a5.81,5.81,0,0,1,.21-7.12c7.9-9.6,30.35-36.65,37.28-42.79,8.45-7.5,26.17-16.29,30.09-13.32s.6,22.11-4.4,32.79c-3.18,6.79-24.06,37.11-31.34,47.44A5.8,5.8,0,0,1,137.12,140.85Z"/><path class="cls-8" d="M179.6,58.51h0l0,0a2.82,2.82,0,0,0-.29-.18h0c-4.44-2.39-21.54,6.17-29.8,13.5-6.93,6.14-29.38,33.19-37.28,42.79a5.81,5.81,0,0,0-.21,7.12,60.79,60.79,0,0,0,7.11,8h0c.62.58,1.24,1.13,1.87,1.67l.43.36c.55.46,1.1.91,1.66,1.34l.31.24c.66.51,1.33,1,2,1.46l.3.2c.57.39,1.15.76,1.73,1.12l.53.32c.6.37,1.21.72,1.82,1.06l.26.14c.7.38,1.4.73,2.11,1.08l.53.24c.55.26,1.11.51,1.67.75l.61.26c.72.3,1.45.58,2.19.85l.19.05h0a5.79,5.79,0,0,0,6.51-2.19c7.28-10.33,28.16-40.65,31.34-47.44C180.14,80.62,183.47,61.58,179.6,58.51ZM172,89.91c-3.64,6.56-26.37,35.53-34.5,45.2-3,3.58-7.8,1.53-13.8-3.31-3.79-3.06-9.38-8.89-6-13.32,7.47-9.93,28.41-38.16,35-44.66,6.83-6.72,20.27-14.71,26.67-15.28C181.63,63.64,177.29,80.4,172,89.91Z"/><path class="cls-9" d="M116.61,109.24l-14,13.25a1.33,1.33,0,0,1-2.28-1.24l3-10.09a5.1,5.1,0,0,1,1.34-2.21l10.84-10.39a3,3,0,0,1,3.85-.23l3.91,3Zm31.24,23.67-9,17a1.33,1.33,0,0,0,1.81,1.86l8.94-5.57a5.07,5.07,0,0,0,1.77-1.88l7.12-13.21a3,3,0,0,0-.82-3.76l-3.92-3Zm-26.73,5,6.65-6.28,10.86-14.28a1.67,1.67,0,0,0-.32-2.35l-1.79-1.36a1.69,1.69,0,0,0-2.36.33l-10.92,14.35-4.22,8A1.33,1.33,0,0,0,121.12,137.86Z"/><path class="cls-10" d="M160.74,73.11a8.75,8.75,0,1,0,9.17,8.32A8.74,8.74,0,0,0,160.74,73.11Zm.74,15.29a6.56,6.56,0,1,1,6.24-6.87A6.57,6.57,0,0,1,161.48,88.4Z"/></g></g></g></svg>