<?xml version="1.0" encoding="utf-8"?>
<!-- Generator: Adobe Illustrator 24.1.1, SVG Export Plug-In . SVG Version: 6.00 Build 0)  -->
<svg version="1.1" xmlns="http://www.w3.org/2000/svg" xmlns:xlink="http://www.w3.org/1999/xlink" x="0px" y="0px"
	 viewBox="0 0 888 767" style="enable-background:new 0 0 888 767;" xml:space="preserve">
<style type="text/css">
	.st0{opacity:0.1;fill:#F9A826;enable-background:new    ;}
	.st1{fill:#F9A826;}
	.st2{fill:#444053;}
	.st3{fill:#AFC0E0;}
	.st4{opacity:0.2;fill:#FFFFFF;enable-background:new    ;}
	.st5{opacity:0.1;enable-background:new    ;}
	.st6{fill:#E3E8F4;}
	.st7{fill:none;stroke:#535461;stroke-width:2;stroke-miterlimit:10;}
	.st8{opacity:0.25;enable-background:new    ;}
	.st9{fill:url(#SVGID_1_);}
	.st10{opacity:5.000000e-02;enable-background:new    ;}
	.st11{fill:url(#SVGID_2_);}
	.st12{opacity:0.5;fill:none;stroke:#BDBDBD;stroke-width:3;stroke-miterlimit:10;enable-background:new    ;}
	.st13{fill:url(#SVGID_3_);}
	.st14{fill:none;stroke:#BDBDBD;stroke-width:3;stroke-miterlimit:10;}
	.st15{fill:url(#SVGID_4_);}
	.st16{opacity:0.5;}
	.st17{fill:#47E6B1;}
	.st18{opacity:0.5;fill:#4D8AF0;enable-background:new    ;}
	.st19{opacity:0.5;fill:#F55F44;enable-background:new    ;}
	.st20{opacity:0.5;fill:#47E6B1;enable-background:new    ;}
	.st21{fill:url(#SVGID_5_);}
	.st22{fill:#4F617D;}
	.st23{fill:#FF656A;}
	.st24{fill:#4A5C81;}
	.st25{fill:#FF6469;}
	.st26{fill:#FFF6D5;}
	.st27{fill:#53678B;}
	.st28{fill:#658BC8;}
	.st29{fill:#4A77BE;}
	.st30{fill:#CDEFFF;}
	.st31{fill:#FFFFFF;}
	.st32{fill:#E6E6E6;}
	.st33{fill:#2F2E41;}
	.st34{fill:#A0616A;}
	.st35{fill:#575A89;}
	.st36{opacity:0.2;enable-background:new    ;}
	.st37{fill:#D0CDE1;}
	.st38{fill:none;}
</style>
<g id="Layer_8">
	<path class="st0" d="M-80.4,659.9c14.9-24.3,48.5-20.1,72.4-7.4s47.7,31.6,73.9,28c22.1-3.1,40.3-22.4,50.1-44.6s12.7-47.4,15.4-72
		c3.5-30.9,6.9-61.8,10.4-92.8c1.3-11.3,2.8-23.3,9.1-32.2c8.4-11.8,23.8-15.4,37-11.9c13.2,3.5,24.4,13.1,34,23.7
		c30.8,34,48.3,80,75.2,117.8c5.5,7.7,11.7,15.3,19.9,19c11.8,5.4,25.4,1.6,36.9-4.4c37.6-19.4,62.9-59,87.8-95.9
		c12.1-18,26.8-37.2,46.9-39.1c21.2-2.1,39.5,15.9,52,35c39.9,61.4,48.5,145.3,96.7,198.9c6,6.6,12.6,12.8,20.2,16.9
		c2.5,1.4,5.1,2.5,7.8,3.4c42.1,14.6,56.1,73,25,107.7c-0.7,0.7-1.4,1.5-2.1,2.2c-4.6,4.9-9.9,9.5-16.1,10.9
		c-5.8,1.3-11.8-0.2-17.6-1.9c-36.8-10.7-73.1-27.2-111.2-26.4c-37,0.7-72.1,17.8-108.7,24c-24.6,4.1-49.7,3.3-74.5,2.4
		c-82.9-3-165.7-6.4-248.6-10.4c-41.1-1.9-82.3-3.7-123.4-5.8c-31.7-1.6-51.9-5.3-55.5-42C-70.6,730.9-99.5,691.1-80.4,659.9z"/>
</g>
<g id="Layer_7">
	<path class="st1" d="M69.1,642.6c0,0,8.5-1.9,14,3.8c0,0-3.6,3.2-12-0.4L69.1,642.6z"/>
	<path class="st1" d="M68.2,642.5c0,0-5,7.2-1.8,14.6c0,0,4.3-2.1,4.2-11.3L68.2,642.5z"/>
	<path class="st1" d="M62.5,631.7c0,0,3-6.6,17.3,1.4c0,0-1.5,4.4-7.6,4.5S64.3,634.9,62.5,631.7z"/>
	<path class="st1" d="M61.6,631.3c0,0-7.2-0.3-6.8,16.2c0,0,4.6,0.6,7.4-4.8C65.1,637.2,63.6,634.4,61.6,631.3z"/>
	<path class="st1" d="M56.6,618.4c0,0,3.2-11.5,18.3-4.5c0,0-2.6,10.5-16.6,8.2L56.6,618.4z"/>
	<path class="st1" d="M51,602c0,0,6.8-11.8,20.9-2.2c0,0-4,10.9-19.5,6.2L51,602z"/>
	<path class="st1" d="M48.4,586.2c0,0,8.1-11,22.1-1.5c0,0-7.7,9.7-21.9,4.1L48.4,586.2z"/>
	<path class="st1" d="M46,570.8c0,0,8.2-11.5,21.6-2c0,0-9.4,10.3-21.4,4.6L46,570.8z"/>
	<path class="st1" d="M45.8,557c0,0,8.4-14.6,21-5.9c0,0-9.3,12.7-20.8,8.6L45.8,557z"/>
	<path class="st1" d="M47,540.8c0,0,9-14.5,21.3-4.7c0,0-11,12.8-21.1,7.2L47,540.8z"/>
	<path class="st1" d="M49.3,526.2c0,0,10.9-13.8,21.5-9.3c0,0-11.4,14.7-21.8,12.8L49.3,526.2z"/>
	<path class="st1" d="M52.5,512.4c0,0,12.5-16.9,20.8-12.1c0,0-9.2,13-21.6,15.1L52.5,512.4z"/>
	<path class="st1" d="M57.4,496.2c0,0,11-13.8,19.9-11.2c0,0-9.3,14.2-21.3,15.4L57.4,496.2z"/>
	<path class="st1" d="M61.8,481.1c0,0,12.3-13.4,18.2-11.6c0,0-8.6,14.5-18.6,14.4L61.8,481.1z"/>
	<path class="st1" d="M66.2,467.1c0,0,10.3-15.7,16.6-14.9c0,0-6,13.7-16.5,16.4L66.2,467.1z"/>
	<path class="st1" d="M70.6,448.3c0,0,9.2-12.1,14.6-12.4c0,0-6.9,15.8-14.8,16.2L70.6,448.3z"/>
	<path class="st1" d="M73.2,435.9l8.1-24.4c0,0,1.9,21.5-9,28.9L73.2,435.9z"/>
	<path class="st1" d="M75.4,409.4c0,0,0.3-20-0.9-21.5c0,0,8,16,1.4,30.3L75.4,409.4z"/>
	<path class="st1" d="M56.2,618.2c0,0-10.4-5.6-15.9,10.2c0,0,9.3,5.4,17.3-6.4L56.2,618.2z"/>
	<path class="st1" d="M50.7,601.4c0,0-12.7-4.8-17.6,11.6c0,0,9.9,5.9,19-7.6L50.7,601.4z"/>
	<path class="st1" d="M47.9,587.2c0,0-9.5-9.8-22.1,1.5c0,0,9,8.6,22.2,1.2L47.9,587.2z"/>
	<path class="st1" d="M45.7,570.8c0,0-9.6-10.3-21.6,0.9c0,0,10.7,8.9,21.8,1.7L45.7,570.8z"/>
	<path class="st1" d="M45.9,557.4c0,0-7.3-15.2-20.4-7.6c0,0,8.3,13.4,20.1,10.2L45.9,557.4z"/>
	<path class="st1" d="M47.7,540.7c0,0-7.3-15.5-20.6-7.2c0,0,9.4,14,20.1,9.7L47.7,540.7z"/>
	<path class="st1" d="M50.6,526.2c0,0-3.6-17.3-15.1-18.1c0,0,3.6,18.2,13.8,21.3L50.6,526.2z"/>
	<path class="st1" d="M52.8,512.4c0,0-2.4-21-11.9-21c0,0,1.4,15.9,11,24.1L52.8,512.4z"/>
	<path class="st1" d="M58.4,495.5c0,0-4-17.3-13.1-18.8c0,0,2.2,16.9,12.5,23.2L58.4,495.5z"/>
	<path class="st1" d="M62.9,481.1c0,0-1.3-18.2-7-20.5c0,0-2.3,16.7,5.6,22.9L62.9,481.1z"/>
	<path class="st1" d="M66.6,466.9c0,0-2-18.7-7.9-21c0,0-1,15,7.1,22.2L66.6,466.9z"/>
	<path class="st1" d="M71.5,449.8c0,0-1.1-15.2-5.4-18.6c0,0-2.9,17,3.4,21.8L71.5,449.8z"/>
	<path class="st1" d="M72.7,435.2L67,410.1c0,0-4,21.2,6.1,29.7L72.7,435.2z"/>
	<path class="st1" d="M71.8,409.9c0,0-11.3-16.4-11.2-18.3c0,0,2.3,17.8,15.7,25.9L71.8,409.9z"/>
	<path class="st1" d="M72.7,404.8c0,0-11.2-23.6-15.7-25.3c0,0,14.2,6.1,16.4,24.5L72.7,404.8z"/>
	<path class="st2" d="M70.4,452.2l-0.6-0.2c6.3-27.2,7.2-44.4,2.5-48.3l0.4-0.5C77.7,407.4,76.9,424.3,70.4,452.2z"/>
	<path class="st2" d="M52.3,516.2l-1-0.3c0.7-2.5,1.5-5.1,2.3-7.6c7.1-21.9,12.9-42.1,16.5-57.7l0.8-0.5
		c-3.6,15.6-9.3,36.6-16.4,58.5C53.7,511.2,53,513.7,52.3,516.2z"/>
	<path class="st2" d="M82.5,661.7c-0.1-0.1-14.3-14.2-25.1-39.1c-6.4-14.6-10.4-30.1-12-45.9c-1.9-19.8,0.7-42.2,6.4-62.8l0.8,0.9
		c-12.8,46.2-4,84.5,5.9,107.2c10.7,24.6,24.7,38.5,24.9,38.7L82.5,661.7z"/>
	<path class="st1" d="M98.1,587.7c0,0,5.1-1.2,8.5,2.3c0,0-2.2,1.9-7.2-0.2L98.1,587.7z"/>
	<path class="st1" d="M97.5,587.6c0,0-3,4.3-1.1,8.8c0,0,2.6-1.3,2.6-6.8L97.5,587.6z"/>
	<path class="st1" d="M94.1,581.1c0,0,1.8-4,10.5,0.8c0,0-0.9,2.7-4.6,2.7C96.3,584.6,95.2,583,94.1,581.1z"/>
	<path class="st1" d="M93.5,580.8c0,0-4.3-0.2-4.1,9.8c0,0,2.8,0.4,4.5-2.9C95.6,584.4,94.7,582.7,93.5,580.8z"/>
	<path class="st1" d="M90.5,573.1c0,0,2-6.9,11.1-2.7c0,0-1.6,6.3-10,5L90.5,573.1z"/>
	<path class="st1" d="M87.1,563.1c0,0,4.1-7.1,12.6-1.3c0,0-2.4,6.6-11.8,3.7L87.1,563.1z"/>
	<path class="st1" d="M85.5,553.6c0,0,4.9-6.6,13.3-0.9c0,0-4.7,5.8-13.2,2.5L85.5,553.6z"/>
	<path class="st1" d="M84.1,544.3c0,0,5-6.9,13-1.2c0,0-5.7,6.2-12.9,2.8L84.1,544.3z"/>
	<path class="st1" d="M84,535.9c0,0,5.1-8.8,12.7-3.6c0,0-5.6,7.7-12.6,5.2L84,535.9z"/>
	<path class="st1" d="M84.7,526.1c0,0,5.5-8.8,12.8-2.8c0,0-6.6,7.7-12.8,4.4L84.7,526.1z"/>
	<path class="st1" d="M86.1,517.3c0,0,6.6-8.4,13-5.6c0,0-6.9,8.9-13.2,7.7L86.1,517.3z"/>
	<path class="st1" d="M88,508.9c0,0,7.6-10.2,12.6-7.3c0,0-5.6,7.9-13,9.2L88,508.9z"/>
	<path class="st1" d="M91,499.2c0,0,6.7-8.4,12-6.8c0,0-5.6,8.6-12.8,9.3L91,499.2z"/>
	<path class="st1" d="M93.6,490c0,0,7.4-8.1,11-7c0,0-5.2,8.8-11.2,8.7L93.6,490z"/>
	<path class="st1" d="M96.3,481.6c0,0,6.2-9.5,10-9c0,0-3.6,8.3-10,9.9L96.3,481.6z"/>
	<path class="st1" d="M99,470.3c0,0,5.6-7.3,8.9-7.5c0,0-4.2,9.5-9,9.8L99,470.3z"/>
	<path class="st1" d="M100.5,462.7l4.9-14.8c0,0,1.2,13-5.5,17.5L100.5,462.7z"/>
	<path class="st1" d="M101.9,446.7c0,0,0.2-12.1-0.5-13c0,0,4.8,9.7,0.8,18.3L101.9,446.7z"/>
	<path class="st1" d="M90.2,572.9c0,0-6.3-3.4-9.6,6.2c0,0,5.6,3.2,10.5-3.8L90.2,572.9z"/>
	<path class="st1" d="M86.9,562.7c0,0-7.7-2.9-10.6,7c0,0,6,3.6,11.5-4.6L86.9,562.7z"/>
	<path class="st1" d="M85.2,554.2c0,0-5.7-5.9-13.3,0.9c0,0,5.4,5.2,13.4,0.7L85.2,554.2z"/>
	<path class="st1" d="M83.9,544.3c0,0-5.8-6.2-13.1,0.5c0,0,6.5,5.4,13.2,1L83.9,544.3z"/>
	<path class="st1" d="M84,536.1c0,0-4.4-9.2-12.4-4.6c0,0,5,8.1,12.1,6.2L84,536.1z"/>
	<path class="st1" d="M85.1,526.1c0,0-4.4-9.4-12.5-4.3c0,0,5.7,8.5,12.2,5.8L85.1,526.1z"/>
	<path class="st1" d="M86.9,517.3c0,0-2.2-10.5-9.1-10.9c0,0,2.2,11,8.3,12.9L86.9,517.3z"/>
	<path class="st1" d="M88.2,509c0,0-1.4-12.7-7.2-12.7c0,0,0.8,9.6,6.6,14.6L88.2,509z"/>
	<path class="st1" d="M91.6,498.8c0,0-2.4-10.5-7.9-11.4c0,0,1.4,10.2,7.6,14L91.6,498.8z"/>
	<path class="st1" d="M94.3,490.1c0,0-0.8-11-4.2-12.4c0,0-1.4,10.1,3.4,13.9L94.3,490.1z"/>
	<path class="st1" d="M96.5,481.4c0,0-1.2-11.3-4.8-12.7c0,0-0.6,9.1,4.3,13.4L96.5,481.4z"/>
	<path class="st1" d="M99.5,471.1c0,0-0.6-9.2-3.2-11.2c0,0-1.8,10.3,2.1,13.2L99.5,471.1z"/>
	<path class="st1" d="M100.2,462.3l-3.4-15.2c0,0-2.4,12.8,3.7,17.9L100.2,462.3z"/>
	<path class="st1" d="M99.7,447c0,0-6.8-9.9-6.8-11.1c0,0,1.4,10.8,9.5,15.6L99.7,447z"/>
	<path class="st1" d="M100.2,443.9c0,0-6.8-14.3-9.5-15.3c0,0,8.6,3.7,9.9,14.8L100.2,443.9z"/>
	<path class="st2" d="M98.9,472.6l-0.4-0.1c3.9-16.5,4.4-26.8,1.5-29.2l0.3-0.3C103.3,445.5,102.8,455.7,98.9,472.6z"/>
	<path class="st2" d="M87.9,511.3l-0.6-0.2c0.4-1.5,0.9-3,1.4-4.5c4.3-13.2,7.8-25.5,10-34.9l0.5-0.3c-2.2,9.4-5.6,22.1-9.9,35.4
		C88.8,508.3,88.3,509.8,87.9,511.3z"/>
	<path class="st2" d="M106.1,599.2c-0.1-0.1-8.6-8.6-15.2-23.6c-3.8-8.8-6.3-18.2-7.2-27.7c-1.2-12,0.4-25.5,3.9-38l0.5,0.5
		c-7.8,28-2.4,51.1,3.6,64.8c6.5,14.9,14.9,23.3,15,23.4L106.1,599.2z"/>
	<path class="st3" d="M125.5,631.7c-1.6,0.3-3.3,0.8-4.8,1.4C86,647,86.6,738.4,86.6,738.4H76.4c0,0-3.2-39.2-17.2-95.2
		c-12.6-50.4,39.1-95.5,49.6-104.1c1.2-1,1.8-1.5,1.8-1.5C162.7,557,125.5,631.7,125.5,631.7z"/>
	<path class="st4" d="M114.4,539.3c-1.2-0.6-2.4-1.1-3.8-1.6c0,0-0.6,0.5-1.8,1.5c-10.5,8.6-62.2,53.7-49.6,104.1
		c14,56,17.2,95.2,17.2,95.2h5.7c0,0-3.2-39.2-17.2-95.2C52.4,593.1,103.6,548.1,114.4,539.3z"/>
	<path class="st3" d="M297.3,643.2c-14,56-17.2,95.2-17.2,95.2h-10.2c0,0,0.6-95.5-36.4-106.2c-0.8-0.2-1.6-0.4-2.4-0.6
		c0,0-37.2-74.6,14.8-93.9c0,0,0.5,0.4,1.5,1.2C257,546.7,310,592.3,297.3,643.2z"/>
	<path class="st5" d="M125.5,631.7c-1.6,0.3-3.3,0.8-4.8,1.4c-6.3-30.9-10.2-62.3-11.9-93.9c1.2-1,1.8-1.5,1.8-1.5
		C162.7,557,125.5,631.7,125.5,631.7z"/>
	<path class="st5" d="M247.3,538.9c-2.1,31.5-6.8,62.7-13.9,93.4c-0.8-0.2-1.6-0.4-2.4-0.6c0,0-37.2-74.6,14.8-93.9
		C245.8,537.7,246.4,538.1,247.3,538.9z"/>
	<path class="st6" d="M228.3,645.8c-3.6,14.3-7.8,29-12.6,44.1c-7.3,22.6-22.9,24.1-78.3,0c0,0-5.5-15.8-11.6-42.5
		c-13.4-58.9-29.5-171.1,4.8-286.4c10.2-34.7,24.7-67.9,43.1-98.9c0,0,29.3,33.9,50.7,98.8S259.4,521.8,228.3,645.8z"/>
	<ellipse class="st3" cx="178.2" cy="452.5" rx="46" ry="46.4"/>
	<path class="st1" d="M210.9,452.5c0,18.2-14.6,32.9-32.6,32.9c-7.5,0-14.8-2.6-20.7-7.5c-2.3-1.9-4.4-4.2-6.1-6.7
		c-0.8-1.1-1.5-2.3-2.1-3.5c-2.4-4.7-3.7-10-3.7-15.3c0-0.3,0-0.5,0-0.8c0.3-14.5,10-27,23.8-30.9c2.6-0.7,5.2-1.1,7.9-1.2h1
		C196.2,419.6,210.8,434.3,210.9,452.5C210.9,452.5,210.9,452.5,210.9,452.5z"/>
	<path class="st3" d="M224.3,360.9c-52.2,25.2-93.9,0-93.9,0c10.2-34.7,24.7-67.9,43.2-98.8C173.6,262.1,202.8,296,224.3,360.9z"/>
	<path class="st3" d="M228.3,645.8c-2.4,9.7-5.2,19.6-8.2,29.6c-1.4,4.8-2.9,9.6-4.5,14.5c-2.4,7.3-22.9,24.1-78.3,0
		c0,0-1.8-5.1-4.5-14.5c-2-7.1-4.5-16.5-7.1-28.1c0,0,20.6,8.9,49.9,8.9C193.6,656.3,211.5,652.8,228.3,645.8z"/>
	<path class="st6" d="M220.1,675.4c-1.4,4.8-2.9,9.6-4.5,14.5c-2.4,7.3-22.9,24.1-78.3,0c0,0-1.8-5.1-4.5-14.5
		C132.8,675.4,189.2,691.8,220.1,675.4z"/>
	<path class="st4" d="M169.4,420.7L169.4,420.7l-23.8,30.9c0,0.3,0,0.5,0,0.8c0,5.3,1.3,10.6,3.7,15.3l27.9-48.2L169.4,420.7z"/>
	<path class="st4" d="M177,448.6l-19.4,29.3c-2.3-1.9-4.4-4.2-6.1-6.7l23.1-25.1L177,448.6z"/>
	<path class="st4" d="M149.7,689.9c0,0-5.5-15.8-11.6-42.5c-13.4-58.9-29.5-171.1,4.8-286.4c9.2-31.2,21.9-61.2,37.8-89.5
		c-4.3-6.2-7.1-9.3-7.1-9.3c-18.5,31-33,64.2-43.2,98.8c-34.2,115.3-18.2,227.5-4.8,286.4c6.1,26.8,11.6,42.5,11.6,42.5
		c21.9,9.5,38.7,11.5,51.1,10.5C177.8,699.5,165,696.5,149.7,689.9z"/>
</g>
<g id="Layer_6">
</g>
<g id="Layer_5">
	<path class="st7" d="M480.3,745.7c0,0,21.8-27.2,20.4-54.4c-0.7-11.4,2.4-22.7,8.7-32.3c3-4.5,6.5-8.7,10.3-12.6"/>
	<path class="st1" d="M518.8,629.3c-1.6,3.8,0.8,17.6,0.8,17.6s11.4-8.2,12.9-12c1.6-3.8-0.2-8.1-4-9.7
		C524.7,623.7,520.4,625.5,518.8,629.3L518.8,629.3L518.8,629.3z"/>
	<path class="st1" d="M498.8,645.6c0.8,4,10.2,14.4,10.2,14.4s5.1-13,4.4-17.1c-0.8-4-4.6-6.7-8.7-5.9
		C500.7,637.7,498.1,641.6,498.8,645.6L498.8,645.6z"/>
	<path class="st1" d="M484.6,681.7c2.7,3.1,16.1,7.2,16.1,7.2s-2.2-13.8-4.9-16.9c-2.8-3-7.4-3.3-10.5-0.5
		C482.4,674.2,482,678.7,484.6,681.7L484.6,681.7z"/>
	<path class="st1" d="M479.9,711.5c2.1,3.5,14.6,9.8,14.6,9.8s0.2-14-1.9-17.5c-2.1-3.5-6.7-4.6-10.2-2.5
		C478.9,703.4,477.8,708,479.9,711.5z"/>
	<path class="st1" d="M523.2,666.7c-3.8,1.5-17.6-1-17.6-1s8.3-11.3,12.1-12.8c3.8-1.5,8.1,0.3,9.6,4.1S527,665.1,523.2,666.7
		L523.2,666.7z"/>
	<path class="st1" d="M517.3,701.4c-4.1,0.3-16.5-6.2-16.5-6.2s11.3-8.3,15.4-8.6c4.1-0.2,7.6,2.9,7.8,7
		C524.2,697.5,521.3,701,517.3,701.4z"/>
	<path class="st1" d="M507,734.3c-4,1-17.3-3.3-17.3-3.3s9.7-10.1,13.7-11.1c4-1,8,1.4,9,5.4C513.3,729.3,510.9,733.3,507,734.3z"/>
	<path class="st8" d="M518.8,629.3c-1.6,3.8,0.8,17.6,0.8,17.6s11.4-8.2,12.9-12c1.6-3.8-0.2-8.1-4-9.7
		C524.7,623.7,520.4,625.5,518.8,629.3L518.8,629.3L518.8,629.3z"/>
	<path class="st8" d="M498.8,645.6c0.8,4,10.2,14.4,10.2,14.4s5.1-13,4.4-17.1c-0.8-4-4.6-6.7-8.7-5.9
		C500.7,637.7,498.1,641.6,498.8,645.6L498.8,645.6z"/>
	<path class="st8" d="M484.6,681.7c2.7,3.1,16.1,7.2,16.1,7.2s-2.2-13.8-4.9-16.9c-2.8-3-7.4-3.3-10.5-0.5
		C482.4,674.2,482,678.7,484.6,681.7L484.6,681.7z"/>
	<path class="st8" d="M479.9,711.5c2.1,3.5,14.6,9.8,14.6,9.8s0.2-14-1.9-17.5c-2.1-3.5-6.7-4.6-10.2-2.5
		C478.9,703.4,477.8,708,479.9,711.5z"/>
	<path class="st8" d="M523.2,666.7c-3.8,1.5-17.6-1-17.6-1s8.3-11.3,12.1-12.8c3.8-1.5,8.1,0.3,9.6,4.1S527,665.1,523.2,666.7
		L523.2,666.7z"/>
	<path class="st8" d="M517.3,701.4c-4.1,0.3-16.5-6.2-16.5-6.2s11.3-8.3,15.4-8.6c4.1-0.2,7.6,2.9,7.8,7
		C524.2,697.5,521.3,701,517.3,701.4z"/>
	<path class="st8" d="M507,734.3c-4,1-17.3-3.3-17.3-3.3s9.7-10.1,13.7-11.1c4-1,8,1.4,9,5.4C513.3,729.3,510.9,733.3,507,734.3z"/>
	<path class="st7" d="M480.5,744.6c0,0,31-16,40.7-41.5c4-10.7,11.4-19.8,21-26c4.6-2.9,9.4-5.4,14.5-7.4"/>
	<path class="st1" d="M562.9,653.8c-3,2.8-6.4,16.4-6.4,16.4s13.7-2.9,16.7-5.7c3-2.8,3.1-7.5,0.2-10.5
		C570.6,651,565.9,650.9,562.9,653.8L562.9,653.8L562.9,653.8z"/>
	<path class="st1" d="M538,660.6c-0.9,4,3.5,17.3,3.5,17.3s9.9-9.8,10.9-13.9c0.9-4-1.5-8-5.5-8.9C543,654.2,539,656.6,538,660.6
		L538,660.6z"/>
	<path class="st1" d="M510.3,687.8c1.2,3.9,11.8,13.1,11.8,13.1s3.6-13.6,2.4-17.5c-1.2-3.9-5.3-6.1-9.3-4.9
		C511.4,679.7,509.1,683.9,510.3,687.8L510.3,687.8z"/>
	<path class="st1" d="M494,713.1c0.5,4.1,9.4,14.9,9.4,14.9s5.9-12.7,5.4-16.8c-0.5-4.1-4.2-6.9-8.3-6.4S493.5,709,494,713.1
		L494,713.1z"/>
	<path class="st1" d="M551.7,689.7c-4.1-0.1-15.7-8-15.7-8s12.2-7,16.2-6.8c4.1,0.2,7.3,3.6,7.1,7.7
		C559.3,686.6,555.8,689.8,551.7,689.7L551.7,689.7z"/>
	<path class="st1" d="M532.3,719c-3.9-1.4-12.6-12.3-12.6-12.3s13.7-3,17.5-1.7c3.9,1.4,5.9,5.6,4.5,9.5
		C540.4,718.4,536.2,720.4,532.3,719L532.3,719z"/>
	<path class="st1" d="M509.5,745c-4-0.7-14.5-10-14.5-10s13-5.3,17-4.6c4,0.7,6.7,4.5,6.1,8.6S513.5,745.6,509.5,745L509.5,745
		L509.5,745z"/>
</g>
<g id="Layer_2">
	
		<linearGradient id="SVGID_1_" gradientUnits="userSpaceOnUse" x1="674.6096" y1="463.3622" x2="674.6096" y2="744.9653" gradientTransform="matrix(1 0 0 -1 0 768)">
		<stop  offset="0" style="stop-color:#808080;stop-opacity:0.25"/>
		<stop  offset="0.54" style="stop-color:#808080;stop-opacity:0.12"/>
		<stop  offset="1" style="stop-color:#808080;stop-opacity:0.1"/>
	</linearGradient>
	<circle class="st9" cx="674.6" cy="163.8" r="140.8"/>
	<circle class="st1" cx="674.6" cy="163.8" r="137.3"/>
	<circle class="st10" cx="630.2" cy="84.5" r="17.1"/>
	<circle class="st10" cx="682.4" cy="267.2" r="17.1"/>
	<circle class="st10" cx="699.4" cy="144.3" r="34.9"/>
	
		<linearGradient id="SVGID_2_" gradientUnits="userSpaceOnUse" x1="863.6517" y1="486.4153" x2="863.6517" y2="554.4561" gradientTransform="matrix(1 0 0 -1 -185 691.13)">
		<stop  offset="0" style="stop-color:#808080;stop-opacity:0.25"/>
		<stop  offset="0.54" style="stop-color:#808080;stop-opacity:0.12"/>
		<stop  offset="1" style="stop-color:#808080;stop-opacity:0.1"/>
	</linearGradient>
	<path class="st11" d="M729.8,204.7c-17.3,0-35.7-0.8-54.5-2.5c-41.8-3.7-80.7-11.1-109.7-20.7c-29.1-9.8-44.7-20.8-43.8-31
		c0.5-5.2,5-9.8,13.6-13.8l0.4,1c-8.2,3.8-12.6,8.1-13,12.9c-0.4,4.8,3.2,9.9,10.8,15.1c7.4,5.1,18.3,10.1,32.3,14.8
		c28.9,9.7,67.7,17,109.4,20.7c41.7,3.7,81.3,3.3,111.4-1.2c14.6-2.2,26.2-5.2,34.4-8.9c8.4-3.8,12.8-8.2,13.3-13
		c0.5-5.5-4.5-11.6-14.4-17.5l0.6-0.9c10.4,6.2,15.5,12.5,14.9,18.5c-0.9,10.3-18.2,18.4-48.6,22.9
		C770.4,203.5,750.9,204.7,729.8,204.7z"/>
	<path class="st12" d="M820.3,159c9.9,5.9,15.2,12,14.7,18c-1.8,20.7-73.3,31.2-159.6,23.6c-86.3-7.6-154.8-30.5-153-51.2
		c0.4-5.1,5.2-9.6,13.3-13.3"/>
	
		<linearGradient id="SVGID_3_" gradientUnits="userSpaceOnUse" x1="796.5739" y1="466.1871" x2="796.5739" y2="597.2704" gradientTransform="matrix(1 0 0 -1 -185 691.13)">
		<stop  offset="0" style="stop-color:#808080;stop-opacity:0.25"/>
		<stop  offset="0.54" style="stop-color:#808080;stop-opacity:0.12"/>
		<stop  offset="1" style="stop-color:#808080;stop-opacity:0.1"/>
	</linearGradient>
	<path class="st13" d="M692.2,224.9c-12.5-5.4-25.2-11.4-37.8-17.8c-37.4-19.1-70.7-40.5-93.9-60.4c-23.4-20-33.7-36-29-45.2
		c2.4-4.6,8.4-7.2,17.8-7.7l0.1,1.1c-9,0.4-14.7,2.8-16.9,7.1c-2.2,4.3-0.8,10.4,4.3,18.1c5,7.5,13.2,16.2,24.4,25.8
		c23.1,19.8,56.4,41.2,93.7,60.3c12.6,6.4,25.3,12.4,37.7,17.8L692.2,224.9z"/>
	<path class="st14" d="M694.2,224.4c-12.2-5.3-24.9-11.2-37.7-17.8c-77.2-39.5-132.1-86.4-122.6-104.9c2.3-4.6,8.4-7,17.3-7.4"/>
	
		<linearGradient id="SVGID_4_" gradientUnits="userSpaceOnUse" x1="964.7099" y1="435.388" x2="964.7099" y2="467.8532" gradientTransform="matrix(1 0 0 -1 -185 691.13)">
		<stop  offset="0" style="stop-color:#808080;stop-opacity:0.25"/>
		<stop  offset="0.54" style="stop-color:#808080;stop-opacity:0.12"/>
		<stop  offset="1" style="stop-color:#808080;stop-opacity:0.1"/>
	</linearGradient>
	<path class="st15" d="M793.3,255.7c-11.3,0-27.3-3.7-48.8-11.1l0.4-1c41.1,14.2,61.4,14.7,68,1.9c2.5-4.9,0.2-12.4-6.8-21.6
		l0.9-0.6c7.3,9.7,9.7,17.3,6.9,22.7C810.5,252.5,803.9,255.7,793.3,255.7z"/>
	<path class="st14" d="M806.5,222.5c7,9.2,9.6,16.9,6.8,22.2c-6.3,12.2-24.6,13.5-68.6-1.7"/>
	<g class="st16">
		<rect x="549" y="291" class="st17" width="1" height="8"/>
		<rect x="546" y="295" class="st17" width="8" height="1"/>
	</g>
	<g class="st16">
		<rect x="834" y="5" class="st17" width="1" height="8"/>
		<rect x="830" y="8" class="st17" width="8" height="1"/>
	</g>
	<g class="st16">
		<rect x="864" y="221" class="st17" width="1" height="8"/>
		<rect x="861" y="225" class="st17" width="8" height="1"/>
	</g>
	<g class="st16">
		<rect x="554" y="24" class="st17" width="1" height="8"/>
		<rect x="550" y="27" class="st17" width="8" height="1"/>
	</g>
	<path class="st18" d="M595.1,318.4c-0.8-0.3-1.2-1.2-1-2.1c0-0.1,0-0.1,0-0.2l0,0c0-0.5-0.4-0.9-0.8-0.9c-0.3,0-0.5,0.1-0.7,0.3
		l0,0c0,0.1-0.1,0.1-0.1,0.2c-0.3,0.8-1.2,1.2-2.1,1c-0.1,0-0.1,0-0.2,0l0,0c-0.5,0-0.9,0.4-0.9,0.8c0,0.3,0.1,0.5,0.3,0.7l0,0
		c0.1,0,0.1,0.1,0.2,0.1c0.8,0.3,1.2,1.2,1,2.1c0,0.1,0,0.1,0,0.2l0,0c0,0.5,0.4,0.9,0.8,0.9c0.3,0,0.5-0.1,0.7-0.3l0,0
		c0-0.1,0.1-0.1,0.1-0.2c0.3-0.8,1.2-1.2,2.1-1c0.1,0,0.1,0,0.2,0l0,0c0.5,0,0.9-0.4,0.9-0.8c0-0.3-0.1-0.5-0.3-0.7l0,0
		C595.3,318.5,595.2,318.4,595.1,318.4z"/>
	<path class="st18" d="M680.5,324c-0.8-0.3-1.2-1.2-1-2.1c0-0.1,0-0.1,0-0.2l0,0c0-0.5-0.4-0.9-0.8-0.9c-0.3,0-0.5,0.1-0.7,0.3l0,0
		c0,0.1-0.1,0.1-0.1,0.2c-0.3,0.8-1.2,1.2-2.1,1c-0.1,0-0.1,0-0.2,0l0,0c-0.5,0-0.9,0.4-0.9,0.8c0,0.3,0.1,0.5,0.3,0.7l0,0
		c0.1,0,0.1,0.1,0.2,0.1c0.8,0.3,1.2,1.2,1,2.1c0,0.1,0,0.1,0,0.2l0,0c0,0.5,0.4,0.9,0.8,0.9c0.3,0,0.5-0.1,0.7-0.3l0,0
		c0-0.1,0.1-0.1,0.1-0.2c0.3-0.8,1.2-1.2,2.1-1c0.1,0,0.1,0,0.2,0l0,0c0.5,0,0.9-0.4,0.9-0.8c0-0.3-0.1-0.5-0.3-0.7l0,0
		C680.6,324.1,680.6,324,680.5,324z"/>
	<path class="st18" d="M849.4,98.7c-0.8-0.3-1.2-1.2-1-2.1c0-0.1,0-0.1,0-0.2l0,0c0-0.5-0.4-0.9-0.8-0.9c-0.3,0-0.5,0.1-0.7,0.3l0,0
		c0,0.1-0.1,0.1-0.1,0.2c-0.3,0.8-1.2,1.2-2.1,1c-0.1,0-0.1,0-0.2,0l0,0c-0.5,0-0.9,0.4-0.9,0.8c0,0.3,0.1,0.5,0.3,0.7l0,0
		c0.1,0,0.1,0.1,0.2,0.1c0.8,0.3,1.2,1.2,1,2.1c0,0.1,0,0.1,0,0.2l0,0c0,0.5,0.4,0.9,0.8,0.9c0.3,0,0.5-0.1,0.7-0.3l0,0
		c0-0.1,0.1-0.1,0.1-0.2c0.3-0.8,1.2-1.2,2.1-1c0.1,0,0.1,0,0.2,0l0,0c0.5,0,0.9-0.4,0.9-0.8c0-0.3-0.1-0.5-0.3-0.7l0,0
		C849.5,98.7,849.5,98.7,849.4,98.7z"/>
	<path class="st18" d="M516.9,222.1c-0.8-0.3-1.2-1.2-1-2.1c0-0.1,0-0.1,0-0.2l0,0c0-0.5-0.4-0.9-0.8-0.9c-0.3,0-0.5,0.1-0.7,0.3
		l0,0c0,0.1-0.1,0.1-0.1,0.2c-0.3,0.8-1.2,1.2-2.1,1c-0.1,0-0.1,0-0.2,0l0,0c-0.5,0-0.9,0.4-0.9,0.8c0,0.3,0.1,0.5,0.3,0.7l0,0
		c0.1,0,0.1,0.1,0.2,0.1c0.8,0.3,1.2,1.2,1,2.1c0,0.1,0,0.1,0,0.2l0,0c0,0.5,0.4,0.9,0.8,0.9c0.3,0,0.5-0.1,0.7-0.3l0,0
		c0-0.1,0.1-0.1,0.1-0.2c0.3-0.8,1.2-1.2,2.1-1c0.1,0,0.1,0,0.2,0l0,0c0.5,0,0.9-0.4,0.9-0.8c0-0.3-0.1-0.5-0.3-0.7l0,0
		C517,222.2,516.9,222.2,516.9,222.1z"/>
	<circle class="st19" cx="510.8" cy="106.9" r="2.8"/>
	<circle class="st18" cx="739" cy="13.1" r="2.8"/>
	<circle class="st20" cx="585" cy="6.1" r="2.8"/>
	<circle class="st19" cx="792.2" cy="304.3" r="2.8"/>
	
		<linearGradient id="SVGID_5_" gradientUnits="userSpaceOnUse" x1="296.0828" y1="400.3926" x2="296.0828" y2="454.2721" gradientTransform="matrix(0.461 -0.8874 -0.8874 -0.461 962.6113 694.5062)">
		<stop  offset="0" style="stop-color:#808080;stop-opacity:0.25"/>
		<stop  offset="0.54" style="stop-color:#808080;stop-opacity:0.12"/>
		<stop  offset="1" style="stop-color:#808080;stop-opacity:0.1"/>
	</linearGradient>
	<path class="st21" d="M726.2,216.2c-1.6-0.8-3.6-0.2-4.5,1.4l-0.3,0.7l-0.8-0.4l-6.9-3.6l-1.5-0.8c-0.2-0.1-0.4-0.2-0.7-0.1
		c-6.6-2.2-11.9,2-15.4,8.6l0,0c-1.2,2.3-2,4.7-2.4,7.3l-0.1,0c-0.4,2.7,0,5.3,1.3,7.4l0.1-0.2c0.7,1.1,1.5,2.1,2.5,2.9
		c0.1,0.3,0.3,0.5,0.5,0.7l9.5,4.9l-0.7,1.4c-0.8,1.6-0.2,3.6,1.4,4.5l0,0l2.2-4.4l11.7,6.1l0.8-1.5l0.8-1.5l1.1-2.4h0l-2.7,5.3
		l5.6,2.9c6.8,3.5,12-1,15.1-8v0l1-0.4l0,0l0,0v0l0,0l0,0l0.1-0.4l0,0c3.6-7.2,4.4-14-2.5-17.6l-5.6-2.9L733,232h0l1.6-3.2l0.7-1.4
		l0.8-1.6l-11.7-6.1L726.2,216.2L726.2,216.2z M708.4,241L708.4,241L708.4,241L708.4,241z"/>
	
		<rect x="710.6" y="229.8" transform="matrix(0.461 -0.8874 0.8874 0.461 180.2603 768.9111)" class="st22" width="24.9" height="12.5"/>
	<path class="st23" d="M743,246.1L743,246.1c-3.6,6.8-8.5,11.4-15.1,8l-5.3-2.7l13-24.9l5.3,2.7C747.4,232.6,746.6,239.2,743,246.1z
		"/>
	<path class="st24" d="M742.5,246.1L742.5,246.1L742.5,246.1z"/>
	<path class="st24" d="M738.4,251.9c1.6-1.7,3-3.7,4.1-5.9c1-1.8,1.7-3.8,2.2-5.8l-2.2-1.2l-6.1,11.7L738.4,251.9z"/>
	<path class="st24" d="M724.6,246.6l7.5-14.5l0,0l0.4,0.2c0.9,0.5,1.3,1.6,0.8,2.5l0,0l-5.8,11.2c-0.5,0.9-1.6,1.3-2.5,0.8l0,0
		L724.6,246.6L724.6,246.6z"/>
	<path class="st25" d="M699.8,237l0.3-0.5l0,0l23.5,12.2l0,0l-1.4,2.8l0,0l-21.3-11.1C699.6,239.7,699.1,238.2,699.8,237
		C699.8,237,699.8,237,699.8,237z"/>
	<path class="st25" d="M710.2,217l0.3-0.5c0.6-1.2,2.2-1.7,3.4-1.1l0,0l21.3,11.1l0,0l-1.4,2.8l0,0L710.2,217L710.2,217z"/>
	<path class="st23" d="M720.6,218.9l-12.9,24.9l-6.5-3.4c-7.2-3.7-7.2-10.8-3.6-17.7l0,0c3.6-6.9,9.3-11,16.5-7.2L720.6,218.9z"/>
	<path class="st26" d="M696.5,236.5l2.6-5l-3.8-2C694.9,232.1,695.2,234.5,696.5,236.5z"/>
	<path class="st26" d="M708.1,214.1l-2.6,5l-3.8-2C703.6,215.4,705.7,214.3,708.1,214.1z"/>
	<path class="st25" d="M707.4,246.1l1-1.9l0,0l2.8,1.4l0,0l-2.2,4.2l0,0l-0.5-0.3C707.3,248.8,706.8,247.3,707.4,246.1
		C707.4,246.1,707.4,246.1,707.4,246.1z"/>
	<path class="st25" d="M725.8,217.3l-2.2,4.1l0,0l-2.8-1.4l0,0l1-1.9c0.6-1.2,2.2-1.7,3.4-1.1l0,0L725.8,217.3L725.8,217.3z"/>
	<path class="st27" d="M722.3,222.4l-10.8,20.8l-9.4-8.4c-1.5-1.3-1.9-3.5-1-5.3l4-7.7c0.9-1.8,3-2.7,4.9-2.3L722.3,222.4z"/>
	<path class="st28" d="M711.9,242.4c-4.6-2.4-6.1-8.5-3.4-13.6c2.7-5.2,8.6-7.4,13.1-5"/>
	<polygon class="st23" points="723,222.8 712.2,243.5 710.2,242.5 711.6,241.3 720.5,224.3 720.9,221.7 	"/>
	<polygon class="st10" points="723,222.8 712.2,243.5 710.2,242.5 711.6,241.3 720.5,224.3 720.9,221.7 	"/>
	
		<rect x="716.7" y="233.7" transform="matrix(0.461 -0.8874 0.8874 0.461 178.3665 764.2148)" class="st27" width="3.1" height="3.1"/>
	<ellipse transform="matrix(0.461 -0.8874 0.8874 0.461 178.4805 765.8332)" class="st27" cx="719.6" cy="236" rx="3.1" ry="0.8"/>
	<path class="st10" d="M727.2,250.5c2.4,1.7,5.8,1,7.4-1.4c0.1-0.1,0.1-0.2,0.2-0.3"/>
	<path class="st10" d="M736.9,231.8c2.8,1,4.1,4.1,3.1,6.9c0,0.1-0.1,0.2-0.1,0.3"/>
	<path class="st10" d="M703.3,231.9c0,0-0.6-5.6,5-9.7"/>
	<path class="st10" d="M705.9,233.2c0,0-0.6-5.6,5-9.7"/>
	<circle class="st29" cx="711.3" cy="235.2" r="2.3"/>
	<circle class="st29" cx="714.6" cy="227.2" r="1.6"/>
	<path class="st30" d="M719.6,233l-0.1-0.4c-0.1-0.5,0.2-1,0.7-1.1l5-1c0.5-0.1,1,0.2,1.1,0.7c0,0,0,0,0,0l0.3,1.4l0,0l-6,1.2
		C720.2,233.8,719.7,233.5,719.6,233z"/>
	<path class="st10" d="M722.5,233.8l-0.5-2.3l0,0l2.7-0.6c1-0.2,2,0.5,2.2,1.5l0,0l0.1,0.4l0,0L722.5,233.8L722.5,233.8z"/>
	<path class="st30" d="M718.3,243.6l1.9-3.6l0,0l4.3,2.2l0,0l-1.9,3.6c-0.5,0.9-1.7,1.3-2.6,0.8l0,0l-0.8-0.4
		C718.2,245.7,717.9,244.6,718.3,243.6C718.3,243.6,718.3,243.6,718.3,243.6z"/>
	<path class="st30" d="M722.7,245.4l-0.8,1.7c-0.8,1.4-2.9,1.8-4.7,0.9l-2-1.1l1.1-2.1L722.7,245.4z"/>
	<path class="st30" d="M711.4,243.8l0.2-0.4c0.2-0.5,0.8-0.7,1.3-0.4l3.4,1.8l0,0l-1.1,2.1l0,0l-3.4-1.8
		C711.4,244.9,711.2,244.3,711.4,243.8z"/>
	<path class="st10" d="M722,242.2c0.7,0.4,1.5,0.5,2.3,0.3l0.1-0.2l-4.2-2.2C720.6,241.1,721.2,241.8,722,242.2z"/>
	<path class="st30" d="M728.6,234.1l-1.9,3.6l0,0l-4.3-2.2l0,0l1.9-3.6c0.5-0.9,1.7-1.3,2.6-0.8l0,0l0.8,0.4
		C728.8,232,729.1,233.2,728.6,234.1L728.6,234.1L728.6,234.1z"/>
	<path class="st10" d="M725.4,235.7c0.7,0.4,1.3,1,1.6,1.7l-0.1,0.2l-4.2-2.2C723.6,235.2,724.6,235.3,725.4,235.7z"/>
	<circle class="st30" cx="723.7" cy="238.9" r="3.6"/>
	<circle class="st30" cx="723.6" cy="238.9" r="3.6"/>
	<path class="st28" d="M720.3,237.2c-0.6,1.1-0.5,2.5,0.2,3.6c2-0.1,3.5-1.8,3.4-3.8c0-0.6-0.2-1.2-0.6-1.8
		C722.1,235.3,720.9,236.1,720.3,237.2z"/>
</g>
<g id="fcb9129a-8421-465f-8817-beceb46f7383">
	<path class="st31" d="M246,677c-11.6,0-21-9.4-21-21s9.4-21,21-21s21,9.4,21,21C267,667.6,257.6,677,246,677z M246,637
		c-10.5,0-19,8.5-19,19s8.5,19,19,19s19-8.5,19-19C265,645.5,256.5,637,246,637z"/>
	<path class="st31" d="M246,442c-11.6,0-21-9.4-21-21s9.4-21,21-21s21,9.4,21,21l0,0C267,432.6,257.6,442,246,442z M246,402
		c-10.5,0-19,8.5-19,19s8.5,19,19,19s19-8.5,19-19l0,0C265,410.5,256.5,402,246,402z"/>
	<path class="st32" d="M827.5,655.1l5.5-21.8c9.8-4.2,19.9-7.8,30.1-10.8l0.7,10.2l2.8-11.2c12.7-3.6,21.3-5.2,21.3-5.2
		s-11.7,44.3-36.1,78.2l-28.5,5l22.1,3.2c-3.1,3.7-6.4,7.2-9.9,10.5c-35.6,33-75.2,48.1-88.5,33.8s4.7-52.7,40.3-85.7
		c11-10.2,24.9-18.4,38.7-24.9L827.5,655.1z"/>
	<path class="st32" d="M774.9,631.4l-6.6-21.6c6.3-8.6,13-16.9,20.2-24.8l5.8,8.3l-3.4-11c9-9.7,15.5-15.5,15.5-15.5
		s12.9,44,9.5,85.6l-21.8,19l20.6-8.7c-0.7,4.8-1.7,9.5-3.1,14.1c-13.4,46.6-39.5,80.1-58.2,74.7s-23.2-47.6-9.8-94.2
		c4.1-14.5,11.8-28.6,20.3-41.3L774.9,631.4z"/>
	<ellipse class="st32" cx="674" cy="750" rx="214" ry="17"/>
	<path class="st33" d="M646.1,620.7c0,0,0,68.3-15.7,86.2c0,0-3.4,9-4.5,12.3c-0.6,1.9-1.4,3.8-2.2,5.6v4.5c0,0-30.2-3.4-33.6-11.2
		l5.6-6.7c0,0,1.1-1.1,0-4.5c-0.6-1.1-0.2-2.5,1-3.1c0.4-0.2,0.8-0.3,1.3-0.3l7.8-17.9l-1.1-73.9l5.6-101.8l48.1-2.2L646.1,620.7z"
		/>
	<path class="st33" d="M621.5,722.6c0,0,7.8,23.5,0,24.6s-76.1,2.2-75-6.7s23.5-7.8,23.5-7.8l23.5-14.5L621.5,722.6z"/>
	<path class="st33" d="M690.9,510c0,0,2.2,14.5-6.7,30.2s-3.4,68.3-3.4,68.3l79.4,69.4c0,0-15.7,26.9-21.3,25.7s-94-72.7-94-72.7
		l-34.7-116.4L690.9,510z"/>
	<path class="st33" d="M759.2,674.8c0,0,24,6,20.8,13.2s-38.8,65.5-45.8,59.7s6-24,6-24l0.3-27.6L759.2,674.8z"/>
	<circle class="st34" cx="647.2" cy="301.8" r="25.7"/>
	<path class="st34" d="M667.5,310.9l-1.1,33.1l-21.7,8.6c0,0-2.1-33.9-5.1-35.8S667.5,310.9,667.5,310.9z"/>
	<path class="st35" d="M639.4,356.7c0,0,30.2-30.2,38-29.1s7.8,4.5,7.8,6.7s-2.2,3.4,0,4.5s4.5,0,4.5,3.4s20.1,36.9,13.4,73.9
		s-14.5,54.8-11.2,75s1.1,24.6,1.1,24.6s-83.9,6.7-85-1.1s3.4-3.4-2.2-9s-3.4-5.6-3.4-9S627.1,356.7,639.4,356.7z"/>
	<path class="st34" d="M655.1,508.8c0,0-13.4,32.5-23.5,24.6s4.5-34.7,4.5-34.7L655.1,508.8z"/>
	<path class="st35" d="M687.5,358.9c0,0,26.3,3,16.5,51.3s-47.8,104.2-47.8,104.2l-25.7-12.3l33.6-66l-7.8-41.4
		C656.2,394.7,651.7,355.5,687.5,358.9z"/>
	<polygon class="st36" points="664.6,436.7 627.6,498.2 631,501.6 	"/>
	<polygon class="st36" points="684.1,465.3 654.5,513.9 664.6,513.9 	"/>
	<path class="st33" d="M658.9,317.3c-2.1-1.1-4.5-1.3-6.8-2c-8.1-2.4-13.5-11.6-11.7-19.8c0.3-1.1,0.5-2.2,0.4-3.3
		c-0.3-2.4-2.8-4-5.2-4.6s-5-0.5-7.2-1.4c-3.5-1.4-5.9-5-6.4-8.8c-0.4-3.8,0.5-7.6,2.4-11l0.9,2.5c1.3-1.1,2.3-2.6,2.8-4.2
		c2,0.3,3.7,1.7,4.4,3.6c1.4,0.8,1.6-2.5,3.1-3c0.7-0.1,1.4,0.1,1.9,0.5c3.1,1.4,6.7,0.2,10-0.6c5.7-1.4,11.7-1.4,17.5,0
		c3.8,0.9,7.6,2.5,10.3,5.3c2.1,2.4,3.8,5.3,4.8,8.3c2.9,7.4,4.9,15.4,3.9,23.3c-0.8,6.5-3.5,12.5-7.8,17.4
		c-2.2,2.6-9.4,11.5-13.4,9.9C658,327.5,664.7,320.4,658.9,317.3z"/>
	
		<rect x="630.4" y="551.1" transform="matrix(0.9343 -0.3564 0.3564 0.9343 -169.6752 263.827)" class="st36" width="1.6" height="82.6"/>
	<circle class="st37" cx="639.6" cy="361.2" r="1.6"/>
	<line class="st38" x1="639.6" y1="361.2" x2="626" y2="405"/>
	<path class="st37" d="M626,405.8c0.3,0,0.7-0.2,0.8-0.6l13.5-43.8c0.1-0.4-0.1-0.9-0.5-1c-0.4-0.1-0.9,0.1-1,0.5l-13.5,43.8
		c-0.1,0.4,0.1,0.9,0.5,1C625.9,405.8,625.9,405.8,626,405.8L626,405.8z"/>
	<g id="Layer_3">
	</g>
	<g id="Layer_4">
	</g>
</g>
</svg>
