<svg xmlns="http://www.w3.org/2000/svg" xmlns:xlink="http://www.w3.org/1999/xlink" viewBox="0 0 94.89 88.85"><defs><style>.cls-1{fill:none;}.cls-2{fill:#fabe9b;}.cls-3{fill:#d27350;}.cls-4{fill:#ffd23c;}.cls-5{fill:#41378c;}.cls-6{clip-path:url(#clip-path);}</style><clipPath id="clip-path"><path class="cls-1" d="M78.43,28.41c-.09-.2-.17-.41-.27-.61a33.94,33.94,0,0,0-61,29.71l.3.59Z"/></clipPath></defs><g id="Layer_2" data-name="Layer 2"><g id="OBJECTS"><circle class="cls-2" cx="47.64" cy="42.66" r="33.94" transform="translate(-14.24 26.54) rotate(-27.24)"/><path class="cls-3" d="M78.16,27.8a33.49,33.49,0,0,0-3.26-5.35c4.73,16.53-3.4,32-18.18,39.8-16.06,8.49-34.19,4.26-42.36-12.87A33.95,33.95,0,1,0,78.16,27.8Z"/><path class="cls-4" d="M94.22,17.71a7.08,7.08,0,0,1,.59,4,7.22,7.22,0,0,1-.15.78c-.06.24-.13.51-.2.72-.15.4-.31.85-.48,1.21A17.67,17.67,0,0,1,91.74,28a41.83,41.83,0,0,1-4.88,5.1,106.78,106.78,0,0,1-10.39,8.18A161.76,161.76,0,0,1,54.09,54.19c-3.89,1.83-7.82,3.58-11.81,5.2s-8.06,3.07-12.2,4.39A101.34,101.34,0,0,1,17.26,67a42,42,0,0,1-7,.69,17.34,17.34,0,0,1-4.16-.42c-.38-.08-.83-.24-1.24-.37-.21-.07-.46-.19-.69-.29a5.8,5.8,0,0,1-.71-.35,7.12,7.12,0,0,1-2.81-3,6.93,6.93,0,0,1-.52-4,7.15,7.15,0,0,1,.17-.76c.07-.24.13-.5.21-.71.16-.39.33-.83.51-1.17a16.79,16.79,0,0,1,2.34-3.4,42.06,42.06,0,0,1,5.05-4.83,108.22,108.22,0,0,1,10.69-7.56c3.64-2.31,7.36-4.43,11.11-6.48s7.56-4,11.41-5.8c7.69-3.67,15.49-7.12,23.57-10.09a100.66,100.66,0,0,1,12.53-3.81,39.9,39.9,0,0,1,6.92-1,16.78,16.78,0,0,1,4.12.26A10.16,10.16,0,0,1,90,14.2c.21.06.47.18.69.27a5.66,5.66,0,0,1,.71.34A6.93,6.93,0,0,1,94.22,17.71Zm-7.62,3.7a1.35,1.35,0,0,0,.65.71s0,0,0,0,0,0,0,0-.14-.07-.28-.1a8.83,8.83,0,0,0-2.15-.21,32,32,0,0,0-5.58.54,96.46,96.46,0,0,0-11.78,2.85,153.21,153.21,0,0,0-23,9.22c-3.7,1.86-7.36,3.8-11,5.86s-7.07,4.26-10.45,6.57a90.07,90.07,0,0,0-9.54,7.46,32.35,32.35,0,0,0-3.87,4.06,8.6,8.6,0,0,0-1.16,1.83c-.06.13-.05.19-.1.28s0,0,0,0h0a1.35,1.35,0,0,0-.16-1,1.77,1.77,0,0,0-.61-.78s0,0,0,0,0,0,0,0a1.76,1.76,0,0,1,.27,0,9.89,9.89,0,0,0,2.11,0A33.69,33.69,0,0,0,15.52,58,101.4,101.4,0,0,0,27,54.57c3.82-1.36,7.61-2.91,11.37-4.53s7.49-3.37,11.17-5.2c7.35-3.65,14.61-7.52,21.53-11.78a94,94,0,0,0,9.85-6.85,33.62,33.62,0,0,0,4-3.79,9.7,9.7,0,0,0,1.26-1.7c.07-.11.07-.16.13-.24s0,0,0,0,0,0,0,0A1.62,1.62,0,0,0,86.6,21.41Z"/><path class="cls-2" d="M75.55,23.33a33.95,33.95,0,0,0-59.79,31c1.57,4.36,14.25-.85,34.54-10.7C63.53,37.19,77.93,31,75.55,23.33Z"/><path class="cls-5" d="M86.07.67l.55,1.39a1,1,0,0,0,.59.59l1.4.56a1.05,1.05,0,0,1,0,2l-1.4.55a1.09,1.09,0,0,0-.59.6l-.55,1.39a1.06,1.06,0,0,1-2,0l-.55-1.39a1.09,1.09,0,0,0-.59-.6l-1.4-.55a1.06,1.06,0,0,1,0-2L83,2.65a1,1,0,0,0,.59-.59L84.1.67A1.06,1.06,0,0,1,86.07.67Z"/><path class="cls-5" d="M3.58,28.46l.33.84a.67.67,0,0,0,.36.36L5.1,30a.63.63,0,0,1,0,1.18l-.83.33a.62.62,0,0,0-.36.35l-.33.84a.64.64,0,0,1-1.18,0l-.33-.84a.65.65,0,0,0-.36-.35l-.83-.33A.63.63,0,0,1,.88,30l.83-.33a.7.7,0,0,0,.36-.36l.33-.84A.64.64,0,0,1,3.58,28.46Z"/><path class="cls-5" d="M22.94,76.52l.88,2.23a1.74,1.74,0,0,0,.95,1l2.23.88a1.7,1.7,0,0,1,0,3.15l-2.23.88a1.71,1.71,0,0,0-.95,1l-.88,2.23a1.7,1.7,0,0,1-3.15,0l-.88-2.23a1.74,1.74,0,0,0-.95-1l-2.23-.88a1.7,1.7,0,0,1,0-3.15L18,79.7a1.77,1.77,0,0,0,.95-1l.88-2.23A1.7,1.7,0,0,1,22.94,76.52Z"/><g class="cls-6"><path class="cls-3" d="M60.5,9a24,24,0,0,1-1.73,1.77,54.89,54.89,0,0,1-7,5.38,162.79,162.79,0,0,1-15.56,8.94c-2.67,1.37-5.38,2.67-8.13,3.85s-5.53,2.31-8.36,3.26a61.56,61.56,0,0,1-8.17,2.25c0,1.13-.08,2.27-.13,3.4l.22,0A55.54,55.54,0,0,0,20.86,36a108.83,108.83,0,0,0,17.37-6.75,92.58,92.58,0,0,0,15.86-9.78,59.63,59.63,0,0,0,7-6.3,24.75,24.75,0,0,0,2.62-3.26C62.65,9.64,61.57,9.35,60.5,9Z"/><path class="cls-3" d="M74.43,12a.91.91,0,0,0-.11.16C67.28,26.57,34.89,49.3,10.61,48c-.19,1.77-.41,3.55-.65,5.32C39.15,51.86,72.11,30.83,78.55,13,77.19,12.61,75.82,12.26,74.43,12Z"/></g></g></g></svg>