<?xml version="1.0" encoding="utf-8"?>
<!-- Generator: Adobe Illustrator 24.1.1, SVG Export Plug-In . SVG Version: 6.00 Build 0)  -->
<svg version="1.1" id="f7e01b52-fe13-4534-b7fc-d479bcd2a427"
	 xmlns="http://www.w3.org/2000/svg" xmlns:xlink="http://www.w3.org/1999/xlink" x="0px" y="0px" viewBox="0 0 1124.9 625.1"
	 style="enable-background:new 0 0 1124.9 625.1;" xml:space="preserve">
<style type="text/css">
	.st0{opacity:0.1;fill:#D64A56;enable-background:new    ;}
	.st1{fill:#3F3D56;}
	.st2{fill:#D64A56;}
	.st3{fill:#35323E;}
	.st4{fill:#504F60;}
	.st5{fill:#A1616A;}
	.st6{opacity:0.1;enable-background:new    ;}
	.st7{fill:#464353;}
	.st8{opacity:4.000000e-02;enable-background:new    ;}
	.st9{fill:#FFFFFF;}
	.st10{opacity:0.1;}
	.st11{fill:#FBBEBE;}
	.st12{opacity:5.000000e-02;enable-background:new    ;}
	.st13{fill:#F86D70;}
	.st14{opacity:7.000000e-02;enable-background:new    ;}
</style>
<path class="st0" d="M943.1,364.9c0,0.5,0,0.9,0,1.4c-0.1,8.1-0.6,16.2-1.4,24.3c0,0,0,0.1,0,0.1c-0.1,0.7-0.1,1.3-0.2,2
	c-0.1,1.1-0.3,2.3-0.4,3.4c-1.8,13.8-4.8,27.4-8.9,40.7l0,0c-5.5,18-13.3,35.1-23.2,51.1c-3,4.9-6.3,9.6-9.7,14.2l0,0
	c-1.8,2.4-3.7,4.8-5.6,7.1c-1.4,1.6-2.7,3.2-4.1,4.8l-0.9,1c-7.4,8.1-15.4,15.7-23.9,22.7c-13.9,11.5-28.8,21.5-44,30.8
	c-0.9,0.5-1.7,1.1-2.6,1.5c-0.1,0-0.1,0.1-0.2,0.1c-20.6,12.5-42,23.7-64.1,32.7c-24.1,9.9-49,17.1-74.6,20.2
	c-35.6,4.4-71.7,0.8-107.1-5.3c-29.5-5.1-58.5-12-87.1-20.8l-4.7-1.5c-2.4-0.8-4.9-1.6-7.3-2.4c-14.7-4.9-29.2-10.3-43.6-16.2
	c-36-14.8-70.5-33.3-102.8-55.2c-4.1-2.8-8.2-5.6-12.2-8.5c-5.6-4-11.1-8.2-16.5-12.4l-3.4-2.6c-14.3-11.2-27.6-23.4-39.9-36.7
	c-16.6-18.1-30.8-38.4-40.1-61.7c-1.5-3.7-2.8-7.4-4-11.2l-0.1-0.4c-0.6-1.9-1.2-3.9-1.7-5.9c-0.8-2.9-1.4-5.8-2-8.7
	c-0.1-0.6-0.2-1.1-0.3-1.7c-1.8-9.9-2.7-19.9-2.4-30c0.2-8.8,1.2-17.6,3.1-26.2l0,0c1.9-8.9,4.8-17.6,8.7-25.9l0,0
	c3.5-7.4,8-14.4,13.4-20.6l0,0c3.8-4.4,8-8.3,12.6-11.8c8.4-6.2,17.6-10.6,27.3-14l0,0c4.5-1.6,9.1-3,13.7-4.4
	c3.3-0.9,6.5-1.8,9.8-2.7l9.6-2.6c6.2-1.7,12.3-3.4,18.4-5.3c16.6-5.1,32.8-11.2,47.8-20.3c2.4-1.4,4.8-3,7.2-4.7
	c3.1-2.1,6.1-4.5,9.1-7l0,0c3-2.5,6-5.3,8.8-8.1c0.4-0.4,0.9-0.9,1.3-1.3c2.3-2.4,4.6-5,6.6-7.6c1-1.3,2-2.6,2.9-4
	c1.3-1.9,2.5-3.7,3.7-5.7l0,0c5.7-9.7,9.3-20.4,8.8-31.7c-0.1-1.9-0.2-3.7-0.5-5.6c-1-6.8-2-13.5-2.7-20c-3-26.9-1.7-51.3,18.5-74.2
	c25.1-28.5,64.5-34.3,100.3-32C635.9,13,730.3,72.2,813.2,142.6c7.2,6.1,14.3,12.3,21.2,18.5c1.8,1.6,3.5,3.2,5.3,4.7
	c13.1,11.8,26,24,38,37.2c1,1.1,1.9,2.1,2.9,3.2c0.6,0.7,1.2,1.3,1.8,2c3.7,4.2,7.4,8.6,10.9,13c9.4,11.8,17.8,24.4,24.9,37.8
	c10.9,20.9,18.3,43.5,21.9,66.8l0,0c1.3,8.5,2.2,17,2.6,25.6c0.1,2.5,0.2,5,0.3,7.6c0,0.8,0,1.6,0,2.4
	C943.1,362.5,943.1,363.7,943.1,364.9z"/>
<polygon class="st1" points="507.5,351.9 495.2,571.5 507.5,571.6 517.5,348.8 "/>
<rect x="309.4" y="463.2" class="st2" width="152.6" height="33.1"/>
<path class="st1" d="M472.1,492.4v20.8H314.4c-5.6-4-11.1-8.2-16.5-12.4v-8.4H472.1z"/>
<path class="st3" d="M503.5,445.1c-0.4,2-1,4-1.6,5.9c-1.7,5.7-3.9,11.3-4.3,17.2c-0.5,7.8,1.5,16.9-3.9,22.5
	c-1.4,1.5-3.2,2.6-4.4,4.1c-0.2,0.2-0.4,0.5-0.5,0.8c-1.1,1.8-1.2,4.1-1.3,6.2c0,4.5,0.3,8.9,0.9,13.4c1.8,15.3,5.4,30.6,0.7,45
	c-0.9,2.5-1.9,4.9-3,7.3c-2.3,5.1-4.8,10.1-5.6,15.6c-0.6,4.1-0.4,8.3-0.4,12.4c-2.4-0.8-4.9-1.6-7.3-2.4
	c-14.7-4.9-29.2-10.3-43.6-16.2c0-0.2,0.1-0.4,0.1-0.6c1.1-6.9-0.4-13.9-2.2-20.6c-3.9-14.2-9.3-28.2-12.5-42.5
	c-1.3-5.6-2.2-11.2-2.6-17c-0.1-1.3-0.1-2.6-0.2-3.9c0-1.7,0-3.4,0.1-5.1c0.2-3.4,0.3-7.4-2.4-9.5c-1.5-1.1-3.5-1.3-5.2-2
	c-3.3-1.3-5.6-4.3-8.3-6.7c-2.6-2.5-6.2-3.6-9.7-2.9c-17.3,4-30.1,18.7-46.2,26.1c-0.6,0.3-1.2,0.6-1.9,0.8c-2.1,0.8-4.1,1.8-5.9,3
	c-1.3,0.9-2.2,2.2-2.7,3.7c-0.4,1.6-0.1,3.3,0.1,5c0.3,2.7,0.2,5.5-0.3,8.2c-0.2,1-0.5,2.1-0.8,3.1c-0.6,1.8-1.4,3.6-2.2,5.4
	c-4.1-2.8-8.2-5.6-12.2-8.5c-5.6-4-11.1-8.2-16.5-12.4l-3.3-2.7c-14.3-11.2-27.6-23.4-39.9-36.7c1.6-4.6,4-8.9,5.2-13.7
	c0.6-2.7,0.9-5.6,1.8-8.2c1-2.7,2.5-5.3,4.3-7.6c6.6-9.1,14.6-17.2,23.7-23.7c9.6-6.8,20.6-12.3,29.2-20.1c3.5-3.1,6.5-6.6,8.9-10.6
	c0.1-0.2,0.3-0.5,0.4-0.8c0.7-1.4,1.1-2.9,1.4-4.4c0.6-3.5,0.5-7.2,0.8-10.6c10.5,1.8,21.1,2.1,31.7,1c12.3-1.4,24.3-4.8,36.6-6.1
	c0.9-0.1,1.9-0.2,2.8-0.3c3.9-0.3,7.9-0.4,11.8-0.3c3.3,0,6.6,0.1,9.9,0.3l36.4,1.2c4,0.1,8.1,0.3,11.9,1.8c4.5,1.7,8,5.2,10.9,9.1
	c0.4,0.5,0.7,1,1.1,1.5c2.4,3.4,4.2,7.2,5.6,11.1c0.1,0.4,0.3,0.8,0.4,1.2c0.3,1.1,0.6,2.2,0.9,3.2c0.2,0.9,0.4,1.7,0.6,2.6
	c0.8,4.3,1.3,8.6,2.7,12.8c0.1,0.3,0.2,0.6,0.3,0.9c1.6,4.5,4.3,8.6,6.3,12.9c1.5,3.1,2.6,6.4,3.3,9.8
	C505,431.2,505,438.3,503.5,445.1z"/>
<path class="st2" d="M392.9,169.2c-3.3-2.6-8-0.7-11.8,1c-3.2,1.4-6.5,2.6-9.8,3.6c-0.7,0.3-1.4,0.3-2.2,0.2
	c-1.5-0.4-2.2-2.2-3.3-3.3c-2-1.9-5.3-1.5-7.8-0.4c-2.6,1-5.1,2.5-7.9,2.3c-2.9-0.2-5.5-2.4-8.5-2.5c-5.2-0.1-9.6,6.3-14.6,4.6
	c-3-1-5.4-5-8.4-3.9c-2.3,0.9-2.5,4.1-3.9,6.2c-1.6,2.4-4.8,3.1-7.6,4.2c-8.6,3.4-14.3,13-13.2,22.2c0.6,5.1,3.1,9.7,4.7,14.6
	c4.8,14.1,3.2,30,9.3,43.6c0.8-0.7,1.2-1,2-1.7c-1.9,4-2.3,8.5-1,12.8c0.6,2.1,1.7,4.1,2.5,6.2c0.8,2.3,1.5,4.7,2,7.2l6.7,29.6
	c2.6,11.6,5.2,23.1,5.7,35c0.3,7.7-0.3,15.4-1.8,23c12.1-2,23.3-7.4,35.6-7.3c4.5,0,9,0.8,13.5,1.4c13.1,1.8,26.2,2.7,39.4,2.7
	c2.1,0.1,4.1-0.2,6-0.8c1.7-0.7,3.1-2,4.7-2.9c3.1-1.9,6.9-2.3,10.6-2.3c16.5-0.3,32.4,5.7,48.8,7.9c6.5-13.6,6.9-29.8,1.9-44
	c-1.5-4.2-3.5-8.3-4-12.8c-0.2-2.7-0.3-5.5-0.2-8.2c0-7-1.3-13.9-3.7-20.5c-1-2.6-2.1-5.2-2-7.9c0.1-2.7,1.4-5.3,2.8-7.7
	c2.7-4.9,5.4-9.9,9.2-14.1c3.9-4.3,8.8-7.6,13.6-10.8l11.9-8c-1.6-10.3-3.7-21.1-8.1-30.5c-4.4-9.5-10.9-18.1-19.7-23.7
	c-3-1.8-6.1-3.3-9.3-4.6c-4.5-1.9-9.2-3.6-14.1-3.9c-5.6-0.3-11,1.2-16.5,2.1C426.9,180.4,406.6,180.1,392.9,169.2z"/>
<path class="st1" d="M522.9,347.5l-5.7,7.1l-10.7,13.5l-12.3,15.6l-3.4,4.3h-6.7l-165.5,0.2L215,388.3h-4.6
	c-0.6-1.9-1.2-3.9-1.7-5.9c-0.8-2.9-1.4-5.8-2-8.7c-0.1-0.6-0.2-1.1-0.3-1.7l37.6-24.6l14.1-0.1l0,0l43.2-0.2l0,0l24.2-0.1h4.4h2.8
	l0,0l16.1-0.1l0,0l122.7-0.7l0,0l6.3,0l0,0h2.7l7.2,0l26.8-0.2l5.1-2l0.4,0.4L522.9,347.5z"/>
<path class="st4" d="M520.6,343.7l-0.6,0.8l-4.2,5l-8.7,10.2L488.9,381l-161-4.1l-121.4-3.1c-0.1-0.6-0.2-1.1-0.3-1.7
	c-1.8-9.9-2.7-19.9-2.4-30l13.5-6.9l3.1-1.6l24-12.3l21.1-10.8l54.9,7.1l12.2,1.6l5.5,0.7l8.1,1l0.7,0.1l126.3,16.4l14,1.8l8.2,1.1
	l25.3,3.3L520.6,343.7z"/>
<path class="st1" d="M494.4,380.7l-0.1,3l-0.8,17.1l-4.1,94l-0.9,20.3l-2.3,52.3l-1.3,29.5l-4.7-1.5c-2.4-0.8-4.9-1.6-7.3-2.4
	l11.3-205.1l0.2-4.3l5-1.5L494.4,380.7z"/>
<path class="st1" d="M215.4,380.4l-0.3,7.9l-0.5,11.6c-1.5-3.7-2.8-7.4-4-11.2l-0.1-0.4c-0.6-1.9-1.2-3.9-1.7-5.9L215.4,380.4z"/>
<ellipse class="st5" cx="416.9" cy="216.1" rx="35.5" ry="47.8"/>
<ellipse class="st6" cx="416.9" cy="216.1" rx="35.5" ry="47.8"/>
<circle class="st5" cx="421.9" cy="187.2" r="49.3"/>
<path class="st7" d="M422.9,111.1c-3,0.2-6,0.7-8.9,1.4c-7.8,1.9-14.5,6.1-21.1,10.2c-2.9,1.9-6,3.8-7.8,6.5
	c-3.3,4.9-2,11.1-3.9,16.6c-1,2.8-2.7,5.3-4.2,7.9c-4.1,7.1-6.2,14.9-8.3,22.7c-0.4,1.6-0.6,3.8,1.2,4.4c1,0.2,2.1,0.1,3-0.3
	c5.5-1.8,12.5-2.4,16.7,1.4c4.1,3.7,3.8,10.3,8.6,13.1c5.6,3.3,14.3-0.7,19.4,3.2c2.2,1.6,3,4.3,4.7,6.3c4.1,4.6,12.1,4.4,18.8,3.5
	c3.8-0.5,8.5-0.9,10.8,1.8c1.1,1.3,1.4,3,2.7,4.1c2.3,2.1,6.5,1,8.8-1.1c2.3-2.1,3.3-5,5.2-7.4c3.7-4.6,10.1-7.1,13.9-11.7
	c3.2-3.9,4.1-8.7,5-13.3l3.2-17.3c1.3-7,2.5-14.6-1.4-20.8c-1.4-2.2-3.4-4.1-4.6-6.4c-0.8-1.5-1.3-3.2-2.2-4.6c-1.1-1.5-2.4-2.9-4-4
	l-7.6-6.3c-2.6-2.3-5.4-4.3-8.3-6.2C451.6,108.3,435.3,110,422.9,111.1z"/>
<path class="st5" d="M260.4,238.2c-1.8,1.9-3.5,4-5.5,5.9c-1.7,1.5-3.5,3-5.4,4.3c-3,2.3-6,4.6-8.9,7c-3,2.4-5.7,5.1-8.1,8.1
	c-4.1,5.5-6.1,12.4-9.9,18.1c-3.4,5.1-8.2,9.1-11.7,14.1c-1.5,2.1-2.6,4.5-3.3,7c-0.5,2.4-0.7,4.9-0.7,7.4
	c-0.1,4.1-0.1,8.2,0.7,12.2s2.7,7.9,5.8,10.5c2.9,2.4,6.7,3.5,10.3,4.5c1.9,0.5,3.9,0.9,5.8,0.2c1.3-0.7,2.5-1.6,3.3-2.8l9.4-10.8
	c6.3-7.2,12.8-14.6,21.4-18.9c2.7-1.3,5.5-2.3,8.2-3.6c11.5-5.5,19.6-16.8,22.7-29.2c0.8-3,1.3-6.1,1.8-9.2l1.4-8.4
	c0.1-0.4,0.1-0.9,0-1.3c-0.2-0.5-0.6-0.9-1-1.2c-6.5-5.3-12.7-11.1-18.3-17.3c-1.3-1.5-2.6-3.5-4.1-4.7c-1.9-1.5-1.8-1.4-4.1,0
	C266.6,232.4,263.3,235.1,260.4,238.2z"/>
<path class="st1" d="M324.6,294.3c-0.3-0.7-1.2-1.1-1.9-0.7c-0.7,0.3-1.1,1.2-0.7,1.9c0,0,0,0.1,0.1,0.1l-0.8,0.4l23,47.1l4.2-2
	l-23-47.1L324.6,294.3z"/>
<path class="st8" d="M260.4,238.2c-1.8,1.9-3.5,4-5.5,5.9c-1.7,1.5-3.5,3-5.4,4.3c-3,2.3-6,4.6-8.9,7c-3,2.4-5.7,5.1-8.1,8.1
	c-4.1,5.5-6.1,12.4-9.9,18.1c-3.4,5.1-8.2,9.1-11.7,14.1c-1.5,2.1-2.6,4.5-3.3,7c-0.5,2.4-0.7,4.9-0.7,7.4
	c-0.1,4.1-0.1,8.2,0.7,12.2s2.7,7.9,5.8,10.5c2.9,2.4,6.7,3.5,10.3,4.5c1.9,0.5,3.9,0.9,5.8,0.2c1.3-0.7,2.5-1.6,3.3-2.8l9.4-10.8
	c6.3-7.2,12.8-14.6,21.4-18.9c2.7-1.3,5.5-2.3,8.2-3.6c11.5-5.5,19.6-16.8,22.7-29.2c0.8-3,1.3-6.1,1.8-9.2l1.4-8.4
	c0.1-0.4,0.1-0.9,0-1.3c-0.2-0.5-0.6-0.9-1-1.2c-6.5-5.3-12.7-11.1-18.3-17.3c-1.3-1.5-2.6-3.5-4.1-4.7c-1.9-1.5-1.8-1.4-4.1,0
	C266.6,232.4,263.3,235.1,260.4,238.2z"/>
<path class="st5" d="M526.2,325.1c-0.1,4.9-0.3,10-2.3,14.5c-0.9,1.9-2.2,3.9-4.3,4.5c-1.2,0.3-2.5,0.3-3.8,0.1
	c-15.1-1.3-30.4-0.1-45.1,3.6c3.9-7.9,1.7-17.3,2.8-26c0.3-2.4,0.8-4.7,1.1-7.1c0.8-8.5-2.9-16.7-4.5-25.1c-1.4-7.2-1.4-14.7,0-22
	c0.3-1.9,0.9-3.7,1.9-5.3c1.1-1.6,2.6-2.9,4.3-3.8c6.2-3.6,13.6-4,20.6-3.5c4.7,0.3,14.2-0.1,18.1,2.8c4.3,3.2,5.7,13.9,6.8,18.8
	c1.7,7.6,2.9,15.3,3.5,23C526.1,308.1,526.3,316.6,526.2,325.1z"/>
<polygon class="st9" points="250,342.1 277.8,360.6 402.7,356 320.2,342.1 "/>
<path class="st2" d="M286.6,195.1c-4.6,4-8.4,8.7-12.7,13C268,214,261.3,219,254.6,224c4.9,1.4,8.7,5.2,10,10.1
	c0.3,1.1,0.4,2.3,0.8,3.4c0.8,2.6,2.5,4.9,4.3,6.9c7.8,8.8,18.8,15.3,23.4,26.2c0.2,0.5,0.5,1,0.9,1.3c0.4,0.2,0.8,0.2,1.2,0.1
	c4.2-0.4,7.4-3.8,10-7.1c5.6-6.9,10.4-14.6,13.1-23.1c2.7-8.5,3.2-17.8,0.2-26.2c-1.5-4.2-3.8-8-6.1-11.8c-2-3.3-4-6.6-6-10
	c-1-1.7-2.4-5.3-4.4-6.2C297.6,185.9,289.5,192.3,286.6,195.1z"/>
<path class="st2" d="M513.7,245l6.6,15.4c-14.5-5.1-30.5-2.8-43.1,6c-3.7,2.7-7.2,6-8.9,10.3c-1.7,0.3-3.4-0.4-4.5-1.7
	c-1-1.4-1.6-3-1.6-4.7c-0.6-5.9,1.6-11.7,3.9-17.3c1-2.6,2.1-5.2,3.9-7.3s4.3-3.5,6.7-4.8c7.8-4.3,15.9-7.9,24.3-10.7
	c3.5-1.1,7.3-1.1,9.3,2.2C512.6,236.2,511.9,240.7,513.7,245z"/>
<path class="st5" d="M250.2,291.2c1.6,1.3,3.1,2.9,4.8,4.1c1.8,1.2,3.7,2.3,5.7,3.2l7.6,3.7c2.4,1.2,4.8,2.2,7.4,3
	c3.3,0.9,6.7,1,9.9,1.8c4.1,1,7.9,3.1,12,4.4c4.1,1.2,8.8,1.4,12.2-1.1c2.1-1.6,3.7-4.2,6.4-4.6c1.7-0.2,3.3,0.6,4.8,1.4l19.8,10.4
	c2.7,1.4,5.5,3,6.9,5.6c1.4,2.7,0.5,6.7-2.5,7.4c-1,0.1-2.1,0.2-3.1,0.2c-1,0.1-2.1,0.7-2.3,1.7c0,0.6,0.2,1.3,0.5,1.8
	c0.9,2,1.1,4.5,0.1,6.4s-3.6,3.2-5.6,2.3c0.3,3-2.9,5.1-5.8,5.9c-7.3,2-15,0.8-22.5-0.5c-2.9-0.5-5.9-1-8.6-2.3
	c-1.3-0.6-2.5-1.4-3.8-2c-3.6-1.6-7.6-1.4-11.5-1.3c-18,0.3-35.8-3-53.5-6.3c-3.3-0.6-6.6-1.3-9.4-3.1c-5.4-3.5-7.4-10.7-6.5-17.1
	c0.9-6.4,4.1-12.2,7.3-17.8l4.1-7.3c0.5-1.1,1.3-2.1,2.2-2.9C233,283.5,245,287,250.2,291.2z"/>
<path class="st8" d="M250.2,291.2c1.6,1.3,3.1,2.9,4.8,4.1c1.8,1.2,3.7,2.3,5.7,3.2l7.6,3.7c2.4,1.2,4.8,2.2,7.4,3
	c3.3,0.9,6.7,1,9.9,1.8c4.1,1,7.9,3.1,12,4.4c4.1,1.2,8.8,1.4,12.2-1.1c2.1-1.6,3.7-4.2,6.4-4.6c1.7-0.2,3.3,0.6,4.8,1.4l19.8,10.4
	c2.7,1.4,5.5,3,6.9,5.6c1.4,2.7,0.5,6.7-2.5,7.4c-1,0.1-2.1,0.2-3.1,0.2c-1,0.1-2.1,0.7-2.3,1.7c0,0.6,0.2,1.3,0.5,1.8
	c0.9,2,1.1,4.5,0.1,6.4s-3.6,3.2-5.6,2.3c0.3,3-2.9,5.1-5.8,5.9c-7.3,2-15,0.8-22.5-0.5c-2.9-0.5-5.9-1-8.6-2.3
	c-1.3-0.6-2.5-1.4-3.8-2c-3.6-1.6-7.6-1.4-11.5-1.3c-18,0.3-35.8-3-53.5-6.3c-3.3-0.6-6.6-1.3-9.4-3.1c-5.4-3.5-7.4-10.7-6.5-17.1
	c0.9-6.4,4.1-12.2,7.3-17.8l4.1-7.3c0.5-1.1,1.3-2.1,2.2-2.9C233,283.5,245,287,250.2,291.2z"/>
<path class="st5" d="M485.5,304.5c-4,1.9-8.6,2.1-12.8,3.5s-7.8,4.1-11.6,6.2c-10,5.6-21.6,7.7-32.9,9.7c-6.9,1.2-13.9,2.5-20.8,2.2
	c-9.4-0.4-18.4-3.5-27.5-5.9c-9.1-2.4-18.8-3.9-27.8-1.3c-9.5,2.9-17.1,10.2-20.4,19.6c-1.9,5.5-2.2,11.5-1.8,17.4
	c1.9,1.4,4.5-0.5,5.6-2.7s1.6-4.7,3.6-6c3.5,1.2,4.3,5.8,7.2,8.1c1.8,1.4,4.2,1.8,6.5,2.1l11.7,1.7c2.8,0.4,6.1,0.7,8.1-1.3
	c1-1,1.5-2.3,2.5-3.3c1.9-2.1,5-2.4,7.8-2.1c8.7,0.9,16.8,6.5,25.4,5.1c3-0.5,5.7-1.7,8.5-2.7c16.7-5.9,35.3-2.3,52.7-5.7
	c6.6-1.3,13-3.6,19.3-6c3.4-1.3,6.9-2.7,9.8-4.9c5.6-4.3,8.7-11.3,8-18.4c-0.6-5.3-3.3-10.2-7.4-13.6c-1.4-1.2-3.1-3.4-4.8-4.1
	C491.2,300.9,488.2,303.3,485.5,304.5z"/>
<g class="st10">
	<path d="M463,206.1c-1.3-1.1-1.6-2.9-2.7-4.1c-2.3-2.7-7-2.3-10.8-1.8c-6.6,0.9-14.6,1.1-18.8-3.5c-1.8-2-2.6-4.6-4.7-6.3
		c-5.1-3.9-13.8,0.1-19.4-3.2c-4.9-2.8-4.6-9.4-8.6-13.1c-4.1-3.7-11.1-3.2-16.7-1.4c-0.9,0.4-2,0.5-3,0.3c-1.7-0.6-1.6-2.8-1.2-4.4
		c2.1-7.7,4.2-15.6,8.3-22.7c1.5-2.6,3.2-5.1,4.2-7.9c1.7-4.9,0.8-10.4,3-15c-2.4,1.5-4.6,3.2-6.1,5.4c-3.3,4.9-2,11.1-3.9,16.6
		c-1,2.8-2.7,5.3-4.2,7.9c-4.1,7.1-6.2,14.9-8.3,22.7c-0.4,1.6-0.6,3.8,1.2,4.4c1,0.2,2.1,0.1,3-0.3c5.5-1.8,12.5-2.4,16.7,1.4
		c4.1,3.7,3.8,10.3,8.6,13.1c5.6,3.3,14.3-0.7,19.4,3.2c2.2,1.6,3,4.3,4.7,6.3c4.1,4.6,12.1,4.4,18.8,3.5c3.8-0.5,8.5-0.9,10.8,1.8
		c1.1,1.3,1.4,3,2.7,4.1c2.3,2.1,6.5,1,8.8-1.1c1.4-1.5,2.7-3.2,3.7-5C466.6,207.4,464.4,207.3,463,206.1z"/>
	<path d="M477,197.6c-0.5,0.6-1,1.3-1.4,2c3-2.1,6.1-4.1,8.3-6.8c0.6-0.7,1.1-1.4,1.5-2.2C482.4,192.8,479.2,194.8,477,197.6z"/>
</g>
<polygon class="st1" points="632.8,350.2 635.1,571.5 645.9,569.9 643.6,350.2 "/>
<polygon class="st1" points="697.5,390.3 699.8,611.5 710.6,610 708.3,390.3 "/>
<path class="st1" d="M899.1,502.1L899.1,502.1l0-4.2v-2.5l-0.4-38.9l-0.6-60.8l-0.1-5.2h-10.8l0.1,5.1l0.3,32.6l0.1,14.1l0,0
	l0.1,11.4l0.2,19.7l0.1,11.6l0,0v1.2l0.2,15.3l0.1,13.5l0.9-1c1.4-1.6,2.8-3.2,4.1-4.8L899.1,502.1z"/>
<polygon class="st2" points="685.6,426.2 679.4,435.4 685.6,477.4 738,491.7 822.8,491.7 873.7,494.8 897.9,478.2 893.7,449.7 
	875.2,426.2 "/>
<path class="st1" d="M679.4,435.4l-3.1,25.6c0,0-16.2,50.2,114.1,47.1s107.9-13.3,107.9-13.3l-0.8-29.7c0,0,4.5,14.1-61.7,12.2
	s-128-8.1-128-8.1S684.8,473.3,679.4,435.4z"/>
<path class="st11" d="M788,205.8c-7.4,3.4-13.1,9.9-16.8,17.2c-3.8,7.3-5.9,15.2-8,23.1c-2.2,8.3-4.4,16.7-5.6,25.3
	c-2,15.2-0.5,31.2,6.5,44.8c7,13.7,19.9,24.7,35,27.3c5.8,1,11.8,0.8,17.7,0.2c10.7-1.1,21.2-3.4,31.3-6.9
	c10.6-3.6,21.6-9.1,26.3-19.3c2.7-5.9,3-12.6,2.8-19.1c-0.4-17.7-3-35.3-7.9-52.3c-1.4-4.9-3.1-9.9-6.1-14.1s-7.2-7.2-11.4-10
	C833.8,210,810.1,195.8,788,205.8z"/>
<path class="st12" d="M788,205.8c-7.4,3.4-13.1,9.9-16.8,17.2c-3.8,7.3-5.9,15.2-8,23.1c-2.2,8.3-4.4,16.7-5.6,25.3
	c-2,15.2-0.5,31.2,6.5,44.8c7,13.7,19.9,24.7,35,27.3c5.8,1,11.8,0.8,17.7,0.2c10.7-1.1,21.2-3.4,31.3-6.9
	c10.6-3.6,21.6-9.1,26.3-19.3c2.7-5.9,3-12.6,2.8-19.1c-0.4-17.7-3-35.3-7.9-52.3c-1.4-4.9-3.1-9.9-6.1-14.1s-7.2-7.2-11.4-10
	C833.8,210,810.1,195.8,788,205.8z"/>
<path class="st2" d="M779.6,302.9c2.2,3,4.8,5.6,7.7,7.7c7.3,5.1,16.8,5.8,25.7,6c7.2,0.2,15.4-0.2,19.8-5.8c2-2.5,2.9-5.7,3.7-8.8
	c5-19.2,8.6-38.7,10.7-58.4l20.4,0.1c8.8,37.8,8.1,77.1,7.3,116l-1.1,56.6l-13.2-1.4c-31.2-3.3-62.5-6.6-93.9-7.2
	c-18.4-0.3-36.8,0.3-55.1,1.8l28.6-85.2c3.7-11.1,7.5-22.3,8.3-33.9c1.3-16.9-3.5-34.7,3.1-50.3c0.5-1.3,1.2-2.6,2.4-3.2
	s2.7-0.5,4.1-0.3c2.6,0.3,10.5,0,12.4,1.7c2.8,2.4,0.9,2.8,0,6.6c-1.7,6.9-3.4,13.4-3.4,20.6C767.3,278.7,771.3,292.5,779.6,302.9z"
	/>
<path class="st7" d="M899.1,502.1L899.1,502.1c3.4-4.6,6.7-9.3,9.7-14.2c-1.5-3.3-3.2-6.5-4.6-9.9c-2.1-5.2-3.3-10.6-4.4-16.1
	c-0.4-1.9-0.8-3.7-1.2-5.6c-4.3-20.1-8.4-40.5-9.2-60.9c-0.1-1.7-0.1-3.4-0.1-5.1c0-0.2,0-0.5,0-0.8c0-1.9,0-3.7,0-5.6
	c0.1-4.6,0.4-9.3,0.9-13.9c0.1-0.9,0.2-1.8,0.3-2.7c0-0.2,0-0.4,0.1-0.6l52.4-1.9l0,0l4.4-0.2c3-0.1,6.2-0.3,8.7-2
	c4.2-2.9,4.7-8.8,4.6-13.9c-0.3-12.8-1.7-25.6-4.3-38.2c-2-9.5-4.8-19.1-11.2-26.4c-5.2-6-12.8-10.3-15.5-17.7
	c-1-2.8-1.3-5.8-2.6-8.4c-1.3-2.6-3.5-4.6-5.5-6.6c-7.2-7.1-13.2-15.4-17.7-24.5c-3.1-6.3-6.5-13.2-10.6-17.6
	c-0.2-0.2-0.4-0.4-0.6-0.6c-3.5-3.4-7.4-4.9-12.1-2.6c-0.8,0.4-1.7,0.9-2.4,1.5l0,0c-1.7,1.3-3.2,2.7-4.6,4.3
	c-4.8,5.5-8.9,11.4-12.4,17.7c-2.5,4.5-4.6,9.1-6.4,13.9c-1.4,3.8-2.5,7.6-3.4,11.6c-0.7,2.9-1.2,5.8-1.6,8.8
	c-1.5,11.1-1.5,22.4-1.3,33.6c0.2,10.3,0.7,20.6,1.6,30.9c0.2,2.5,0.5,5,0.8,7.4c0.6,4.9,1.3,9.8,2.1,14.6c0.3,1.9,0.7,3.7,1,5.6
	c0.1,0.5,0.2,1,0.3,1.5l0,0.2c1,4.3,1.8,8.7,2.4,13c0.1,0.5,0.1,1.1,0.1,1.6c0.1,2.5,0.1,5-0.1,7.6c-0.2,3-0.5,5.9-0.6,8.9
	c0,0.5,0,1-0.1,1.5c0,1.5,0,3,0,4.5c0.2,3.6,0.6,7.2,1.3,10.7c1.3,6.6,3.5,12.9,6.7,18.8c0.3,0.6,0.6,1.1,0.9,1.6
	c3.9,7,8.8,13.4,12.5,20.5c3.1,6.4,5.4,13.2,6.9,20.2c0.5,2.3,1,4.6,1.5,6.9c0.7,3.7,1.4,7.4,2,11.2c0.1,0.4,0.1,0.8,0.2,1.1
	c0.9,4.9,1.8,9.9,3,14.7c0.7,2.8,1.5,5.6,2.4,8.3L899.1,502.1z"/>
<path class="st13" d="M888.8,441.3c0,0.7,0,1.4-0.1,2.1c-0.1,3.4-0.4,6.8-0.9,10.1c-0.6,4.6-1.8,9.1-3.3,13.4c-1,2.9-2.4,5.6-4,8.2
	c-1.4,2.3-3.1,4.4-4.9,6.4c-4.6,4.8-11.3,6.3-17.7,8.4c-3,0.9-5.8,2-8.5,3.5c-0.5,0.3-1,0.6-1.4,0.9l-8.1,5.3
	c-2.5,1.7-5.1,3.4-6.8,5.8c-0.3,0.4-0.5,0.9-0.8,1.3c-1.1,2.3-1.9,4.7-2.4,7.1c-4.2,17.5-8.4,35-11.3,52.7c-0.2,1.2-0.4,2.4-0.6,3.5
	l-0.1,0.4c0-0.1-0.1-0.2-0.1-0.3c-20.6,12.5-42,23.7-64.1,32.7l-4.8-40.1c-0.5-3.3-0.7-6.6-0.5-9.9c0.5-5.2,2.6-10.1,3.1-15.3
	c0.5-5.1-0.4-10.2-2.8-14.7c-0.9-1.8-2.1-3.5-2.3-5.5c-0.2-2,0.9-3.8,2.9-4c1.5-1.7,1.7-4,1.2-6.4c-0.2-1.2-0.6-2.4-1.1-3.5
	c-1.3-3.2-3-6.7-1.8-10c0.3-0.6,0.4-1.3,0.4-1.9c0,0,0-0.1,0-0.1c-0.3-0.9-1.3-1.2-1.8-2c-1-1.4,0-3.2,0.6-4.8
	c0.6-1.7,0.9-3.5,1-5.2c0.1-1,0.1-2,0.3-3c0.2-1.3,0.4-2.7,0.7-4c1.9-7.4,6.4-13.8,12.7-18.1c3-2,6.3-3.5,9.4-5.4
	c3.1-2.1,6.1-4.4,9-6.9c6.8-5.7,13.8-11,21.2-16c7.9-5.4,16-10.3,24.5-14.8c1.8-1,3.6-1.9,5.4-2.8c2-1,3.9-2,5.9-2.9
	c6.4-3,13.6-1.9,20.6,0.1c2.9,0.8,5.9,1.8,8.7,2.8c2.7,0.9,5.4,2.1,7.9,3.5c6.2,3.7,11.4,9.1,13.5,15.9c0,0,0,0.1,0,0.1
	C888.9,432.2,889,436.8,888.8,441.3z"/>
<path class="st6" d="M888.8,441.3c0,0.7,0,1.4-0.1,2.1c-0.1,3.4-0.4,6.8-0.9,10.1c-0.6,4.6-1.8,9.1-3.3,13.4c-1,2.9-2.4,5.6-4,8.2
	c-1.4,2.3-3.1,4.4-4.9,6.4c-4.6,4.8-11.3,6.3-17.7,8.4c-3,0.9-5.8,2-8.5,3.5c-0.5,0.3-1,0.6-1.4,0.9l-8.1,5.3
	c-2.5,1.7-5.1,3.4-6.8,5.8c-0.3,0.4-0.5,0.9-0.8,1.3c-1.1,2.3-1.9,4.7-2.4,7.1c-4.2,17.5-8.4,35-11.3,52.7c-0.2,1.2-0.4,2.4-0.6,3.5
	l-0.1,0.4c0-0.1-0.1-0.2-0.1-0.3c-20.6,12.5-42,23.7-64.1,32.7l-4.8-40.1c-0.5-3.3-0.7-6.6-0.5-9.9c0.5-5.2,2.6-10.1,3.1-15.3
	c0.5-5.1-0.4-10.2-2.8-14.7c-0.9-1.8-2.1-3.5-2.3-5.5c-0.2-2,0.9-3.8,2.9-4c1.5-1.7,1.7-4,1.2-6.4c-0.2-1.2-0.6-2.4-1.1-3.5
	c-1.3-3.2-3-6.7-1.8-10c0.3-0.6,0.4-1.3,0.4-1.9c0,0,0-0.1,0-0.1c-0.3-0.9-1.3-1.2-1.8-2c-1-1.4,0-3.2,0.6-4.8
	c0.6-1.7,0.9-3.5,1-5.2c0.1-1,0.1-2,0.3-3c0.2-1.3,0.4-2.7,0.7-4c1.9-7.4,6.4-13.8,12.7-18.1c3-2,6.3-3.5,9.4-5.4
	c3.1-2.1,6.1-4.4,9-6.9c6.8-5.7,13.8-11,21.2-16c7.9-5.4,16-10.3,24.5-14.8c1.8-1,3.6-1.9,5.4-2.8c2-1,3.9-2,5.9-2.9
	c6.4-3,13.6-1.9,20.6,0.1c2.9,0.8,5.9,1.8,8.7,2.8c2.7,0.9,5.4,2.1,7.9,3.5c6.2,3.7,11.4,9.1,13.5,15.9c0,0,0,0.1,0,0.1
	C888.9,432.2,889,436.8,888.8,441.3z"/>
<path class="st1" d="M815.6,313.6c-0.3-0.7-1.2-1.1-1.9-0.7c-0.7,0.3-1.1,1.2-0.7,1.9c0,0,0,0.1,0.1,0.1l-0.8,0.4l23,47.1l4.2-2
	l-23-47.1L815.6,313.6z"/>
<circle class="st11" cx="844.4" cy="214.9" r="49.3"/>
<path class="st7" d="M909.5,184.4c-0.2-3.9-0.8-7.8-1.7-11.6c-2.9-12.5-8.2-24.7-17.3-33.7c-0.6-2.2-1.2-4.3-2-6.5
	c0-0.1,0-0.1-0.1-0.2c-2.7-7.5-6.7-14.4-11.6-20.6c-2.9-3.6-6.6-7.1-11.2-7.3c-1.3,0-2.7,0.2-3.9-0.4c-0.9-0.6-1.6-1.3-2.2-2.2
	c-4.7-5.9-12.2-8.7-19.5-7.3l-0.5,0.1c-0.3,0.1-0.5,0.1-0.8,0.2c-0.2,0.1-0.6,0.2-1,0.3c0.4,0.6,0.7,1.2,1,1.8
	c0.9,1.6,1.8,3.3,2.5,5c0.6,1.4,1.2,2.9,1.8,4.3c-7.9,0.9-14.3,6.5-20.2,11.8l-13.8,12.5c0,0,0,0-0.1,0.1l-0.4,0.4
	c-0.1,0.1-0.2,0.2-0.3,0.3c0,0-0.1,0.1-0.1,0.1c-0.1,0.1-0.2,0.3-0.3,0.4c-0.2,0.2-0.4,0.5-0.5,0.8c-0.1,0.1-0.1,0.2-0.2,0.4
	c0,0,0,0.1-0.1,0.1c-0.1,0.1-0.1,0.2-0.1,0.3c0,0,0,0,0,0c0,0.1,0,0.1-0.1,0.2c-0.2,0.5-0.1,1.1,0.1,1.6l9.1,0.1h1.1
	c0,1.2,0.1,2.4,0.1,3.7c-1.4,1.1-2.8,2.2-4.2,3.5c-1.4,1.3-2.8,2.8-4.1,4.3c-8.2,9.9-12.5,22.8-13,35.7c0,0.4,0,0.8,0,1.2
	c0,1.2,0,2.4,0,3.5c0,0.8,0.1,1.5,0.1,2.3c0,1,0.3,2,0.8,2.9c0.1,0.1,0.1,0.2,0.2,0.3c0.5,0.5,1,0.9,1.6,1.2l0.7,0.3l0,0
	c0.3,0.2,0.6,0.3,1,0.5c2.9,1.6,4.6,4.8,7.3,6.8c0.2,0.1,0.3,0.2,0.5,0.3l0.3,0.2l0.2,0.1l0.3,0.2c0.2,0.1,0.4,0.2,0.6,0.3l0,0l0,0
	l0.4,0.2h0.1l0,0c0.3,0.1,0.6,0.3,0.9,0.4l0.4,0.2l0.1,0c0.1,0,0.3,0.1,0.4,0.1c0.3,0.1,0.5,0.1,0.8,0.2l0.8,0.2
	c0.3,0.1,0.6,0.1,0.9,0.1l0.5,0.1l0.5,0c0.7,0.1,1.5,0.1,2.2,0.1l0,0c2.3,0,4.7-0.2,7-0.5l19.7-2.3c4.5-0.5,9-1,13.4-0.1
	c3.7,0.8,7.2,2.5,10.8,3.8c0.8,0.3,1.6,0.5,2.5,0.8c0.3,0.1,0.6,0.2,0.9,0.3l0.4,0.1l1,0.2c0.4,0.1,0.7,0.2,1.1,0.2
	c0.5,0.1,1,0.2,1.5,0.3c0.3,0.1,0.7,0.1,1,0.2h0.1l1,0.2h0.2l0,0l0.7,0.1c0.4,0.1,0.7,0.1,1.1,0.1c0.8,0.1,1.6,0.2,2.4,0.3
	c1.3,0.1,2.6,0.2,3.9,0.3l1.3,0.1l1.3,0.1l3.9,0.2h0.2h0.5c1.6,0.1,3.2,0,4.8-0.2c0.3-0.1,0.5-0.1,0.8-0.2c0.3-0.1,0.5-0.2,0.8-0.2
	c2.9-1.1,5-3.7,6.5-6.4c0.3-0.6,0.6-1.2,0.9-1.7c0.3-0.6,0.5-1.2,0.7-1.8c0.3-0.8,0.5-1.5,0.7-2.3c0.1-0.2,0.1-0.4,0.2-0.6
	c0-0.2,0.2-0.6,0.2-1c0.2-0.9,0.3-1.8,0.4-2.7c0-0.3,0.1-0.6,0.1-0.9c0.1-0.8,0.1-1.5,0.2-2.2c0-0.6,0-1.1,0-1.7
	C909.6,186,909.5,185.2,909.5,184.4z M889.7,138.4c-0.6-0.6-1.3-1.1-1.9-1.7C888.5,137.1,889.2,137.7,889.7,138.4L889.7,138.4z"/>
<path class="st7" d="M749.7,212.2c-5.8-0.7-11.6-3.3-17.3-2c-3.6,0.8-6.7,3-9.5,5.3c-10.7,8.6-19.7,18.9-26.8,30.6
	c-1.2,1.8-2,3.7-2.5,5.8c-0.4,2.4,0.3,4.8,1.1,7.2c5.3,15.6,16.6,28.6,21.7,44.2c5.4,16.4,3.5,34.4-0.5,51.2
	c-4.9,20.8-12.9,40.7-23.8,59.1c-1.5,2.7-3.3,5.3-5.5,7.5c-2.8,2.7-6.6,4.6-8.2,8.2c-0.8,1.5-1,3.3-1.5,4.9
	c-1.5,4.6-5.3,8.6-5.6,13.5c-0.3,3.7,1.5,7.2,2.6,10.8c1.8,6.1,1.6,12.6-0.5,18.6c-3.9,10.7-14.1,20.5-11.2,31.5
	c6.6-1.9,14-4.4,17.1-10.5c1.1-2.2,1.6-4.8,3.5-6.4c3.7-3.2,10-0.3,14-3.2c3-2.2,3.1-6.7,1.8-10.2s-3.6-6.5-4.6-10.1
	c-1.8-6.4,1.1-13.2,0.5-19.9c-0.2-3.1-1.2-6-1.3-9.1c-0.1-6,3.2-11.6,7.6-15.6c4.4-4,9.8-6.7,15.1-9.4l20.2-10
	c7.3-3.6,15.3-8,17.7-15.8c0.9-2.9,0.9-6,1-9.1c0.7-46.6,12.4-92.4,24-137.5c1.8-7,3.6-14,6.3-20.8c2.7-6.7,7.9-12.1,10.6-18.4
	C780,200.8,765.8,214.2,749.7,212.2z"/>
<path class="st13" d="M860.9,504.9c1.8,10.8,2.9,21.8,3.7,32.8c-13.9,11.5-28.8,21.5-44,30.8c-0.9,0.5-1.7,1.1-2.6,1.5l-0.1,0.4
	c0-0.1-0.1-0.2-0.1-0.3c-1.2-2.5-3.2-4.6-5.8-5.7c-5.7-11.9-11.4-23.9-17.1-35.8c-3.1-6.5-6.2-13-7.7-19.9c0-0.1-0.1-0.3-0.1-0.4
	c-1.2-5.4-1.4-11-2.2-16.5c-0.4-3.1-1.1-6.2-2.1-9.2c-0.9-2.7-2.2-5.2-3.3-7.8c-1.4-3.2-2.6-6.5-2.6-9.9c0-1.1,0.1-2.3-0.5-3.2
	c-0.6-0.8-1.3-1.5-2.1-2c-2.1-1.8-3-4.6-2.6-7.3c-4.6,0.2-7.2,5.2-9.1,9.4c-1.7,4.1-3.9,8-6.6,11.6c-2,2.5-4.5,4.6-7.3,6.1
	c-0.3,0.1-0.5,0.2-0.8,0.4c-6.4,2.8-14,1.8-20.9,0.6c-6.1-1.1-12.4-2.5-17.3-6.3l-0.5-0.4c-1.5-1.2-2.7-2.6-3.9-4.1
	c-4.1-5.6-5.9-13-6.9-20c-0.1-0.7-0.2-1.3-0.3-2c-0.7-5-0.9-10-0.6-15c0.1-1.2,0.2-2.5,0.4-3.7c0.1-0.8,0.2-1.6,0.4-2.4
	c0,0,0,0,0-0.1c0.2-1.3,0.4-2.6,0.6-3.9c0.8-4.4,1.5-8.9,3.9-12.6c1.5-2.3,3.4-4.4,5.7-6.1c0.8-0.7,1.7-1.3,2.6-1.9
	c1.4-1,2.8-1.9,4.3-2.8c3.7-2.2,7.6-4.1,11.6-5.6c1-0.4,1.9-0.7,2.9-1c3.8-1.3,7.8-1.7,11.8-0.9c3.5,0.5,7,0.7,10.5,0.6
	c9-0.2,18.1-1.9,27.2-3c12.5-1.5,26-1.7,36.9,4.6c0.5,0.3,1,0.6,1.5,0.9c5.4,3.5,9.7,8.5,13.3,14c0.8,1.2,1.4,2.4,2.1,3.6
	c1.5,2.8,2.9,5.6,4.1,8.6c0.7,1.4,1.1,3,1.1,4.6c0,0.3-0.1,0.6-0.1,0.9c-0.2,1.1-0.6,2.2-0.8,3.3c-0.5,4.2,3.1,7.7,4.4,11.7
	c0.9,2.6,0.8,5.4,1.3,8.1c0.7,3.9,2.6,7.3,4.3,10.8c2.7,5.6,5,11.3,6.9,17.2c1.3,4.1,2.5,8.3,3.5,12.5c0.3,1.4,0.6,2.7,0.9,4.1
	C859.6,497.5,860.3,501.2,860.9,504.9z"/>
<polygon class="st1" points="943.1,390.7 943.1,396.1 942.1,396.1 941,396.1 928.6,395.9 898,395.5 889.4,395.4 887.2,395.4 
	874.4,395.2 856.2,395 817.8,394.5 751,393.6 726.9,393.3 717.3,393.2 708.4,393.1 702.8,393 697.6,392.9 658.6,392.4 647.9,392.3 
	645.5,392.2 644,388.3 632.9,359.7 630.9,354.5 632.4,348.3 639.3,352.9 643.6,353.5 713.9,362.2 727.1,363.8 755.1,367.3 
	782.5,370.7 793.3,372.1 856.8,380 874.6,382.2 889.3,384 941.6,390.5 "/>
<polygon class="st4" points="632.4,348.3 646.3,384.5 943.1,390.7 943.1,351.4 "/>
<polygon class="st1" points="647.8,388.4 650.1,609.6 660.9,608.1 658.6,388.4 "/>
<path class="st1" d="M942.1,396.1H941c-1.8,13.8-4.8,27.4-8.9,40.7l-3.5-40.9l-0.1-1.7l13-1.5l0.4,0L942.1,396.1z"/>
<polygon class="st9" points="899.9,369.9 787,372.2 751.9,360.6 845.9,355.2 "/>
<path class="st11" d="M758.2,324.9c-1.2,0.5-2.3,1.2-3.1,2.2c-0.6,1.1-1,2.3-1.1,3.5l-1.9,11.3c-0.3,1-0.2,2.1,0.1,3.1
	c0.5,0.9,1.9,1.4,2.6,0.7c-0.1,2.2,0.1,4.6,1.4,6.4c1.3,1.8,4,2.8,5.8,1.5c1.1,1.8,3.4,2.3,5.2,1.2c0.2-0.1,0.3-0.2,0.5-0.4
	c-1.1,0.4-1.2,2-0.4,2.9c0.9,0.8,2,1.2,3.1,1.3c13.5,1.9,27.4,0.2,40-5c1.2-0.5-2-15.2-2.3-16.7c-0.8-3.6-1.2-7.9-4.2-10.3
	c-7.2-5.7-19.9-6.8-28.6-6.2C769.5,320.8,763.6,322.4,758.2,324.9z"/>
<path class="st6" d="M873.1,326.6c-27.9,0.5-56.3,1-83-7.4c2.5,9.9,2.4,20.2-0.5,30L920,360c5.5,0.5,28.4,3,33.8,1.7
	s-45.2-18-43.2-23.1c5.6-14.2,24.4-22.5,10.9-23.1C904.5,314.9,890.4,326.3,873.1,326.6z"/>
<path class="st7" d="M873.9,328.2c-27.9,0.5-56.3,1-83-7.4c2.5,9.9,2.4,20.2-0.5,30l130.4,10.8c5.5,0.5,28.4,3.1,33.8,1.7
	s4.1-7.9,6.2-13.1c5.6-14.2-24.9-32.6-38.5-33.1C905.2,316.4,891.1,327.9,873.9,328.2z"/>
<path class="st11" d="M829.6,330.3c1.2,0.5,2.3,1.2,3.1,2.2c0.6,1.1,1,2.3,1.2,3.5l1.9,11.3c0.3,1,0.2,2.1-0.1,3.1
	c-0.5,0.9-1.9,1.4-2.6,0.7c0.1,2.2-0.1,4.6-1.4,6.4c-1.3,1.8-4,2.8-5.8,1.5c-1.1,1.8-3.4,2.3-5.2,1.2c-0.2-0.1-0.3-0.2-0.5-0.4
	c1.1,0.4,1.2,2,0.4,2.9c-0.9,0.8-2,1.2-3.2,1.3c-13.5,1.9-27.4,0.2-40-5c-1.2-0.5,1.9-15.2,2.3-16.7c0.8-3.6,1.2-7.9,4.2-10.3
	c7.2-5.7,19.9-6.8,28.6-6.2C818.3,326.2,824.2,327.8,829.6,330.3z"/>
<path class="st7" d="M645.3,305.8c-2.6,3.3-5.1,6.7-6.8,10.5c-3.2,7.3-2.7,15.6-2.2,23.6c0.1,2.3,0.3,4.7,1.5,6.6
	c1,1.5,2.4,2.6,4,3.4c6.7,3.8,14.5,4.9,22.1,5.8c11.7,1.3,23.4,2.1,35.2,2.4c29.2,0.7,58.8-1.7,87.2,4.9c-3.5-5.3-3.5-12.4-1.5-18.5
	s5.8-11.4,9.5-16.6c-13-4.1-26.9,2.3-40.5,1.7c-14-0.7-26.9-8.7-40.9-8.7c-3,0-6.1,0.4-9-0.3c-2.9-0.7-5.8-2.9-6-5.9
	c3.7,0.8,7.3-2.4,8.8-5.9c1.5-3.5,1.8-7.5,3.3-11c3.7-8.8,13.8-12.8,20-20c1-1.1,1.9-2.5,1.9-4c-0.1-1.3-0.7-2.5-1.5-3.4
	c-5.2-6.9-13-10.8-19.6-16.2c-2.3-1.9-6.8-9-9.4-9.6c-4.7-1.2-8.7,5.6-11.8,8.9C674.2,270.2,659.4,287.7,645.3,305.8z"/>
<path class="st14" d="M800.3,303.8c2,1.4,3.7,3.2,5.2,5.1c1.5,2,2.1,4.5,1.6,6.9c-0.5-4.6,2.1-8.9,6.4-10.7L800.3,303.8z"/>
<g class="st10">
	<path d="M843.1,101.7c-0.9-2.4-2-4.8-3.1-7.1c-0.8,0.1-1.5,0.3-2.3,0.6c1.3,2.2,2.5,4.5,3.6,6.8
		C841.9,101.8,842.5,101.7,843.1,101.7z"/>
	<path d="M887.8,132.1c0.2,0.2,0.4,0.4,0.6,0.5c0-0.1,0-0.1-0.1-0.1C888.2,132.3,888,132.2,887.8,132.1z"/>
	<path d="M816.2,135.4c0.4-0.3,0.8-0.6,1.2-1l-0.1-3.7l-8.2-0.1c-1.3,1.2-2.8,3-2,4.6L816.2,135.4z"/>
	<path d="M906.2,197.1c-1.5,2.7-3.6,5.3-6.5,6.4c-2.2,0.8-4.7,0.8-7.1,0.7c-8.1-0.3-16.4-0.7-24.1-3.4c-3.6-1.3-7-3-10.8-3.8
		c-4.4-0.9-9-0.4-13.4,0.1l-19.7,2.3c-5.8,0.7-12.3,1.2-16.9-2.4c-2.7-2-4.4-5.2-7.3-6.8c-1.2-0.7-2.7-1.1-3.5-2.3
		c-0.5-0.9-0.8-1.9-0.8-2.9c-0.1-0.8-0.1-1.6-0.1-2.4c-0.1,2.4,0,4.7,0.1,7.1c0,1,0.3,2,0.8,2.9c0.8,1.2,2.3,1.6,3.5,2.3
		c2.9,1.6,4.6,4.8,7.3,6.8c4.6,3.6,11.1,3.1,16.9,2.4l19.7-2.3c4.5-0.5,9-1,13.4-0.1c3.7,0.8,7.2,2.5,10.8,3.8
		c7.7,2.7,15.9,3.1,24.1,3.4c2.4,0.1,4.8,0.2,7.1-0.7c2.9-1.1,5-3.7,6.5-6.4c2.8-5.3,3.6-11.3,3.3-17.3
		C909.3,188.8,908.2,193.2,906.2,197.1z"/>
</g>
<path class="st6" d="M842.9,106.6l10.8,10C853.7,116.6,844.4,112.8,842.9,106.6z"/>
</svg>
