<?xml version="1.0" encoding="utf-8"?>
<!-- Generator: Adobe Illustrator 24.1.1, SVG Export Plug-In . SVG Version: 6.00 Build 0)  -->
<svg version="1.1" id="Layer_1" xmlns="http://www.w3.org/2000/svg" xmlns:xlink="http://www.w3.org/1999/xlink" x="0px" y="0px"
	 viewBox="0 0 625 667" style="enable-background:new 0 0 625 667;" xml:space="preserve">
<style type="text/css">
	.st0{opacity:0.2064;fill:#191D23;}
	.st1{fill:#F45A16;}
	.st2{fill:#027396;}
	.st3{fill:#E3E3E3;}
	.st4{fill:#0081B4;}
	.st5{fill:#FFFFFF;}
	.st6{fill:none;stroke:#C4C4C4;stroke-width:0.7798;stroke-miterlimit:10;}
	.st7{opacity:0.5481;fill:#191D23;}
	.st8{fill:#FFD05A;}
	.st9{fill:#FFDC79;}
	.st10{fill:#E83D83;}
	.st11{fill:#FE5C99;}
	.st12{opacity:0.16;fill:#C9D4FE;}
	.st13{opacity:0.1;fill:#FFFFFF;}
	.st14{opacity:0.2;fill:#FFFFFF;}
	.st15{fill:#779A0A;}
	.st16{fill:#C3D600;}
	.st17{fill:none;stroke:#FFFFFF;stroke-width:2.5575;stroke-linecap:round;stroke-miterlimit:10;}
	.st18{fill:#00E0C1;}
	.st19{fill:#02F5D0;}
	.st20{fill:#FFE6A6;}
	.st21{fill:#011A5F;}
	.st22{fill:#0C3184;}
	.st23{fill:#FFA15A;}
	.st24{fill:#E0F9FE;}
	.st25{fill:#FF9136;}
	.st26{opacity:0.44;fill:#C3D600;}
	.st27{fill:none;stroke:#DAE3F2;stroke-miterlimit:10;}
	.st28{fill:none;stroke:#DAE3F2;stroke-linecap:round;stroke-linejoin:round;stroke-miterlimit:10;}
	.st29{fill:#F2B1A0;}
	.st30{fill:#A37676;}
	.st31{fill:#F2F2F2;}
	.st32{fill:#FFC5B3;}
	.st33{fill:#353535;}
	.st34{fill:#95B709;}
	.st35{fill:#4F4F4F;}
	.st36{fill:#F2BA88;}
	.st37{fill:#FFD1A4;}
	.st38{fill:#713E23;}
	.st39{opacity:0.34;fill:#442312;}
	.st40{opacity:0.15;fill:#444444;}
	.st41{fill:#1B91A8;}
	.st42{fill:#004559;}
	.st43{fill:#46BCE0;}
	.st44{fill:#007394;}
	.st45{fill:#BFCADE;}
	.st46{fill:#74869B;}
	.st47{fill:#F5FAFF;}
	.st48{fill:#D8E2ED;}
	.st49{fill:#EBF6FA;}
	.st50{opacity:0.3;fill:#1796CE;}
	.st51{fill:#B3E8F4;}
	.st52{fill:#77BDC9;}
	.st53{fill:#EDEDED;}
	.st54{fill:#30C6C6;}
	.st55{fill:#4DE4E8;}
	.st56{fill:#4D8E93;}
	.st57{fill:#ED8406;}
	.st58{fill:#FBC006;}
	.st59{fill:#8EEFEF;}
	.st60{opacity:0.42;fill:#E0F9FE;}
	.st61{fill:#4A86CE;}
	.st62{opacity:0.2;fill:url(#SVGID_1_);}
	.st63{opacity:0.5;fill:#FFFFFF;}
	.st64{fill:#0A2982;}
	.st65{fill:#80C4E7;}
	.st66{fill:#D5EBFF;}
	.st67{fill:#396BB3;}
	.st68{fill:#2D2D2D;}
	.st69{fill:#3A3A3A;}
	.st70{fill:#4B4C4C;}
	.st71{fill:#272C91;}
	.st72{fill:#617704;}
	.st73{clip-path:url(#SVGID_3_);}
	.st74{fill:#FD9220;}
	.st75{fill:#9A98ED;}
	.st76{fill:#205CE1;}
</style>
<g>
	<g>
		<path class="st0" d="M596.7,434.5l-254.3-93.6L66.3,437.7c-18.7,8.7-17.5,35.6,1.8,42.7l250.5,101.8L596.7,434.5z"/>
		<polygon class="st1" points="56.6,408.7 315.8,500.2 564.5,374.8 351.2,292.5 		"/>
		<path class="st2" d="M316.3,563.8c0,0-258.4-98.8-258.5-98.8c-13-5-16.8-20.4-15.5-32.8c0.6-6.4,2-12.7,5.8-18
			c3.5-4.9,8.5-8.8,14.3-10.3c4.8-1.2,9.9-0.7,14.4,1.3c0,0,228.6,101.5,228.6,101.5L316.3,563.8z"/>
		<polygon class="st2" points="56.6,462.9 315.8,565.3 564.5,435.2 564.5,420.4 350.4,328.9 		"/>
		<polygon class="st3" points="314.8,557.7 564.5,428 564.5,372.2 314.8,497.6 		"/>
		<polygon class="st2" points="56.6,406.1 314.8,497.7 564.5,372.2 564.6,365.8 351.2,289.9 		"/>
		<path class="st4" d="M44.1,422c0,0,1.4-4,8-10.5c13.2-12.9,29.8-7.8,29.8-7.8l233,87.1l249.7-125.2l-214.2-82.5L67,394
			c0,0-9.2,5.5-14.6,12.1C44.9,415.3,44.1,422,44.1,422z"/>
		<path class="st5" d="M314.8,557.7L67.7,459.3c-9.7-3.9-16.1-13.3-16.1-23.8l0,0c0-17.9,17.9-30.3,34.6-24l228.6,86.1V557.7z"/>
		<g>
			<line class="st6" x1="79.6" y1="416" x2="305.4" y2="503.8"/>
			<line class="st6" x1="67.1" y1="421.9" x2="305.4" y2="514.2"/>
			<line class="st6" x1="62.4" y1="430.4" x2="305.4" y2="524.5"/>
			<line class="st6" x1="60.5" y1="439.1" x2="305.4" y2="534.9"/>
			<line class="st6" x1="63.8" y1="451.1" x2="305.4" y2="545.2"/>
		</g>
		<path class="st7" d="M159.7,314.9c0,0.1,0,0.3,0,0.4L159.7,314.9L159.7,314.9z"/>
		<path class="st7" d="M159.6,315.8c0-0.1,0-0.3,0-0.4v0.9C159.6,316.1,159.6,315.9,159.6,315.8z"/>
		<line class="st6" x1="320" y1="504" x2="554.6" y2="389.3"/>
		<line class="st6" x1="320.8" y1="512.9" x2="555.3" y2="398.2"/>
		<line class="st6" x1="321.5" y1="521.9" x2="556.1" y2="407.2"/>
		<line class="st6" x1="322.2" y1="530.8" x2="556.8" y2="416.1"/>
		<line class="st6" x1="322.9" y1="539.8" x2="557.5" y2="425.1"/>
	</g>
	<g>
		<g>
			<path class="st8" d="M268,141.9v51.5c0,1.4,0.7,2.6,1.8,3.1c0.1,0,0.1,0.1,0.2,0.1l16.8,6.8l34.8,14.1c0.6,0.3,1.3,0.1,1.8-0.4
				l6.8-5.6c0.6-0.5,1-1.2,1-1.9v-49.8c0-1.9-1-3.6-2.7-4.2l-51.1-20.7c-0.7-0.3-1.5-0.1-2.2,0.4l-6.5,5.3c-0.1,0-0.2,0.1-0.2,0.2
				C268.3,141,268,141.4,268,141.9z"/>
			<path class="st9" d="M268,141.9v51.5c0,1.4,0.7,2.6,1.8,3.1c0.1,0,0.1,0.1,0.2,0.1l16.8,6.8l34.8,14.1c0.6,0.3,1.3,0.1,1.8-0.4
				c0.4-0.4,0.8-1,0.8-1.6v-50.2c0-1.8-0.9-3.3-2.5-4l-51.8-21c-0.4-0.1-0.8-0.1-1.2,0.1c-0.1,0-0.2,0.1-0.2,0.2
				C268.3,141,268,141.4,268,141.9z"/>
		</g>
		<path class="st5" d="M293.6,164.9l-3.4,5.9c-0.2,0.3-0.6,0.6-0.9,0.5l-7.5-1.3c-0.7-0.1-1.4,0.8-0.9,1.4l6,7.7
			c0.1,0.1,0.2,0.3,0.1,0.6l-1.5,8.5c-0.1,0.5,0.3,0.9,0.8,0.8l8-1.6c0.2,0,0.4,0,0.6,0.1l7.3,6.2c0.5,0.4,1.5-0.2,1.3-0.9l-1.3-7.9
			c-0.1-0.3,0.1-0.7,0.5-0.9l5.7-3.7c0.6-0.4,0.6-1.2,0.1-1.4l-9-4.2c-0.1-0.1-0.2-0.2-0.3-0.3l-4-9.4
			C294.7,164.2,293.9,164.3,293.6,164.9z"/>
	</g>
	<g>
		<g>
			<path class="st10" d="M455.7,198.8v52.3c0,1.4,0.7,2.6,1.8,3.1c0.1,0,0.1,0.1,0.2,0.1l17.1,6.9l35.3,14.3
				c0.6,0.3,1.3,0.1,1.8-0.4l6.9-5.7c0.6-0.5,1-1.2,1-2v-50.5c0-2-1-3.6-2.7-4.3l-51.9-21c-0.7-0.3-1.5-0.1-2.2,0.4l-6.6,5.4
				c-0.1,0-0.2,0.1-0.2,0.2C455.9,197.9,455.7,198.4,455.7,198.8z"/>
			<path class="st11" d="M455.7,198.8v52.3c0,1.4,0.7,2.6,1.8,3.1c0.1,0,0.1,0.1,0.2,0.1l17.1,6.9l35.3,14.3
				c0.6,0.3,1.3,0.1,1.8-0.4c0.4-0.4,0.8-1,0.8-1.6v-51c0-1.8-1-3.4-2.5-4l-52.5-21.3c-0.4-0.2-0.8-0.1-1.2,0.1
				c-0.1,0-0.2,0.1-0.2,0.2C455.9,197.9,455.7,198.4,455.7,198.8z"/>
		</g>
		<g>
			<path class="st5" d="M476.2,224.1c0,4.1,3.4,8.8,7.5,10.4c4.1,1.6,7.5-0.4,7.5-4.6c0-4.1-3.4-8.8-7.5-10.4
				C479.5,218,476.2,220,476.2,224.1z"/>
			<path class="st5" d="M466.7,246.7l33.9,13.2c0-9.3-7.6-19.8-16.9-23.5c-4.7-1.8-8.9-1.6-12,0.3
				C468.6,238.6,466.7,242,466.7,246.7z"/>
		</g>
	</g>
	<path class="st12" d="M314.4,41.8v24.3c0,0.7,0.3,1.2,0.9,1.5c0,0,0,0,0.1,0l7.9,3.2l16.4,6.6c0.3,0.1,0.6,0,0.9-0.2
		c0.2-0.2,0.4-0.5,0.4-0.7V52.8c0-0.9-0.4-1.6-1.2-1.9L315.3,41c-0.2-0.1-0.4,0-0.5,0.1c0,0-0.1,0.1-0.1,0.1
		C314.5,41.3,314.4,41.5,314.4,41.8z"/>
	<path class="st12" d="M334.4,65.4v24.3c0,0.7,0.3,1.2,0.9,1.5c0,0,0,0,0.1,0l7.9,3.2l16.4,6.6c0.3,0.1,0.6,0,0.9-0.2
		c0.2-0.2,0.4-0.5,0.4-0.7V76.4c0-0.9-0.4-1.6-1.2-1.9l-24.4-9.9c-0.2-0.1-0.4,0-0.5,0.1c0,0-0.1,0.1-0.1,0.1
		C334.5,64.9,334.4,65.2,334.4,65.4z"/>
	<path class="st13" d="M243.8,77.5v36.4c0,1,0.5,1.8,1.3,2.2c0,0,0.1,0,0.1,0l11.9,4.8l24.5,9.9c0.4,0.2,0.9,0,1.3-0.3
		c0.3-0.3,0.5-0.7,0.5-1.1V94c0-1.3-0.7-2.3-1.8-2.8l-36.5-14.8c-0.3-0.1-0.6-0.1-0.8,0.1c-0.1,0-0.1,0.1-0.2,0.1
		C243.9,76.8,243.8,77.2,243.8,77.5z"/>
	<path class="st13" d="M170,121.1v41.4c0,1.1,0.5,2.1,1.5,2.5c0,0,0.1,0,0.1,0.1l13.5,5.5l28,11.3c0.5,0.2,1.1,0,1.5-0.3
		c0.4-0.3,0.6-0.8,0.6-1.3v-40.4c0-1.5-0.8-2.7-2-3.2l-41.6-16.9c-0.3-0.1-0.6-0.1-0.9,0.1c-0.1,0-0.1,0.1-0.2,0.1
		C170.2,120.4,170,120.7,170,121.1z"/>
	<path class="st14" d="M463.5,315.4v32.2c0,0.9,0.4,1.6,1.1,1.9c0,0,0.1,0,0.1,0l10.5,4.3l21.8,8.8c0.4,0.2,0.8,0,1.1-0.3
		c0.3-0.2,0.5-0.6,0.5-1V330c0-1.1-0.6-2.1-1.6-2.5l-32.4-13.1c-0.2-0.1-0.5-0.1-0.7,0.1c0,0-0.1,0.1-0.1,0.1
		C463.7,314.9,463.5,315.1,463.5,315.4z"/>
	<path class="st14" d="M141.9,131.2v41.4c0,1.1,0.5,2.1,1.5,2.5c0,0,0.1,0,0.1,0.1l13.5,5.5l28,11.3c0.5,0.2,1.1,0,1.5-0.3
		c0.4-0.3,0.6-0.8,0.6-1.3V150c0-1.5-0.8-2.7-2-3.2L143.5,130c-0.3-0.1-0.6-0.1-0.9,0.1c-0.1,0-0.1,0.1-0.2,0.1
		C142.1,130.5,141.9,130.8,141.9,131.2z"/>
	<path class="st13" d="M517.3,284.6v40.3c0,1.1,0.5,2,1.4,2.4c0,0,0.1,0,0.1,0.1l13.2,5.3l27.2,11c0.5,0.2,1,0,1.4-0.3
		c0.3-0.3,0.6-0.7,0.6-1.2v-39.3c0-1.4-0.7-2.6-1.9-3.1l-40.5-16.4c-0.3-0.1-0.6-0.1-0.9,0.1c-0.1,0-0.1,0.1-0.2,0.1
		C517.5,283.9,517.3,284.2,517.3,284.6z"/>
	<path class="st13" d="M74.1,298.5v34.7c0,0.9,0.4,1.7,1.2,2.1c0,0,0.1,0,0.1,0l11.4,4.6l23.5,9.5c0.4,0.2,0.9,0,1.2-0.3
		c0.3-0.3,0.5-0.6,0.5-1.1v-33.9c0-1.2-0.6-2.2-1.7-2.7l-34.9-14.1c-0.3-0.1-0.5-0.1-0.8,0.1c-0.1,0-0.1,0.1-0.2,0.1
		C74.2,297.9,74.1,298.2,74.1,298.5z"/>
	<g>
		<path class="st15" d="M365.8,204.7v34.7c0,0.9,0.4,1.7,1.2,2.1c0,0,0.1,0,0.1,0l11.4,4.6l23.5,9.5c0.4,0.2,0.9,0,1.2-0.3l4.6-3.8
			c0.4-0.3,0.7-0.8,0.7-1.3v-33.6c0-1.3-0.7-2.4-1.8-2.8l-34.5-14c-0.4-0.2-1-0.1-1.5,0.3l-4.4,3.6c-0.1,0-0.1,0.1-0.2,0.1
			C365.9,204.1,365.8,204.4,365.8,204.7z"/>
		<path class="st16" d="M365.8,204.7v34.7c0,0.9,0.4,1.7,1.2,2.1c0,0,0.1,0,0.1,0l11.4,4.6l23.5,9.5c0.4,0.2,0.9,0,1.2-0.3
			c0.3-0.3,0.5-0.6,0.5-1.1v-33.9c0-1.2-0.6-2.2-1.7-2.7l-34.9-14.1c-0.3-0.1-0.5-0.1-0.8,0.1c-0.1,0-0.1,0.1-0.2,0.1
			C365.9,204.1,365.8,204.4,365.8,204.7z"/>
		<polyline class="st17" points="373,226.8 378.3,236.2 396.4,224.8 		"/>
	</g>
	<g>
		<path class="st18" d="M104,217.9v34.7c0,0.9,0.4,1.7,1.2,2.1c0,0,0.1,0,0.1,0l11.4,4.6l23.5,9.5c0.4,0.2,0.9,0,1.2-0.3l4.6-3.8
			c0.4-0.3,0.7-0.8,0.7-1.3v-33.6c0-1.3-0.7-2.4-1.8-2.8l-34.5-14c-0.4-0.2-1-0.1-1.5,0.3l-4.4,3.6c-0.1,0-0.1,0.1-0.2,0.1
			C104.2,217.3,104,217.6,104,217.9z"/>
		<path class="st19" d="M104,217.9v34.7c0,0.9,0.4,1.7,1.2,2.1c0,0,0.1,0,0.1,0l11.4,4.6l23.5,9.5c0.4,0.2,0.9,0,1.2-0.3
			c0.3-0.3,0.5-0.6,0.5-1.1v-33.9c0-1.2-0.6-2.2-1.7-2.7l-34.9-14.1c-0.3-0.1-0.5-0.1-0.8,0.1c-0.1,0-0.1,0.1-0.2,0.1
			C104.2,217.3,104,217.6,104,217.9z"/>
		<path class="st5" d="M128.9,249.9c0.9,1.6,2.7,1.9,3.8,0.8c1.2-1.1,1.4-3.3,0.4-4.8c-0.9-1.6-2.7-1.9-3.8-0.8
			C128.2,246.2,128,248.4,128.9,249.9z"/>
		<path class="st5" d="M119.8,246.2c0.9,1.6,2.7,2,3.8,0.9c1.2-1.1,1.4-3.3,0.5-4.8s-2.7-2-3.8-0.9
			C119,242.4,118.8,244.6,119.8,246.2z"/>
		<path class="st5" d="M110.6,242.4c0.9,1.6,2.6,2,3.8,0.9c1.2-1.1,1.4-3.3,0.5-4.8c-0.9-1.6-2.6-2-3.8-0.9
			C109.9,238.6,109.7,240.8,110.6,242.4z"/>
	</g>
	<g>
		<path class="st0" d="M492.4,490.7l15-4.3c2.2-0.6,4.1,1.8,2.8,3.8l-4.8,7.4c-1,1.5-2.3,2.8-3.9,3.6L388.6,562
			c-4.7,2.5-10.4,2.2-14.7-0.9l0,0c-2.5-1.8-2.3-5.6,0.4-7l115.9-62.5C490.9,491.2,491.6,490.9,492.4,490.7z"/>
		<g>
			<g>
				<path class="st9" d="M494.7,480.3l1.2,2.6l4.5,9.8l13.6-14c0.2-0.2,0.1-0.6-0.1-0.7c-0.1-0.1-0.2-0.2-0.4-0.1L494.7,480.3z"/>
				<g>
					<path class="st20" d="M494.7,480.3l1.2,2.6l4.2,0l13.9-5c-0.1-0.1-0.2-0.2-0.4-0.1L494.7,480.3z"/>
				</g>
			</g>
			<g>
				<path class="st21" d="M376,543.9l1.8,3.6l4.5,9.2l116.4-62.8c0,0,0,0,0,0l0,0c0.3-0.1,0.6-0.3,0.9-0.5c0.8-0.5,1.4-1.3,1.8-2.2
					c0.8-1.7,0.8-4,0-6.2c-0.3-0.8-0.8-1.5-1.3-2.2c0,0,0,0,0,0c-1.4-1.7-3.3-2.7-5.2-2.6c-0.5,0-1.1,0.1-1.6,0.3
					c-0.1,0-0.2,0.1-0.3,0.1l-0.3,0.2c0,0-0.1,0-0.1,0.1c0,0-0.1,0-0.1,0.1L376,543.9z"/>
				<path class="st22" d="M376,543.9l1.8,3.6l5.1-1.2l117.3-63.4c0,0,0,0,0,0c0,0,0,0,0,0c-1.4-1.7-3.3-2.7-5.2-2.6
					c-0.5,0-1.1,0.1-1.6,0.3c-0.1,0-0.2,0.1-0.3,0.1l-0.3,0.2c0,0-0.1,0-0.1,0.1c0,0-0.1,0-0.1,0.1L376,543.9z"/>
				<path class="st23" d="M373.4,552.7c1.5,3.7,5.1,5.7,8,4.5l0,0c0.3-0.1,0.6-0.3,0.9-0.5c0.8-0.5,1.4-1.3,1.8-2.2
					c0.8-1.7,0.8-4,0-6.2c-1.2-3-3.9-4.9-6.5-4.8c-0.5,0-1.1,0.1-1.6,0.3c-0.1,0-0.2,0.1-0.3,0.1l-0.3,0.2c0,0-0.1,0-0.1,0.1
					C372.9,545.8,372,549.4,373.4,552.7z"/>
				<path class="st24" d="M395.8,533.2l-9.9,5.4c0,0,0.1-0.1,0.1,0c0.5-0.2,1-0.3,1.5-0.3c1.9-0.1,3.9,0.9,5.2,2.7
					c0.5,0.6,0.9,1.3,1.2,2.1c0.9,2.2,0.8,4.4,0,6.2c-0.3,0.7-0.7,1.3-1.2,1.7c-0.1,0.2-0.3,0.3-0.5,0.4l9.5-5c0,0,0.4-0.2,0.6-0.3
					c0.7-0.5,1.4-1.3,1.8-2.2c0.8-1.7,0.8-4,0-6.2c-0.3-0.8-0.7-1.5-1.2-2.1c-1.4-1.8-3.3-2.8-5.2-2.7c-0.5,0-1.1,0.1-1.6,0.3
					C396,533.2,395.9,533.2,395.8,533.2z"/>
				<path class="st5" d="M385.7,538.7c0.1,0,0.1-0.1,0.2-0.1c-0.1,0-0.1,0-0.1,0L385.7,538.7z"/>
				<path class="st25" d="M375.9,544c0.5-0.2,1-0.3,1.6-0.3c1.9-0.1,3.8,0.9,5.2,2.7c0.5,0.6,0.9,1.4,1.3,2.2c0.9,2.1,0.8,4.4,0,6.1
					c-0.4,0.9-1,1.6-1.8,2.2l9.5-5.1c0,0,0.4-0.2,0.6-0.3c0.2-0.1,0.3-0.2,0.5-0.4c0.5-0.4,1-1.1,1.3-1.8c0.8-1.7,0.8-4,0-6.2
					c-0.3-0.8-0.7-1.5-1.2-2.1c-1.4-1.8-3.4-2.8-5.2-2.7c-0.6,0-1.1,0.1-1.6,0.3c0,0-0.1,0-0.1,0l0,0c-0.1,0-0.1,0-0.1,0l-0.1,0.1
					L375.9,544z"/>
			</g>
		</g>
	</g>
	<g>
		<path class="st0" d="M564.2,496.2l15.4-2.5c2.3-0.4,3.8,2.3,2.3,4.1l-5.7,6.8c-1.2,1.4-2.6,2.5-4.3,3.1l-119.2,47
			c-4.9,2-10.6,0.9-14.5-2.6l0,0c-2.3-2.1-1.6-5.8,1.3-6.9L562,496.8C562.7,496.5,563.4,496.3,564.2,496.2z"/>
		<g>
			<g>
				<path class="st9" d="M567.5,489.9l0.9,2.7l3.4,10.3l15.1-12.4c0.3-0.2,0.2-0.6,0-0.7c-0.1-0.1-0.2-0.2-0.3-0.2L567.5,489.9z"/>
				<g>
					<path class="st20" d="M567.5,489.9l0.9,2.7l4.1,0.5l14.3-3.4c-0.1-0.1-0.2-0.2-0.3-0.2L567.5,489.9z"/>
				</g>
			</g>
			<g>
				<path class="st15" d="M442.4,539.7l1.3,3.8l3.5,9.7l122.8-49.3c0,0,0,0,0,0l0,0c0.3-0.1,0.6-0.2,0.9-0.4c0.8-0.4,1.5-1.1,2-1.9
					c1-1.6,1.3-3.9,0.7-6.1c-0.2-0.8-0.6-1.6-1-2.3c0,0,0,0,0,0c-1.2-1.9-3-3.1-4.9-3.2c-0.5,0-1.1,0-1.6,0.2c-0.1,0-0.2,0-0.3,0.1
					l-0.3,0.1c0,0-0.1,0-0.1,0.1c0,0-0.1,0-0.1,0.1L442.4,539.7z"/>
				<path class="st26" d="M442.4,539.7l1.3,3.8l5.2-0.6l123.7-49.7c0,0,0,0,0,0c0,0,0,0,0,0c-1.2-1.9-3-3.1-4.9-3.2
					c-0.5,0-1.1,0-1.6,0.2c-0.1,0-0.2,0-0.3,0.1l-0.3,0.1c0,0-0.1,0-0.1,0.1c0,0-0.1,0-0.1,0.1L442.4,539.7z"/>
				<path class="st23" d="M438.8,548.2c1.1,3.8,4.4,6.2,7.5,5.4l0,0c0.3-0.1,0.6-0.2,0.9-0.4c0.8-0.4,1.5-1.1,2-2
					c1-1.6,1.3-3.9,0.7-6.1c-0.9-3.2-3.3-5.4-5.9-5.5c-0.5,0-1.1,0-1.6,0.2c-0.1,0-0.2,0.1-0.3,0.1l-0.4,0.1c0,0-0.1,0-0.1,0.1
					C439.1,541.2,437.8,544.7,438.8,548.2z"/>
				<path class="st24" d="M463.3,531.3l-10.4,4.2c0,0,0.1,0,0.1,0c0.5-0.1,1-0.2,1.5-0.1c1.9,0.1,3.7,1.4,4.9,3.3
					c0.4,0.7,0.8,1.4,1,2.2c0.6,2.3,0.3,4.5-0.7,6.1c-0.4,0.6-0.8,1.2-1.4,1.6c-0.2,0.1-0.3,0.3-0.5,0.3l10-3.9c0,0,0.4-0.2,0.6-0.3
					c0.8-0.4,1.5-1.1,2-1.9c1-1.6,1.3-3.9,0.7-6.1c-0.2-0.8-0.6-1.6-1-2.3c-1.2-1.9-3-3.1-4.9-3.3c-0.5,0-1.1,0-1.6,0.2
					C463.4,531.3,463.4,531.3,463.3,531.3z"/>
				<path class="st5" d="M452.6,535.6c0.1,0,0.2-0.1,0.2-0.1c-0.1,0-0.1,0-0.1,0L452.6,535.6z"/>
				<path class="st25" d="M442.3,539.8c0.5-0.2,1-0.2,1.6-0.1c1.9,0.1,3.7,1.3,4.9,3.2c0.4,0.7,0.8,1.4,1,2.3
					c0.6,2.2,0.3,4.5-0.7,6.1c-0.5,0.8-1.2,1.5-2,2l10.1-4c0,0,0.4-0.1,0.6-0.3c0.2-0.1,0.3-0.2,0.5-0.3c0.6-0.4,1.1-0.9,1.5-1.6
					c1-1.6,1.3-3.9,0.7-6.1c-0.2-0.8-0.6-1.6-1-2.3c-1.2-1.9-3-3.1-4.9-3.3c-0.6,0-1.1,0-1.6,0.2c0,0-0.1,0-0.1,0l0,0
					c-0.1,0-0.1,0-0.1,0l-0.1,0.1L442.3,539.8z"/>
			</g>
		</g>
	</g>
	<g>
		<path class="st27" d="M309.2,252.8c1,2.3,0,4.1-2.3,4.1c-2.3,0-4.9-1.8-5.9-4.1c-1-2.3,0-4.1,2.3-4.1
			C305.5,248.7,308.2,250.5,309.2,252.8z"/>
		<path class="st27" d="M491.8,306.7c1,2.3,0,4.1-2.3,4.1s-4.9-1.8-5.9-4.1c-1-2.3,0-4.1,2.3-4.1
			C488.2,302.6,490.8,304.4,491.8,306.7z"/>
		<path class="st27" d="M423.2,195.7c1,2.3,0,4.1-2.3,4.1c-2.3,0-4.9-1.8-5.9-4.1c-1-2.3,0-4.1,2.3-4.1
			C419.6,191.7,422.2,193.5,423.2,195.7z"/>
		<path class="st27" d="M72.7,201.3c1,2.3,0,4.1-2.3,4.1c-2.3,0-4.9-1.8-5.9-4.1c-1-2.3,0-4.1,2.3-4.1S71.7,199.1,72.7,201.3z"/>
		<g>
			<line class="st28" x1="264.5" y1="241.2" x2="264.5" y2="248.7"/>
			<line class="st28" x1="268" y1="246.8" x2="261" y2="242.7"/>
		</g>
		<g>
			<line class="st28" x1="347.7" y1="152.2" x2="347.7" y2="159.7"/>
			<line class="st28" x1="351.2" y1="157.7" x2="344.2" y2="153.7"/>
		</g>
		<g>
			<line class="st28" x1="117.8" y1="145.8" x2="117.8" y2="153.3"/>
			<line class="st28" x1="121.3" y1="151.3" x2="114.2" y2="147.3"/>
		</g>
		<g>
			<line class="st28" x1="556.1" y1="270.1" x2="556.1" y2="277.6"/>
			<line class="st28" x1="559.6" y1="275.6" x2="552.5" y2="271.6"/>
		</g>
	</g>
	<g>
		<path class="st29" d="M171.4,294.2c0,0-1.4,30-3.5,37.2c-2.2,7.3,1.4,18.8-26.8,37.3l9.3,11.5c0,0,33.7-15,39.8-42.3
			c2.8-12.6,8.8-44.3,8.8-44.3"/>
		<path class="st0" d="M175.8,565.6c-2.3,3.4-6.9,7.1-15.2,10.6c-8.2,3.5-14.4,11.4-20.7,13.6c-7.1,2.5-19.2-0.5-27.2-8.8
			c-2.9-3,0.4-4.4,0.3-7.2c-0.1-2.4,0.7-4.6,1.5-6.2c1.9-3.5,7.4-5.4,14.1-7.6c6.7-2.2,9.4-4.1,14.1-7.9c4.7-3.8,6.3-8.7,7.9-10.9
			c0.8-1.1,7.4,1.5,9.5,5.7c1,2.1,0.7,2.8,0.2,3.5c-0.4,0.7-0.4,1.5,0.1,2.2c0.3,0.5,0.9,0.9,1.5,1.1c8.7,1.8,7.5-5.5,7.5-5.5
			C175.6,552.1,180.4,558.7,175.8,565.6z"/>
		<path class="st0" d="M152.8,528.9c-2.3,3.4-6.9,7.1-15.2,10.6c-8.2,3.5-14.4,11.4-20.7,13.6c-7.1,2.5-19.2-0.5-27.2-8.8
			c-2.9-3,0.4-4.4,0.3-7.2c-0.1-2.4,0.7-4.6,1.5-6.2c1.9-3.5,7.4-5.4,14.1-7.6c6.7-2.2,9.4-4.1,14.1-7.9c4.7-3.8,6.3-8.7,7.9-10.9
			c0.8-1.1,7.4,1.5,9.5,5.7c1,2.1,0.7,2.8,0.2,3.5c-0.4,0.7-0.4,1.5,0.1,2.2c0.3,0.5,0.9,0.9,1.5,1.1c8.7,1.8,7.5-5.5,7.5-5.5
			C152.7,515.4,157.4,522,152.8,528.9z"/>
		<path class="st29" d="M185.8,383.3c-2.8,0.5-48,19.4-54.6,32.3c-2.5,4.9-2.9,26.6-5,43.2c-1.3,10.6-1.2,33.6-6,43.7
			c-0.7,1.4-1.6,2.8-2.6,4.2c5.4,9.4,18.5,7.6,27.6,1.8c1-3.3-0.4-7-0.1-9.9c0.6-1.5,18.1-43.8,14-60c7.5-0.6,43.7-15.4,46.4-17.4
			C208.3,419,196.3,381.4,185.8,383.3z"/>
		<g>
			<path class="st30" d="M148,523c0,0,1,1.1,0.8,2.5c-0.2,1.3-1.8,3.4-5.2,5c-3.5,1.7-6.1,2.3-9.7,5.2c-3.6,2.9-10.2,9.2-14.1,12.3
				c-3.8,3.1-9.2,4.3-12.2,4.5c-3,0.2-7.6-0.4-13.7-3.2c-5-2.3-7.2-6.8-7.8-9.3c-0.6-2.4-0.4-6.4-0.4-6.4"/>
			<path class="st5" d="M147.6,525.3c-3,2.7-5,3-13.1,7.2c-8,4.2-16,15.3-22.5,16.9c-6.6,1.5-15.1-2.5-21.5-6.5
				c-3.5-2.2-4.8-5.2-5-8.1c-0.2-2.5,0.4-4.8,1.2-6.5c1.7-3.7,7.1-6.1,13.7-8.8c6.5-2.7,8.9-5.3,13.3-9.6c4.5-4.3,5.8-9.4,7.4-11.8
				c0.8-1.2,7.5,1.1,9.8,5.2c1.1,2.1,0.8,2.9,0.4,3.6c-0.4,0.7-0.3,1.6,0.2,2.3c0.3,0.5,0.9,0.9,1.5,1c8.8,1.3,12.4-8.5,12.4-8.5
				C151.7,505.3,150.6,522.6,147.6,525.3z"/>
			<path class="st31" d="M147.6,525.3c-3,2.7-5,3-13.1,7.2c-8,4.2-16,15.3-22.5,16.9c-6.6,1.5-13.8,0-21-4.7c-3.4-2.2-5.3-7-5.5-10
				c3,3.9,6,9.2,15.5,9.5c7.6,0.2,13.9,0.8,19.6-6.5c5.7-7.3,9.4-10.9,15.7-13c6.2-2.1,9.1-5.3,8.2-8.6c-0.9-3.3-3.2-5.6-7.8-4.9
				c-4.5,0.7-5.2-2.2-5.2-2.2c0.3,0.5,0.9,0.9,1.5,1c8.8,1.3,12.4-8.5,12.4-8.5C150.3,505.1,150.6,522.6,147.6,525.3z"/>
		</g>
		<path class="st32" d="M208.9,421.2c-2.8,0.5-48,19.4-54.6,32.3c-2.5,4.9-2.9,26.6-5,43.2c-1.3,10.6-1.2,33.6-6,43.7
			c-0.7,1.4-1.6,2.8-2.6,4.2c5.4,9.4,18.5,7.6,27.6,1.8c1-3.3-0.4-7-0.1-9.9c0.6-1.5,18.1-43.8,14-60c7.5-0.6,43.7-15.4,46.4-17.4
			C231.3,457,219.3,419.4,208.9,421.2z"/>
		<path class="st33" d="M216.8,347.6L164,384.7c0,0,19.3,6.8,24.6,18.9c6,13.4,5.6,25.7,5.6,25.7l51.2-15.8
			C245.4,413.4,247.5,357.7,216.8,347.6z"/>
		<path class="st33" d="M285.5,358.1c0,0,15.7,42.6-11.7,73.7c-16.3,18.5-51.7,40.8-51.7,40.8s-10.8-7.9-21.7-24.5
			c-5.8-8.8-12.1-18.3-12.1-18.3l49.5-51.5L285.5,358.1z"/>
		<path class="st34" d="M165.8,305.9c0,0,7.4,5.4,17.8,7.5c10.4,2.1,18.5,2.1,18.5,2.1s15-47.1,5.5-54.7c-9.5-7.6-20.5-8-28.4,3.7
			C171.5,275.9,165.8,305.9,165.8,305.9z"/>
		<path class="st16" d="M194.1,364.9c14.6,11.7,36.2,26.7,53,22.4c15.4-4,29.8-17,38.4-29.2c-5.1-21.5-13-74.6-29.1-94.9
			c-16.7-21.1-30.1-23.4-30.1-23.4s-12.8-12.8-34.1,14.5c-21.3,27.3-11.3,54.6-3.8,75.7C197.2,355.1,191.2,351.2,194.1,364.9z"/>
		<g>
			<path class="st35" d="M188.3,429.8c4.9-5.2,10.2-10,15.5-14.7c5.4-4.7,10.8-9.3,16.6-13.5c-4.9,5.2-10.2,10-15.5,14.7
				C199.5,420.9,194,425.5,188.3,429.8z"/>
		</g>
		<g>
			<path class="st30" d="M171,559.7c0,0,1,1.1,0.8,2.5c-0.2,1.3-1.8,3.4-5.2,5c-3.5,1.7-6.1,2.3-9.7,5.2
				c-3.6,2.9-10.2,9.2-14.1,12.3c-3.8,3.1-9.2,4.3-12.2,4.5c-3,0.2-7.6-0.4-13.7-3.2c-5-2.3-7.2-6.8-7.8-9.3
				c-0.6-2.4-0.4-6.4-0.4-6.4"/>
			<path class="st5" d="M170.6,562c-3,2.7-5,3-13.1,7.2c-8,4.2-16,15.3-22.5,16.9c-6.6,1.5-15.1-2.5-21.5-6.5
				c-3.5-2.2-4.8-5.2-5-8.1c-0.2-2.5,0.4-4.8,1.2-6.5c1.7-3.7,7.1-6.1,13.7-8.8c6.5-2.7,8.9-5.3,13.3-9.6c4.5-4.3,5.8-9.4,7.4-11.8
				c0.8-1.2,7.5,1.1,9.8,5.2c1.1,2.1,0.8,2.9,0.4,3.6c-0.4,0.7-0.3,1.6,0.2,2.3c0.3,0.5,0.9,0.9,1.5,1c8.8,1.3,12.4-8.5,12.4-8.5
				C174.6,541.9,173.6,559.3,170.6,562z"/>
			<path class="st31" d="M170.6,562c-3,2.7-5,3-13.1,7.2c-8,4.2-16,15.3-22.5,16.9c-6.6,1.5-13.8,0-21-4.7c-3.4-2.2-5.3-7-5.5-10
				c3,3.9,6,9.2,15.5,9.5c7.6,0.2,13.9,0.8,19.6-6.5c5.7-7.3,9.4-10.9,15.7-13c6.2-2.1,9.1-5.3,8.2-8.6c-0.9-3.3-3.2-5.6-7.8-4.9
				c-4.5,0.7-5.2-2.2-5.2-2.2c0.3,0.5,0.9,0.9,1.5,1c8.8,1.3,12.4-8.5,12.4-8.5C173.3,541.8,173.6,559.3,170.6,562z"/>
		</g>
		<g>
			<path class="st36" d="M237.2,226.9l-0.7,19.5c0,0-20.5,13.7-31,11.3c-4.5-1.1-6.7-7-5.5-15.2l9.7-1.6L237.2,226.9z"/>
			<path class="st37" d="M180.6,196.1c0,0-6,11.2-2.2,32.8c2.1,12,8.9,20,14.8,22.8c5.9,2.9,11.3,3.3,21.7-2.8
				c10.3-6.2,16.3-16.6,16.3-16.6s1.4,1,5.2-3c5.9-6.2,7.1-9.4,7.4-18c0.3-8.7-1.5-19.7-7.9-31.2c-6.4-11.6-27.2-8.7-36.8-4.2
				C189.6,180.4,182.8,186.5,180.6,196.1z"/>
			<path class="st38" d="M178.5,200c9.7,18.7,32.2,7,32.2,7c1.6,8,7.2,8.9,9.8,10.5c2.6,1.5,2.6,6.7,2.6,6.7l2.4,0.1
				c0,0,0.7-5.1,2-9c1.3-3.8,8.7-6.6,12.1-0.8c3.1,5.2-0.9,10.7-3.2,14.8c-0.9,6.6,0.3,9.5,0.3,9.5s4.1-3.8,7-11.6
				c2.9-7.9,4.8-19.5,0.8-37.5c-0.4-1.9-1.1-3.6-1.9-5.2c-7.5-13.6-29.9-17-38.9-14.3c-7.7,2.3-22.5,5.9-26.5,18
				C176,191.8,176.2,195.7,178.5,200z"/>
			<path class="st39" d="M178.5,200c9.7,18.7,32.2,7,32.2,7c1.6,8,7.2,8.9,9.8,10.5c2.6,1.5,2.6,6.7,2.6,6.7l2.4,0.1
				c0,0,0.7-5.1,2-9c1.3-3.8,8.7-6.6,12.1-0.8c3.1,5.2-0.9,10.7-3.2,14.8c-0.9,6.6,0.3,9.5,0.3,9.5s4.1-3.8,7-11.6
				c2.9-7.9,4.8-19.5,0.8-37.5c-0.4-1.9-1.1-3.6-1.9-5.2c-4.5,3.6-16.6,8.3-29.9,13.4c-16.5,6.3-25.2,4.9-29.2,1.3
				c-3.9-3.6-6-6.5-6.3-10.9l0,0C176,191.8,176.2,195.7,178.5,200z"/>
		</g>
		<path class="st40" d="M141.1,406c0,0,1.1,3.2,6.3,3.9l33.7,20.5l67.9-26.4L141.1,406z"/>
		<g>
			<g>
				<g>
					<g>
						<polygon class="st41" points="145.2,400.1 140,403 142.7,405.3 148.8,407.4 154.4,404.1 						"/>
					</g>
					<g>
						<polygon class="st42" points="210.3,377.4 106,383.9 141.2,404.4 210.3,379.4 						"/>
						<polygon class="st43" points="174.2,356.7 105.1,381.5 140.2,401.8 209.4,377 						"/>
						<path class="st44" d="M105.1,381.5v2l33.5,19.3l4,2.3l-2.6-1.5c-0.8-0.9-0.6-1.7-1.3-2.7L105.1,381.5z"/>
					</g>
					<g>
						<polygon class="st42" points="251.7,401.1 148.8,408.2 182.6,427.9 251.7,403.1 						"/>
						<polygon class="st43" points="218.6,382 149.2,406.6 182.6,425.9 251.7,401.1 						"/>
						<polygon class="st44" points="182.6,427.9 182.6,425.9 149.2,406.6 147.9,407.9 						"/>
					</g>
					<g>
						<g>
							<polygon class="st45" points="148.2,401.7 213.2,379.1 212.1,375.4 176,352.1 111.2,376.3 							"/>
						</g>
					</g>
					<g>
						<g>
							<polygon class="st46" points="247.7,393 148.6,403.8 183,423.7 247.7,401.4 							"/>
							<path class="st45" d="M149.7,399.3l62.1-20.6c0.7-0.4,1.3-0.9,2-1.3c0.8-0.5,3.4-0.9,6.4-0.6c12.5,1,27.6,16.2,27.6,16.2
								L183,415.2L149.7,399.3z"/>
							<path class="st47" d="M149.7,398.2l62.1-20.6c0.7-0.4,1.3-0.9,2-1.3c0.8-0.5,3.4-0.9,6.4-0.6c12.5,1,27.6,16.2,27.6,16.2
								L183,414.2L149.7,398.2z"/>
						</g>
					</g>
					<path class="st48" d="M147.3,403v-1.4c0-2.9-1.2-5.8-3.2-7.9c-11.1-11.8-33-17.4-33-17.4v5.9L147.3,403z"/>
					<path class="st49" d="M176,352.1l-64.8,24.2c0,0,32.6,3.1,36.1,21.4l64.8-22.3C208.5,357.1,176,352.1,176,352.1z"/>
				</g>
				<path class="st45" d="M147.3,403l1.3,0.7l0,0l0.2,0.1l34.2,19.8v-9.5c0,0-13.8-13.9-26-16c-0.5-0.1-1-0.2-1.6-0.2
					c-1.5-0.1-2.9-0.1-4,0c-0.2,0-0.4,0-0.5,0c-1,0-1.9,0.5-2.6,1.2c-0.5,0.6-0.9,1.3-1,2.1c0,0.1,0,0.2,0,0.3V403z"/>
				<path class="st48" d="M147.3,403l1.3,0.7l0,0l0.2,0.1l34.2,19.8v-8.4c0,0-16-14.2-26-16.5c-0.5-0.1-7.3-1.5-8.6,0.1
					c-0.5,0.6-0.9,1.6-1,2.5c0,0.1,0,0.2,0,0.3V403z"/>
			</g>
			<path class="st44" d="M138.7,400.9c0.2,0.7,0.5,1.9,0.8,2.5c2.2,4.4,9,4.7,9,4.7l1.1,0.7l0.2-0.7l-0.5-1.5c0,0-4.6-0.2-7.5-2.8
				c-0.7-0.6-0.8-0.9-1.4-2L138.7,400.9z"/>
		</g>
		<g>
			<path id="XMLID_111_" class="st32" d="M212,381.5c4.4-1.6,12.8,6.5,3.8,16c-2.1,2.2-3.1,4.1-6,5.3c-1.4,0.6-3.5,1.8-5.4,2.2
				c-4,2.3-6.8,3.1-9.2,4.2c-3.1,1.4-2.1,2.3-9.1-1c-7-3.3-3-5.4-3-5.4s0,0-1.5-1.8c-1.5-1.8,0.4-2.8,0.4-2.8l11.8-8
				c0.2-0.6,0.5-1.2,0.9-1.8c-3.2-0.2-9.9-0.8-10.4-2.9c-0.6-2.8,8.3-1,12-1.7c1.3-0.2,3.3-0.5,5.4-0.7c0.4-0.1,0.8-0.3,1.2-0.3
				C206,382.2,208.9,382.6,212,381.5z"/>
		</g>
		<path class="st32" d="M240.3,308.5c0,0,5.8,24.7,3.5,31.9c-2.2,7.2-6.3,24-34.7,42.2l9.1,11.7c0,0,41.4-19.9,47.8-47.1
			c3-12.6,1.8-38.9,1.8-38.9"/>
		<path class="st34" d="M234.4,311c0,0,8,3,16.1,3.1c8.1,0.1,22.8-6.1,22.8-6.1s1.6-25.2-7.1-40.3c-8.8-15-20-16.4-29.1-5.5
			C227.8,273.2,234.4,311,234.4,311z"/>
	</g>
	<g>
		<path class="st50" d="M398.4,430.6c0.1,0.8-0.1,1.7-0.9,2.4l-68.7,37.8c-0.7,0.7-1.7,0.8-2.6,0.4l-11.6-4.6l-3.5-1.4l-35.3-14.1
			l-1.7-0.7l-2.2-0.9c-0.8-0.3-1.4-1-1.5-1.8c-0.2-0.9,0.1-1.8,0.8-2.5l68.5-37.6c0.7-0.6,1.7-0.8,2.6-0.4l4.6,1.8l1.7,0.7l35.4,14
			l3.4,1.3l9.3,3.7C397.7,429,398.3,429.8,398.4,430.6z"/>
		<path class="st51" d="M274.1,437.9l64.8-34.4c0.7-0.6,1.6-0.8,2.5-0.4l50.9,20.1c1.7,0.7,2.1,2.9,0.7,4l-65,34.6
			c-0.7,0.6-1.6,0.8-2.5,0.4L274.8,442C273.1,441.3,272.8,439.1,274.1,437.9z"/>
		<path class="st52" d="M389.8,425.2c-0.3,0.2-0.3,0.6-0.3,0.9l-47.3-18.7c-0.8-0.3-1.8-0.2-2.5,0.4l-62.8,32.7
			c-1.5-0.2-3.5-0.3-3.5-0.3l0.8,4.5l0.1,0c0.2,0.7,0.6,1.3,1.4,1.6l50.7,20.3c0.8,0.3,1.8,0.2,2.5-0.4l65-34.6
			c0.5-0.5,0.7-1.1,0.8-1.7l0.1,0l-0.8-4.9C393.8,425,390.4,424.8,389.8,425.2z"/>
		<path class="st53" d="M393.8,425l0.8,4.9l-0.1,0c0,0.6-0.2,1.2-0.8,1.7l-65,34.6c-0.7,0.6-1.6,0.7-2.5,0.4l-10.9-4.3l-3.3-1.3
			l-36.6-14.6c-0.7-0.3-1.2-0.9-1.4-1.6l-0.1,0l-0.8-4.5c0,0,2,0.2,3.5,0.3l62.8-32.7c0.7-0.6,1.6-0.7,2.5-0.4l35,13.8l3.2,1.3
			l9.1,3.6c0-0.4,0.1-0.8,0.3-0.9C390.4,424.8,393.8,425,393.8,425z"/>
		<path class="st54" d="M393.8,425c0.1,0.8-0.1,1.6-0.8,2.2l-65,34.6c-0.7,0.6-1.6,0.8-2.5,0.4l-10.9-4.3l-3.3-1.3l-33-13.2
			l-1.6-0.7l-2-0.8c-0.8-0.3-1.3-1-1.4-1.7c-0.2-0.8,0.1-1.7,0.8-2.3l64.9-34.4c0.7-0.6,1.6-0.7,2.5-0.4l4.3,1.7l1.6,0.6l33.1,13.1
			l3.2,1.3l8.7,3.4C393.2,423.5,393.7,424.2,393.8,425z"/>
		<polygon class="st24" points="343.6,413.4 335.2,420.7 356.2,429.1 364.7,421.7 		"/>
	</g>
	<g>
		<path class="st51" d="M271.6,424.3l64.8-34.4c0.7-0.6,1.6-0.8,2.5-0.4l50.9,20.1c1.7,0.7,2.1,2.9,0.7,4l-65,34.6
			c-0.7,0.6-1.6,0.8-2.5,0.4l-50.7-20.3C270.6,427.7,270.2,425.5,271.6,424.3z"/>
		<path class="st52" d="M387.2,411.6c-0.3,0.2-0.3,0.6-0.3,0.9l-47.3-18.7c-0.8-0.3-1.8-0.2-2.5,0.4l-62.8,32.7
			c-1.5-0.2-3.5-0.3-3.5-0.3l0.8,4.5l0.1,0c0.2,0.7,0.6,1.3,1.4,1.6l50.7,20.3c0.8,0.3,1.8,0.2,2.5-0.4l65-34.6
			c0.5-0.5,0.7-1.1,0.8-1.7l0.1,0l-0.8-4.9C391.3,411.4,387.8,411.2,387.2,411.6z"/>
		<path class="st53" d="M391.3,411.4l0.8,4.9l-0.1,0c0,0.6-0.2,1.2-0.8,1.7l-65,34.6c-0.7,0.6-1.6,0.7-2.5,0.4l-10.9-4.3l-3.3-1.3
			L273,432.7c-0.7-0.3-1.2-0.9-1.4-1.6l-0.1,0l-0.8-4.5c0,0,2,0.2,3.5,0.3l62.8-32.7c0.7-0.6,1.6-0.7,2.5-0.4l35,13.8l3.2,1.3
			l9.1,3.6c0-0.4,0.1-0.8,0.3-0.9C387.8,411.2,391.3,411.4,391.3,411.4z"/>
		<path class="st55" d="M391.3,411.4c0.1,0.8-0.1,1.6-0.8,2.2l-65,34.6c-0.7,0.6-1.6,0.8-2.5,0.4l-10.9-4.3l-3.3-1.3l-33-13.2
			l-1.6-0.7l-2-0.8c-0.8-0.3-1.3-1-1.4-1.7c-0.2-0.8,0.1-1.7,0.8-2.3l64.9-34.4c0.7-0.6,1.6-0.7,2.5-0.4l4.3,1.7l1.6,0.6l33.1,13.1
			l3.2,1.3l8.7,3.4C390.6,409.9,391.1,410.6,391.3,411.4z"/>
		<g>
			<polygon class="st56" points="312.1,444.2 312.1,444.3 312.9,448.6 309.5,447.3 308.8,443 308.8,443 374.6,407.7 379,405.2 
				382.2,406.5 377.8,408.9 			"/>
		</g>
		<polygon class="st24" points="346.3,398.6 335.2,404.6 356.2,413 367.3,406.9 		"/>
	</g>
	<g>
		<path class="st57" d="M437.9,159.2h-12.8c0,0-6-4.4,0-5s6-0.6,6-0.6L437.9,159.2z"/>
		<polygon class="st57" points="426.3,53.2 413,53.2 413,54.9 420.4,56.6 427.1,56 		"/>
		<g>
			
				<ellipse transform="matrix(0.9776 -0.2106 0.2106 0.9776 -12.6889 93.2195)" class="st57" cx="431.3" cy="106.2" rx="37.3" ry="53.6"/>
			
				<ellipse transform="matrix(0.9776 -0.2106 0.2106 0.9776 -12.9368 90.8919)" class="st58" cx="420.3" cy="106.2" rx="37.3" ry="53.6"/>
			
				<ellipse transform="matrix(0.9776 -0.2106 0.2106 0.9776 -12.9368 90.8919)" class="st5" cx="420.3" cy="106.2" rx="28.7" ry="41.3"/>
			<g>
				<g>
					<path class="st57" d="M421.7,108.4c0.4,2.1-0.5,4-1.9,4.3c-1.5,0.2-3-1.3-3.4-3.4c-0.4-2.1,0.5-4,1.9-4.3
						C419.7,104.8,421.2,106.3,421.7,108.4z"/>
				</g>
				<g>
					<path class="st57" d="M419,110.2c-0.8,0-1.4-0.6-1.4-1.4V85.1c0-0.8,0.6-1.4,1.4-1.4c0.8,0,1.4,0.6,1.4,1.4v23.7
						C420.4,109.6,419.7,110.2,419,110.2z"/>
				</g>
				<g>
					<path class="st57" d="M419,110.2c-0.7,0-1.2-0.5-1.4-1.1c-0.1-0.7,0.4-1.5,1.1-1.6l16.2-2.7c0.8-0.1,1.5,0.4,1.6,1.1
						s-0.4,1.5-1.1,1.6l-16.2,2.7C419.1,110.2,419.1,110.2,419,110.2z"/>
				</g>
			</g>
		</g>
	</g>
	<g>
		<path class="st50" d="M353.9,295.7c0-1.1-1.2-1.8-2.2-1.2l-34,15.6c-0.6,0.3-0.9,1-0.8,1.6l7,40.3c0.1,0.6-0.2,1.3-0.7,1.6
			l-21.1,13.5c-1,0.7-1,2.2,0.1,2.7l17.4,9.8c1.3,0.7,2.8,0.7,4,0c7.4-4.3,33-19.4,41.3-24.3c1.1-0.7,1-2.3-0.1-2.8l-3.7-1.7
			c-0.6-0.3-1-0.9-0.9-1.5L353.9,295.7z"/>
		<path class="st54" d="M345.4,276.1l-38.2,22.4l13.1,7.4l27.4-22.6l0-5.9C347.6,276.2,346.4,275.5,345.4,276.1z"/>
		<polygon class="st24" points="307.2,300.5 345.2,278.3 359,286.1 321,308.3 		"/>
		<path class="st59" d="M360,283.7c-0.5-0.3-1.1-0.5-1.7-0.1l-38.1,22.3l-13.1-7.4l38.2-22.4c0.4-0.2,0.9-0.2,1.2-0.1v0
			c0,0-1.3-0.6-1.9-1c-0.5-0.3-1.1-0.4-1.6-0.1L303,298.5l0.5,67.8l15.1-8.8l0.1,17.4l41.1-24.1c0.8-0.5,1.2-1.3,1.2-2.2l0.8-64
			C361.8,284.7,360.6,284.1,360,283.7z"/>
		<polygon class="st55" points="320.3,308.3 303,298.5 303.5,366.3 320.8,376.1 		"/>
		<path class="st54" d="M360.5,284.8l-40.2,23.5l0.5,67.8l41.1-24.1c0.8-0.5,1.2-1.3,1.2-2.2l-0.5-63.9
			C362.7,284.9,361.5,284.2,360.5,284.8z"/>
		<polygon class="st60" points="356.8,295.7 337.7,306.9 337.9,319 357,307.8 		"/>
	</g>
	<g>
		<path class="st50" d="M440.1,372.2c-9.3,0.3-16.8,4.9-16.6,10.4c0,0,0,2.1,0,3c0,0.5,0.1,1,0.2,1.5c0.4,1.5,1.4,2.9,2.9,4
			l-3.5,2.2c-0.5-0.2-0.9-0.3-1.4-0.3c-0.2,0-0.5,0.1-0.7,0.2c0,0-0.1,0-0.1,0.1l-0.1,0.1c0,0,0,0-0.1,0c0,0,0,0,0,0l-19.4,12
			c0,0,0,0,0,0c0,0-0.1,0-0.1,0.1l-0.1,0.1c0,0,0,0-0.1,0c-1.1,0.8-1.4,2.5-0.7,4c0.8,1.7,2.5,2.5,3.9,1.9h0
			c0.1-0.1,0.3-0.2,0.4-0.3c0,0,0,0,0,0l19.3-11.9c0,0,0,0,0,0l0,0c0.1-0.1,0.3-0.2,0.4-0.3c0.3-0.3,0.6-0.6,0.8-1.1
			c0.2-0.4,0.2-0.9,0.2-1.5l4.7-3l0,0c0.1,0,0.2-0.1,0.2-0.1c0,0,0.1-0.1,0.1-0.1c2.9,1.2,6.5,1.9,10.4,1.8
			c8.5-0.2,15.4-4.1,16.5-8.9c0.1-0.5,0.1-4.5,0.1-4.5C457.1,376.1,449.5,371.9,440.1,372.2z"/>
		<g>
			<path class="st61" d="M421.3,383.7c0,0.5,0.1,1,0.2,1.5c1.4,4.7,8.5,8.2,17,7.9s15.4-4.1,16.5-8.9c0.1-0.5,0.1-4.5,0.1-4.5
				s-4.4-8.8-17.2-8.7c-7.7,0.1-16.6,9.7-16.6,9.7S421.3,382.7,421.3,383.7z M424,383.6c0-1.2,0.4-2.4,1.1-3.4
				c2.1-3,7.1-5.2,12.9-5.3c5.8-0.2,10.9,1.7,13.2,4.6c0.8,1,1.3,2.1,1.3,3.3c0.1,4.6-6.1,6.4-14,6.6
				C430.6,389.6,424.2,388.2,424,383.6z"/>
			<g>
				<linearGradient id="SVGID_1_" gradientUnits="userSpaceOnUse" x1="423.3749" y1="380.2334" x2="452.9881" y2="380.2334">
					<stop  offset="0" style="stop-color:#B3BAE0;stop-opacity:0.1"/>
					<stop  offset="1" style="stop-color:#B3BAE0;stop-opacity:0.3"/>
				</linearGradient>
				<path class="st62" d="M423.4,380.7c0.1,4.7,6.9,8.3,15.1,8.1c8.2-0.2,14.7-4.2,14.6-8.9c-0.1-4.7-6.9-8.3-15.1-8.1
					C429.8,372,423.2,376,423.4,380.7z"/>
				<path class="st63" d="M429.7,373.4c14.7,0.3,19.2,7.6,20.4,11.7c1.9-1.5,3-3.3,2.9-5.3c-0.1-4.7-6.8-8.1-15-7.9
					C435,372,432,372.4,429.7,373.4z"/>
				<path class="st63" d="M424.8,380.9c0.1,4.2,6.1,7.4,13.3,7.1c7.2-0.2,13-3.8,12.9-7.9c0-0.1,0-0.2,0-0.4
					c-0.4,3.9-6,7.1-12.9,7.3c-7,0.2-12.8-2.8-13.3-6.8C424.8,380.5,424.8,380.7,424.8,380.9z"/>
			</g>
			<path class="st64" d="M422.8,377.7l3.8-4l11.1-2.7l11.2,2.1l4.1,3.8l1.1,2.3l-1.6,0.6c0,0-1.9-7.6-14.7-7.2
				c-12.8,0.4-14.2,8.1-14.2,8.1l-1.6-0.5L422.8,377.7z"/>
			<path class="st65" d="M421.3,380.7c0,0.5,0.1,1,0.2,1.5c1.4,4.7,8.5,8.2,17,7.9c8.5-0.2,15.4-4.1,16.5-8.9c0.1-0.5,0.2-1,0.1-1.5
				c-0.2-5.5-7.9-9.7-17.2-9.4C428.6,370.5,421.2,375.2,421.3,380.7z M424,380.6c0-1.2,0.4-2.4,1.1-3.4c2.1-3,7.1-5.2,12.9-5.4
				c5.8-0.2,10.9,1.7,13.2,4.6c0.8,1,1.3,2.1,1.3,3.3c0.1,4.6-6.1,8.5-14,8.8C430.6,388.7,424.2,385.2,424,380.6z"/>
			<path class="st66" d="M421.3,380.7c0,0.5,0.1,1,0.2,1.5c1.4,4.7,8.5,8.2,17,7.9c8.5-0.2,15.4-4.1,16.5-8.9c0.1-0.5,0.2-1,0.1-1.5
				c-0.2-5.5-7.9-9.7-17.2-9.4C428.6,370.5,421.2,375.2,421.3,380.7z M424,380.6c0-1.2,0.4-2.4,1.1-3.4c2.1-3,7.1-5.2,12.9-5.4
				c5.8-0.2,10.9,1.7,13.2,4.6c0.8,1,1.3,2.1,1.3,3.3c0.1,4.6-6.1,8.5-14,8.8C430.6,388.7,424.2,385.2,424,380.6z"/>
			<path class="st66" d="M419.3,392.4l0.3,0.5c0,0,0,0,0,0l1.4,2.1l0.4,0.6l6.3-4l0,0c0.1,0,0.2-0.1,0.2-0.1
				c0.2-0.2,0.3-0.4,0.4-0.6c0-0.1,0.1-0.3,0.1-0.4l0,0c0.1-0.4,0-0.8-0.2-1.3c-0.2-0.5-0.6-0.9-1.1-1.1c-0.2-0.1-0.5-0.1-0.7-0.1
				c-0.1,0-0.3,0.1-0.4,0.1c0,0,0,0-0.1,0l-0.1,0.1c0,0,0,0,0,0L419.3,392.4z"/>
			<path class="st5" d="M419.3,392.4l0.3,0.5c0,0,0,0,0,0l7.6-4.7c-0.2-0.1-0.5-0.1-0.7-0.1c-0.1,0-0.3,0.1-0.4,0.1c0,0,0,0-0.1,0
				l-0.1,0.1c0,0,0,0,0,0L419.3,392.4z"/>
			<path class="st67" d="M421.1,395l0.4,0.6l6.3-4l0,0c0.1,0,0.2-0.1,0.2-0.1c0.2-0.2,0.3-0.4,0.4-0.6c0-0.1,0.1-0.3,0.1-0.4
				L421.1,395z"/>
			<path class="st68" d="M399.1,403.5l0.9,1.6l2.4,4.2l19.3-11.9c0,0,0,0,0,0l0,0c0.1-0.1,0.3-0.2,0.4-0.3c0.3-0.3,0.6-0.6,0.8-1.1
				c0.3-0.8,0.3-1.9-0.2-2.9c-0.2-0.4-0.4-0.7-0.7-1c0,0,0,0,0,0c-0.7-0.8-1.6-1.2-2.5-1.1c-0.2,0-0.5,0.1-0.7,0.2
				c0,0-0.1,0-0.1,0.1l-0.1,0.1c0,0,0,0-0.1,0c0,0,0,0,0,0L399.1,403.5z"/>
			<path class="st69" d="M399.1,403.5l0.9,1.6l2.3-0.7l19.7-12.2c0,0,0,0,0,0c0,0,0,0,0,0c-0.7-0.8-1.6-1.2-2.5-1.1
				c-0.2,0-0.5,0.1-0.7,0.2c0,0-0.1,0-0.1,0.1l-0.1,0.1c0,0,0,0-0.1,0c0,0,0,0,0,0L399.1,403.5z"/>
			<path class="st70" d="M398.1,407.7c0.8,1.7,2.5,2.5,3.9,1.9l0,0c0.1-0.1,0.3-0.2,0.4-0.3c0.3-0.3,0.6-0.6,0.8-1.1
				c0.3-0.8,0.3-1.9-0.2-2.9c-0.7-1.4-2-2.2-3.2-2.1c-0.2,0-0.5,0.1-0.7,0.2c0,0-0.1,0-0.1,0.1l-0.1,0.1c0,0,0,0-0.1,0
				C397.7,404.4,397.4,406.1,398.1,407.7z"/>
		</g>
	</g>
	<g>
		<g>
			<ellipse class="st50" cx="385.7" cy="385.5" rx="12.9" ry="7.3"/>
			<ellipse class="st15" cx="385.7" cy="382.9" rx="12.9" ry="7.3"/>
			<polygon class="st15" points="403.4,344.8 398.5,382.9 372.8,383.4 367.9,344.8 			"/>
			<g>
				<ellipse class="st16" cx="385.7" cy="344.8" rx="17.7" ry="10.1"/>
				<path class="st71" d="M385.7,352.5c-9.1,0-15.4-4.1-15.4-7.8c0-3.7,6.3-7.8,15.4-7.8c9.1,0,15.4,4.1,15.4,7.8
					C401.1,348.4,394.7,352.5,385.7,352.5z"/>
				<path class="st72" d="M385.7,352.5c-9.1,0-15.4-4.1-15.4-7.8c0-3.7,6.3-7.8,15.4-7.8c9.1,0,15.4,4.1,15.4,7.8
					C401.1,348.4,394.7,352.5,385.7,352.5z"/>
			</g>
		</g>
		<g>
			<defs>
				<path id="SVGID_2_" d="M385.7,352.5c-9.1,0-15.4-4.1-15.4-7.8c0-3.7-4.1-57.3,23.4-55.5c9.1,0.6,7.5,51.8,7.5,55.5
					C401.1,348.4,394.7,352.5,385.7,352.5z"/>
			</defs>
			<clipPath id="SVGID_3_">
				<use xlink:href="#SVGID_2_"  style="overflow:visible;"/>
			</clipPath>
			<g class="st73">
				<path class="st74" d="M392,341.2L392,341.2c-0.3-0.1-0.5-0.4-0.5-0.7l1.1-5.5c0.1-0.3,0.4-0.5,0.7-0.5l0,0
					c0.3,0.1,0.5,0.4,0.5,0.7l-1.1,5.5C392.6,341.1,392.3,341.3,392,341.2z"/>
				<g>
					<path class="st75" d="M390.6,370.3c-0.1,0.5-1,0.6-2.1,0.2c-1.1-0.4-1.8-1.2-1.7-1.8c0.1-0.5,1-0.6,2.1-0.2
						C389.9,369,390.7,369.8,390.6,370.3z"/>
					<polygon class="st58" points="394.7,326.9 386.8,368.8 390.6,370.3 398.6,328.4 					"/>
					<path class="st76" d="M398.6,328.4c-0.1,0.5-1,0.6-2.1,0.2c-1.1-0.4-1.8-1.2-1.7-1.8c0.1-0.5,1-0.6,2.1-0.2
						C397.9,327.1,398.7,327.9,398.6,328.4z"/>
				</g>
			</g>
			<g class="st73">
				<path class="st11" d="M388.8,317.8l0,1.3l0,0.5l0,1.8l0,0.5l0,1.8l0,0.5l0,1.8l0,0.5l0,1.8l0,0.5l0,1.8l0,0.5l0,1.8l0,0.5l0,1.8
					l0,0.5l0,1.8l0,0.5l0,1.8l0,0.5l0,1.8l0,0.5l0,1.8l0,0.5l0,1.8l0,0.5l0,1.8l0,0.5l0,1.8l0,0.5l0,1.8l0,0.5l-0.2,7.5
					c0,1.7-1.3,2.9-2.5,2.4l-4-1.7c-0.8-0.4-1.4-1.4-1.3-2.6l1.3-44c0-1.6,1.1-2.7,2.2-2.5l3.7,0.8
					C388.2,315.3,388.9,316.5,388.8,317.8z"/>
				<g>
					<path class="st5" d="M388.8,319.1l0,0.5c0,0,0,0,0,0l-1.7-0.4c-0.1,0-0.2-0.2-0.2-0.3c0-0.1,0.1-0.2,0.2-0.2L388.8,319.1z"/>
				</g>
				<g>
					<path class="st5" d="M388.7,321.5l0,0.5c0,0,0,0,0,0l-1.7-0.4c-0.1,0-0.2-0.2-0.2-0.3c0-0.1,0.1-0.2,0.2-0.2L388.7,321.5z"/>
				</g>
				<g>
					<path class="st5" d="M388.7,323.9l0,0.5c0,0,0,0,0,0l-1.7-0.4c-0.1,0-0.2-0.2-0.2-0.3c0-0.1,0.1-0.2,0.2-0.2L388.7,323.9z"/>
				</g>
				<g>
					<path class="st5" d="M388.6,326.2l0,0.5c0,0,0,0,0,0l-1.7-0.4c-0.1,0-0.2-0.2-0.2-0.3c0-0.1,0.1-0.2,0.2-0.2L388.6,326.2z"/>
				</g>
				<g>
					<path class="st5" d="M388.6,328.5l0,0.5c0,0,0,0,0,0l-1.7-0.4c-0.1,0-0.2-0.2-0.2-0.3c0-0.1,0.1-0.2,0.2-0.2L388.6,328.5z"/>
				</g>
				<g>
					<path class="st5" d="M388.5,330.9l0,0.5h0l-1.7-0.4c-0.1,0-0.2-0.2-0.2-0.3c0-0.1,0.1-0.2,0.2-0.2L388.5,330.9z"/>
				</g>
				<g>
					<path class="st5" d="M388.5,333.3l0,0.5c0,0,0,0,0,0l-1.7-0.4c-0.1,0-0.2-0.2-0.2-0.3c0-0.1,0.1-0.2,0.2-0.2L388.5,333.3z"/>
				</g>
				<g>
					<path class="st5" d="M388.4,335.6l0,0.5h0l-1.7-0.4c-0.1,0-0.2-0.2-0.2-0.3c0-0.1,0.1-0.3,0.2-0.2L388.4,335.6z"/>
				</g>
				<g>
					<path class="st5" d="M388.3,338l0,0.5c0,0,0,0,0,0l-1.7-0.4c-0.1,0-0.2-0.2-0.2-0.3c0-0.1,0.1-0.2,0.2-0.2L388.3,338z"/>
				</g>
				<g>
					<path class="st5" d="M388.3,340.3l0,0.5h0l-1.7-0.4c-0.1,0-0.2-0.2-0.2-0.3c0-0.1,0.1-0.3,0.2-0.2L388.3,340.3z"/>
				</g>
				<g>
					<path class="st5" d="M388.2,342.7l0,0.5c0,0,0,0,0,0l-1.7-0.4c-0.1,0-0.2-0.2-0.2-0.3c0-0.1,0.1-0.2,0.2-0.2L388.2,342.7z"/>
				</g>
				<g>
					<path class="st5" d="M388.2,345.1l0,0.5h0c0,0,0,0,0,0l-1.7-0.4c-0.1,0-0.2-0.2-0.2-0.3c0-0.1,0.1-0.2,0.2-0.2L388.2,345.1z"/>
				</g>
				<g>
					<path class="st5" d="M388.1,347.5l0,0.5c0,0,0,0,0,0c0,0,0,0,0,0l-1.7-0.4c-0.1,0-0.2-0.2-0.2-0.3c0-0.1,0.1-0.2,0.2-0.2
						L388.1,347.5z"/>
				</g>
				<g>
					<path class="st5" d="M388,349.8l0,0.5h0l-1.7-0.4c-0.1,0-0.2-0.2-0.2-0.3c0-0.1,0.1-0.2,0.2-0.2L388,349.8z"/>
				</g>
				<g>
					<path class="st5" d="M388,352.2l0,0.5c0,0,0,0,0,0l-1.7-0.4c-0.1,0-0.2-0.2-0.2-0.3c0-0.1,0.1-0.2,0.2-0.2L388,352.2z"/>
				</g>
				<g>
					<path class="st5" d="M387.9,354.6l0,0.5h0l-1.7-0.4c-0.1,0-0.2-0.2-0.2-0.3c0-0.1,0.1-0.2,0.2-0.2L387.9,354.6z"/>
				</g>
			</g>
		</g>
	</g>
</g>
</svg>
