<?xml version="1.0" encoding="utf-8"?>
<!-- Generator: Adobe Illustrator 24.1.1, SVG Export Plug-In . SVG Version: 6.00 Build 0)  -->
<svg version="1.1" id="a02f2390-8fa7-48a9-96f1-2ec5f63ecbc1"
	 xmlns="http://www.w3.org/2000/svg" xmlns:xlink="http://www.w3.org/1999/xlink" x="0px" y="0px" viewBox="0 0 1149.8 627.5"
	 style="enable-background:new 0 0 1149.8 627.5;" xml:space="preserve">
<style type="text/css">
	.st0{opacity:0.1;fill:#F9A826;enable-background:new    ;}
	.st1{fill:#454B69;}
	.st2{fill:none;}
	.st3{opacity:0.4;enable-background:new    ;}
	.st4{opacity:0.1;enable-background:new    ;}
	.st5{fill:#EFB7B9;}
	.st6{fill:#FFFFFF;}
	.st7{fill:#F9A826;}
	.st8{opacity:0.1;}
	.st9{opacity:8.000000e-02;enable-background:new    ;}
	.st10{fill:#3F3D56;}
	.st11{fill:#9C9CA1;}
	.st12{fill:#939498;}
</style>
<path class="st0" d="M1137.7,582.1c-4.5,11-10,21.6-16.4,31.6c-3,4.8-6.3,9.3-9.9,13.7c0,0-0.1,0.1-0.1,0.1H-0.1l0.1-0.1
	c1-0.8,6.9-5.5,16-13.7c6.5-5.8,14.8-13.4,24-22.5c75.5-74.3,220.5-250,99.7-411C27.5,30.5,148.3,3.3,228.1,0.2
	C258.7-1,289.3,4,317.9,14.9c36.8,14,104.2,35.5,191.9,45.3c2.9,0.3,5.8,0.6,8.7,0.9c46.4,4.7,93.2,5.6,139.8,2.5l0,0
	c1.4-0.1,2.8-0.2,4.1-0.3c46.1-3.2,91.8-10.3,136.7-21.1c2.9-0.7,5.8-1.4,8.6-2.1c149.6-34.6,287.6,83.4,253.1,216.7
	c-12.8,49.3-9.5,101.9,33,144.4C1163.5,470.7,1155.1,539.1,1137.7,582.1z"/>
<path class="st1" d="M1137.7,582.1c-4.5,11-10,21.6-16.4,31.6c-3,4.8-6.3,9.3-9.9,13.7H0c1-0.8,6.9-5.5,16-13.7
	c6.5-5.8,14.8-13.4,24-22.5L157.1,567c1.5-0.3,3.1-0.5,4.6-0.5l124.9-0.2h0.1l61.9-0.1h0.1l52.2-0.1h34.2l0,0h35l143.4-0.2h0.2h11.1
	h19.5h24.4h6.5l24.6-0.3h8.1l71.6-0.1h22.9l0,0h11l0,0l82.8-0.1h24.6l78.4-0.1l66.2-0.1c1.8,0,3.7,0.2,5.5,0.7L1137.7,582.1z"/>
<path class="st2" d="M16,613.7h1105.3c-3,4.8-6.3,9.3-9.9,13.7H0C1,626.5,6.9,621.8,16,613.7z"/>
<path class="st3" d="M16,613.7h1105.3c-3,4.8-6.3,9.3-9.9,13.7H0C1,626.5,6.9,621.8,16,613.7z"/>
<path class="st1" d="M733.1,302.7l-2.2,0.4l-100.4,19.3c-29.2,5.6-58.7,11.2-88.3,9.1c-21.5-1.6-41.5-7.9-62.1-13.5
	c-11.6-3.2-24-4.4-28-17.5c-5.5-18,3.4-44.6,5.5-62.9c2-17.9,3.2-36.3-0.4-53.9c-0.8-4-1.8-7.9-3.1-11.7
	c-3.6-10.6-9.2-21.6-6.1-32.4c2.4-8.5,9.7-14.6,16.5-20.3c13.4-11,27-23.3,32.3-39.8c2.6-8,3.1-16.6,5.9-24.6
	c5.3-15.1,18.6-26.4,33.5-32.4s31.2-7.3,47.2-7.3c14.1,0,28.3,0.9,42.3,2.8c15.3,2,30.7,5.3,44.1,12.9s24.8,20,27.9,35.1
	c4.4,21.4-7.9,44.2-1.3,65c3.3,10.5,11,19,16.3,28.6c8.8,16.3,10.6,35.4,5,53c-6.4,19.8-22,39.8-14,58.9
	c5.1,12.2,18.1,18.7,27.2,28.4C731.6,301,732.4,301.8,733.1,302.7z"/>
<path class="st4" d="M730.8,300.2v3l-100.4,19.3c-29.2,5.6-58.7,11.2-88.3,9.1c-21.5-1.6-41.5-7.9-62.1-13.5
	c-11.6-3.2-24-4.4-28-17.5c-5.5-18,3.4-44.6,5.5-62.9c2-17.9,32.8-83.3,29.2-100.9l184,8c1.2,9.8,49.9,58.8,46.8,68.2
	c-6.4,19.8-22,39.8-14,58.9C708.8,284,721.8,290.5,730.8,300.2z"/>
<path class="st5" d="M542.8,250.7c1.1,6.2,1.7,13-1.5,18.4c-4.2,7.2-13.4,9.5-21.6,11.2l-28.5,5.7c-1.9,0.4-4,0.8-5.5,2.2
	c-1.7,1.5-2.3,4-2.5,6.2c-1.1,10.3,2.5,20.5,5.8,30.3c6.7,19.9,12.4,40.2,20.9,59.4c8.5,19.2,20.2,37.5,36.9,50.4
	s38.7,19.7,59.1,14.7c17.8-4.4,32.4-16.9,44.9-30.2c10.4-11,20.1-23,25.1-37.3c3.5-9.8,4.6-20.2,5.7-30.6
	c1.7-15.9,3.4-31.7,5.1-47.6c0.8-7.4,1.3-15.8-3.5-21.5c-2.1-2.5-5-4.2-7.9-5.7c-10.9-5.8-22.5-10.6-32.6-17.6s-19.2-16.6-22.3-28.6
	c-1.8-7.2-1.5-15-4.7-21.7c-3.5-7.5-11-12.6-19-14.8s-16.4-1.9-24.7-1s-40,3.3-43.4,12.6c-1.8,5,5.8,15.7,7.6,20.6
	C539.1,233.9,541.4,242.2,542.8,250.7z"/>
<path class="st4" d="M542.8,250.7c1.1,6.2,1.7,13-1.5,18.4c-4.2,7.2-13.4,9.5-21.6,11.2l-28.5,5.7c-1.9,0.4-4,0.8-5.5,2.2
	c-1.7,1.5-2.3,4-2.5,6.2c-1.1,10.3,2.5,20.5,5.8,30.3c6.7,19.9,12.4,40.2,20.9,59.4c8.5,19.2,20.2,37.5,36.9,50.4
	s38.7,19.7,59.1,14.7c17.8-4.4,32.4-16.9,44.9-30.2c10.4-11,20.1-23,25.1-37.3c3.5-9.8,4.6-20.2,5.7-30.6
	c1.7-15.9,3.4-31.7,5.1-47.6c0.8-7.4,1.3-15.8-3.5-21.5c-2.1-2.5-5-4.2-7.9-5.7c-10.9-5.8-22.5-10.6-32.6-17.6s-19.2-16.6-22.3-28.6
	c-1.8-7.2-1.5-15-4.7-21.7c-3.5-7.5-11-12.6-19-14.8s-16.4-1.9-24.7-1s-40,3.3-43.4,12.6c-1.8,5,5.8,15.7,7.6,20.6
	C539.1,233.9,541.4,242.2,542.8,250.7z"/>
<path class="st6" d="M611.4,359.4l16.7-35.4c7.8-16.6,15.8-34,15-52.3c-0.2-3.6-0.2-8.2,3-9.8c1.4-0.6,2.9-0.8,4.4-0.6
	c17.6,0.9,35,4.4,51.5,10.4c3.2,1.2,6.5,2.5,8.8,5.1s3.2,6,3.9,9.3c2.6,11.2,4.5,22.5,5.7,33.9c3,28.2,1.5,56.7,0,85l-4.4,86.4
	c0,1.2-0.2,2.4-0.7,3.6c-1.1,2-3.6,2.7-5.8,3c-8.6,1.5-17.4,1.2-26.1,0.8c-61.2-2.3-122.7-5.9-183.5,1.5c0.3-9,0.1-18-0.4-27
	c-2.4-38.9-12.5-76.8-22.4-114.5c-5.8-22-11.4-46-2.1-66.7c1.4-3.3,3.3-6.3,5.8-8.8c4-3.9,9.3-5.9,14.7-7.4
	c9.2-2.5,18.8-3.6,28.3-3.2l63,137.3c2.9,6.3,5.3,12.9,8.1,19.1c2.6-10.7-0.5-23.3,2.6-34.9C600.8,382.2,606.1,370.7,611.4,359.4z"
	/>
<path class="st7" d="M604.8,453.9c11.3,0.7,22.2-5.1,30-13.2s12.9-18.5,17.2-29c6.2-14.9,11.2-30.3,14.8-46.1
	c3-13.4,5.1-27.3,3.1-40.9c-2.9-18.8-13.5-35.8-15.3-54.7c-0.3-3.3-0.1-7.2,2.5-9.1c1.6-1.2,3.8-1.4,5.8-1.5
	c18.9-1.1,39.6-0.9,54.2,11.1c4.5,3.6,8.1,8.2,12.4,11.9c10.4,9,25,13.6,31.7,25.5c2.3,4.2,3.4,8.9,5,13.4
	c3.8,10.6,10.4,19.9,17,29.1c-6.4,26.9-13.7,53.8-20.1,80.7c-3.7,15.8-7.5,31.6-13.3,46.7c-3.8,9.9-8.7,20-7.5,30.6
	c0.5,4.2,1.9,8.2,3.1,12.2c4.2,14.1,6.2,28.8,5.9,43.5L466,564.7c13.7-19.6,17.7-43.6,16.3-67.5c-0.7-11.4-3.3-22.9-9-32.8
	c-9.1-15.5-25-25.6-40.7-34.3c-11-6-22.8,27.8-34.7,23.9c1.9-13.6,2.8-66,2-79.7c-0.3-4.5-0.7-9.1,0.7-13.4c0.9-2.9,2.7-5.5,3.8-8.4
	c4.7-11.4,0.2-26,7.8-35.7c5.2-6.8,14.4-8.7,21.9-12.8c7.7-4.3,13.6-11,20.3-16.7c13.1-11.1,29.1-18.3,46.2-20.6
	c5,7.8,8,16.8,8.8,26c0.5,5.8,0.1,11.7,1,17.5c1.1,7.8,4.3,15.2,7.6,22.4c13.4,30.2,26.8,60.5,43.7,88.8c4.8,8,10,16,16.9,22.2
	S595.5,454.3,604.8,453.9z"/>
<path class="st4" d="M604.8,453.9c11.3,0.7,22.2-5.1,30-13.2s12.9-18.5,17.2-29c6.2-14.9,11.2-30.3,14.8-46.1
	c3-13.4,5.1-27.3,3.1-40.9c-2.9-18.8-13.5-35.8-15.3-54.7c-0.3-3.3-0.1-7.2,2.5-9.1c1.6-1.2,3.8-1.4,5.8-1.5
	c18.9-1.1,39.6-0.9,54.2,11.1c4.5,3.6,8.1,8.2,12.4,11.9c10.4,9,25,13.6,31.7,25.5c2.3,4.2,3.4,8.9,5,13.4
	c3.8,10.6,10.4,19.9,17,29.1c-6.4,26.9-13.7,53.8-20.1,80.7c-3.7,15.8-7.5,31.6-13.3,46.7c-3.8,9.9-8.7,20-7.5,30.6
	c0.5,4.2,1.9,8.2,3.1,12.2c4.2,14.1,6.2,28.8,5.9,43.5L466,564.7c13.7-19.6,17.7-43.6,16.3-67.5c-0.7-11.4-3.3-22.9-9-32.8
	c-9.1-15.5-25-25.6-40.7-34.3c-11-6-22.8,27.8-34.7,23.9c1.9-13.6,2.8-66,2-79.7c-0.3-4.5-0.7-9.1,0.7-13.4c0.9-2.9,2.7-5.5,3.8-8.4
	c4.7-11.4,0.2-26,7.8-35.7c5.2-6.8,14.4-8.7,21.9-12.8c7.7-4.3,13.6-11,20.3-16.7c13.1-11.1,29.1-18.3,46.2-20.6
	c5,7.8,8,16.8,8.8,26c0.5,5.8,0.1,11.7,1,17.5c1.1,7.8,4.3,15.2,7.6,22.4c13.4,30.2,26.8,60.5,43.7,88.8c4.8,8,10,16,16.9,22.2
	S595.5,454.3,604.8,453.9z"/>
<circle class="st5" cx="589.8" cy="162.7" r="85.7"/>
<path class="st1" d="M544.8,276.9c2.3-22.2-6.9-43.9-17.3-63.6c-5-9.4-10.4-18.8-12.9-29.2s-1.8-22.1,4.6-30.6
	c5.5-7.2,14.1-11.1,22.1-15.4c22.6-12,43.3-29.6,53.2-53.2c-5.6,3.1-4.2,12.2,0.8,16.2s11.7,4.8,17.8,6.7
	c22.2,7,35.6,29.2,46.3,49.9c1.8,3.4,3.5,7,3.5,10.8s-1.8,7.2-3.6,10.4c-5.3,9.4-11.7,18.4-14.1,28.9c-2.8,12,0.2,24.6,3.9,36.4
	c4,12.5,9.3,25.1,18.9,34.1s24.5,13.4,36.3,7.6c-11.8-20.3-24-42.9-19.4-65.9c2.2-11,8.2-21,10.7-31.9c4.8-20.9-3.2-42.3-11.1-62.3
	L661,66.6c-3.6-9.1-7.7-18.8-16-23.9c-5.6-3.5-12.4-4.4-18.9-5c-21.1-1.9-43-1.3-62.7,6.6c-35.8,14.3-58.3,49.6-76.1,83.8
	c-5.3,10.3-10.6,21.1-10.4,32.7c0.1,6.3,1.9,12.5,3.3,18.7c5.9,25.2,6.2,51.2,6.5,77.1c0.2,19.8-0.8,38.5-9.5,56.5
	c11.9,2.4,29.1,8.7,40.9,4.1C533.4,311,542.8,292.4,544.8,276.9z"/>
<g class="st8">
	<path d="M486.6,256.1c0-2.8,0-5.7,0-8.5c-0.3-25.8-0.6-51.9-6.5-77.1c-1.3-4.9-2.3-9.9-3.1-14.9c-0.2,1.7-0.3,3.5-0.3,5.2
		c0.1,6.3,1.9,12.5,3.3,18.7C486,204.5,486.3,230.4,486.6,256.1z"/>
	<path d="M695.7,188.3c1.3-5.8,1.8-11.8,1.3-17.8c-0.2,3-0.6,5.9-1.3,8.8c-2.5,11-8.5,20.9-10.7,31.9c-1,4.9-1.2,9.8-0.8,14.8
		c0.2-1.9,0.4-3.9,0.8-5.8C687.2,209.2,693.2,199.2,695.7,188.3z"/>
	<path d="M662.2,164c0.5-1.4,0.8-2.9,0.8-4.4c0-3.8-1.8-7.4-3.5-10.8c-10.7-20.7-24-42.9-46.3-49.9c-6.1-1.9-12.8-2.7-17.8-6.7
		c-2.6-2.2-4.2-5.4-4.4-8.8c-10.8,19.9-29.5,35.1-49.6,45.8c-8,4.3-16.7,8.2-22.1,15.4c-5.1,6.8-6.6,15.6-5.7,24.2
		c0.5-5.5,2.5-10.7,5.7-15.2c5.5-7.2,14.1-11.1,22.1-15.4c20.2-10.7,38.8-25.9,49.6-45.8c0.2,3.4,1.8,6.6,4.4,8.8
		c5,4,11.7,4.8,17.8,6.7c22.2,7,35.6,29.2,46.3,49.9C660.6,159.8,661.5,161.9,662.2,164z"/>
	<path d="M668.1,269.5c-9.6-9-14.9-21.6-18.9-34.1c-2.4-7-4-14.3-4.8-21.7c-0.9,10.3,1.6,20.8,4.8,30.7c4,12.5,9.3,25.1,18.9,34.1
		s24.5,13.4,36.3,7.6c-1.4-2.4-2.8-4.9-4.2-7.4C689.2,281.8,676.6,277.4,668.1,269.5z"/>
	<path d="M544.8,267.9c-1.9,15.4-11.4,34.1-26.7,40.2c-10.7,4.2-25.9-0.6-37.4-3.3c-1,2.8-2.1,5.6-3.4,8.3
		c11.9,2.4,29.1,8.7,40.9,4.1c15.4-6.1,24.8-24.8,26.7-40.2c0.4-3.9,0.5-7.7,0.2-11.6C544.9,266.2,544.8,267.1,544.8,267.9z"/>
</g>
<path class="st6" d="M665.9,515.9c-15.5-2.5-31.1-7.2-46.5-4c-8.9,1.8-17,6.3-24.4,11.6c4.1,3.3,8.8,6.2,11.4,10.7
	c1.6,3.1,2.8,6.4,3.6,9.9c1.6,6,3.3,12.1,3.5,18.4s-1,12.7-4.7,17.8c19.5,1.9,38.4-2.9,57.4-7.6c2.2-0.4,4.2-1.2,6.1-2.5
	c3-2.4,3.9-6.6,3.9-10.4c0-6.8-1.9-13.5-3.9-20.1C670,531.8,668.3,523.7,665.9,515.9z"/>
<path class="st7" d="M770.3,347.2c7.7,1,13.6,7.2,18,13.5c12.3,17.7,17.6,39.2,23.5,59.9c7.3,25.8,16,51.2,25.9,76.1
	c2.1,5.8,4.7,11.4,7.8,16.7c2.5,4.1,5.5,8.1,6.6,12.8c2.6,11.3-6.7,22-16.5,28.3c-5.2,3.5-10.9,6.2-16.8,8.1
	c-5.8,1.7-11.9,2.4-17.9,3.1l-55.5,6c-25.5,2.8-51.3,5.6-76.9,2.9c-1.6-5.6,1.5-9.6,1.3-15.4c-0.2-4.2-2-8-3.6-11.9
	c-3-6.8-5-14.1-5.9-21.5c-0.3-2.7-0.4-5.5-1.4-8.1s-3.3-4.8-6-5c15-1.5,26.4-4.3,41.4-5.8c5.6-0.6,11.4-1.2,16.1-4.2
	c5.9-3.7,9.2-10.3,11.8-16.7c6.5-15.9,10.7-33.4,7.3-50.3c-2.8-13.8-10.6-26.7-10.6-40.8c0-8.4,2.9-16.5,6.2-24.2
	c3.6-8.1,8.3-16.4,16.1-20.5S761.4,346,770.3,347.2z"/>
<path class="st9" d="M770.3,347.2c7.7,1,13.6,7.2,18,13.5c12.3,17.7,17.6,39.2,23.5,59.9c7.3,25.8,16,51.2,25.9,76.1
	c2.1,5.8,4.7,11.4,7.8,16.7c2.5,4.1,5.5,8.1,6.6,12.8c2.6,11.3-6.7,22-16.5,28.3c-5.2,3.5-10.9,6.2-16.8,8.1
	c-5.8,1.7-11.9,2.4-17.9,3.1l-55.5,6c-25.5,2.8-51.3,5.6-76.9,2.9c-1.6-5.6,1.5-9.6,1.3-15.4c-0.2-4.2-2-8-3.6-11.9
	c-3-6.8-5-14.1-5.9-21.5c-0.3-2.7-0.4-5.5-1.4-8.1s-3.3-4.8-6-5c15-1.5,26.4-4.3,41.4-5.8c5.6-0.6,11.4-1.2,16.1-4.2
	c5.9-3.7,9.2-10.3,11.8-16.7c6.5-15.9,10.7-33.4,7.3-50.3c-2.8-13.8-10.6-26.7-10.6-40.8c0-8.4,2.9-16.5,6.2-24.2
	c3.6-8.1,8.3-16.4,16.1-20.5S761.4,346,770.3,347.2z"/>
<path class="st5" d="M422.7,334.2c3.6-8.6,7.3-17.5,7.4-26.9c0.1-10.1-4-19.7-7.1-29.3c-3.9-11.7-6.5-23.9-7.7-36.2
	c-0.3-1.2-0.1-2.4,0.5-3.5c0.8-1.2,2.4-1.4,3.8-1.7c6.9-1.6,12.1-7.2,16.5-12.8c6.7-8.7,12.4-18.1,16.9-28.2
	c3.3-7.4,7.8-16.4,15.9-16.4c-3.3,15.3-7.3,30.4-12.1,45.3c8.5-2.2,16.5-5.3,24.9-7.5c1.7-0.5,3.4-0.8,5.1-0.7
	c5.1,0.5,8.2,7.4,5.2,11.5c4.1,4.8,11,6.1,16.4,9.5c5.4,3.3,9.3,11.5,4.5,15.7c-0.9,0.8-2.1,1.4-2.8,2.4c-2.3,3.6,3.4,7.7,2.9,11.9
	c-0.4,3.5-4.8,5.1-8.2,4.2s-6-3.4-9-5.3s-6.9-3-9.8-1.1c-0.8,9.4-1.6,19-5.7,27.6c-1.5,3.1-3.4,6.1-4.6,9.3
	c-1.1,3.5-1.9,7.2-2.1,10.9l-3.6,33.2C452.5,349.7,437,344.5,422.7,334.2z"/>
<path class="st6" d="M418.4,364l-3.2-21.6c-0.3-1.8-0.5-3.5-0.5-5.3c0-5,2.2-9.8,4.3-14.3c17.6,8.2,36.7,11.2,56.2,11.2
	c2.6,0,5.5-0.2,7.1-2.3c3.3,3.8,3.4,9.9,2,14.8s-4.1,9.2-5.9,13.9c-0.9,2.4-1.6,5-3.4,6.8c-2.7,2.9-7.1,3.4-11.1,3.4
	c-4.2,0-8.4-0.4-12.5-1.2C440.9,367.4,429.1,362.1,418.4,364z"/>
<path class="st7" d="M484.3,363.1c-13.7-1.6-27.3-3.8-40.8-6.6c-6.6-1.4-13.3-2.9-20.1-2.7c-4.4,0.2-9.1,1.1-13-1.1
	c3.8,12.8,4,26.3-0.5,38.9c-2.7,7.5-6.7,14.5-8.7,22.2c-4.1,16.2,1.5,33.8-3.6,49.6c-0.5,2.1-1.6,4-3.1,5.5
	c-1.6,1.4-3.7,2.2-5.1,3.7c-2.1,2.3-2.3,5.7-2.3,8.8l-0.1,27.5c-0.1,17.5,0.2,36.1,9.4,51c10.6,17,32.8,25.8,52.1,20.6
	c5.1-1.3,10-3.7,14.2-6.9c6.7-5.3,11-13.1,15.2-20.6c5-9,10-18.2,11.6-28.3c1.1-7.2,0.5-14.5-0.3-21.7c-4.5-40-14.3-79.7-12.2-119.8
	C477.3,376,479.8,369,484.3,363.1z"/>
<path class="st5" d="M541.5,529.1c-7,0.4-14,0.8-20.9,0c-5-0.6-9.9-1.8-14.8-2.7c-27.4-4.4-55.4,3.3-76.6,21.3
	c-3.8,3.3-7.7,8.3-5.6,12.9c2.3,4.9,9.3,4.8,14.6,3.9c-5.8,2.8-10.9,6.8-15,11.7c-1.5,1.8-2.9,4-2.6,6.4c0.6,5,7.3,5.8,12.3,5.4
	c-1.6,1.7-0.5,4.8,1.5,6s4.6,0.9,7,0.5c5.2-0.9,10.1-2.7,14.8-5.1c-0.9,2.5,0.7,5.3,3,6.5s5.1,1.1,7.7,0.7
	c12.2-2,22.4-10.5,34.3-13.8c19.1-5.3,39,3.2,58.8,3.8c6.2,0.2,12.6-0.4,18.2-3c6.9-3.2,12.5-9.1,19.8-11.2
	c8.1-2.3,17.5,0.3,24.9-3.7c5.4-2.9,0.5-25.3-0.8-29.7c-2.5-7.9-5.1-13.1-13.5-13.9C587.3,523.1,563,527.9,541.5,529.1z"/>
<path class="st6" d="M594.7,523c0,0,32.3,27.3,13.7,57.2l36-12.4v-26.1c0-1.2-13.7-19.9-13.7-19.9l-16.2-2.5L594.7,523z"/>
<path class="st10" d="M256.6,521.3h12.1c13.8,0,25,11.2,25,25v37.1l0,0h-62.1l0,0v-37.1C231.6,532.5,242.8,521.3,256.6,521.3
	C256.6,521.3,256.6,521.3,256.6,521.3z"/>
<path class="st4" d="M256.6,521.3h12.1c13.8,0,25,11.2,25,25v37.1l0,0h-62.1l0,0v-37.1C231.6,532.5,242.8,521.3,256.6,521.3
	C256.6,521.3,256.6,521.3,256.6,521.3z"/>
<circle class="st10" cx="260.2" cy="530" r="5"/>
<circle class="st10" cx="260.2" cy="523.8" r="5"/>
<circle class="st10" cx="260.2" cy="517.6" r="5"/>
<circle class="st10" cx="260.2" cy="511.3" r="5"/>
<circle class="st10" cx="260.2" cy="505.1" r="5"/>
<circle class="st10" cx="260.2" cy="498.9" r="5"/>
<circle class="st10" cx="260.2" cy="492.7" r="5"/>
<circle class="st10" cx="267.7" cy="495.2" r="5"/>
<circle class="st10" cx="272.6" cy="492.7" r="5"/>
<circle class="st10" cx="277.6" cy="490.2" r="5"/>
<circle class="st10" cx="260.2" cy="486.5" r="5"/>
<circle class="st10" cx="260.2" cy="480.3" r="5"/>
<circle class="st10" cx="260.2" cy="474.1" r="5"/>
<circle class="st10" cx="260.2" cy="467.9" r="5"/>
<path class="st7" d="M280.9,451.8c-1.2,0.2-2.5,0.3-3.7,0.4c1.2-1,2.2-2.1,3.2-3.3c-0.7-2.1-1.7-4.1-3-5.8c-1.2,0.7-2.6,1.1-4,1.3
	c-1.2,0.2-2.5,0.3-3.7,0.4c1.6-1.3,3.1-3.3,4.8-5c-8.6-7.8-22-7.2-29.8,1.5c-7.8,8.6-7.2,22,1.5,29.8c8.6,7.8,22,7.2,29.8-1.5
	c3.5-3.9,5.5-8.9,5.5-14.2c0-1.2-0.1-2.4-0.3-3.6L280.9,451.8z"/>
<path class="st7" d="M297.4,476.5c-1.3,0.8-2.7,1.3-4.2,1.4c-1.2,0.2-2.5,0.3-3.7,0.4c1.3-1.2,2.5-2.5,3.7-3.8
	c-6.6-1.7-13.4,2.3-15.2,8.9c-1.7,6.6,2.3,13.4,8.9,15.2c6.6,1.7,13.4-2.3,15.2-8.9C303.4,484.7,301.5,479.5,297.4,476.5
	L297.4,476.5z"/>
<circle class="st10" cx="252.8" cy="495.2" r="5"/>
<circle class="st10" cx="247.8" cy="492.7" r="5"/>
<circle class="st10" cx="242.8" cy="490.2" r="5"/>
<path class="st7" d="M223,476.5c1.3,0.8,2.7,1.3,4.2,1.4c1.2,0.2,2.5,0.3,3.7,0.4c-1.3-1.2-2.6-2.5-3.7-3.8
	c6.6-1.7,13.4,2.3,15.2,8.9c1.7,6.6-2.3,13.4-8.9,15.2c-6.6,1.7-13.4-2.3-15.2-8.9C217,484.7,218.9,479.5,223,476.5L223,476.5z"/>
<path class="st10" d="M256.6,525h12.1c13.8,0,25,11.2,25,25l0,0v32.9c0,2.3-1.9,4.2-4.2,4.2h-53.7c-2.3,0-4.2-1.9-4.2-4.2V550
	C231.6,536.2,242.8,525,256.6,525C256.6,525,256.6,525,256.6,525z"/>
<g class="st8">
	<path d="M281.2,453.2c-0.5,0.5-1,1-1.6,1.5c0.6,0,1.1-0.1,1.7-0.2C281.3,454.1,281.2,453.6,281.2,453.2z"/>
	<path d="M272.1,447.3c1.3-0.1,2.5-0.2,3.7-0.4c1.1-0.1,2.2-0.4,3.2-0.9c-0.5-1-1.1-2-1.7-2.9c-0.6,0.4-1.3,0.7-2,0.8
		C274.4,445.1,273.3,446.2,272.1,447.3z"/>
	<path d="M241.6,457.9c0-11.6,9.4-21.1,21-21.1c4.1,0,8,1.2,11.5,3.4l0.3-0.3c-8.7-7.7-22-7-29.8,1.7s-7,22,1.7,29.8
		c0.1,0.1,0.2,0.1,0.2,0.2C243.3,467.8,241.6,462.9,241.6,457.9z"/>
</g>
<g class="st8">
	<path d="M289.5,480.8c1.2-0.1,2.5-0.2,3.7-0.4c1.5-0.1,2.9-0.6,4.2-1.4c2.8,2.1,4.7,5.3,5,8.8c0-0.4,0.1-0.9,0.1-1.3
		c0-3.9-1.8-7.7-5-10c-1.3,0.8-2.7,1.3-4.2,1.4l-1,0.1C291.5,479,290.5,479.9,289.5,480.8z"/>
	<path d="M290,476.6c0.4,0,0.8,0,1.2,0.1c0.6-0.7,1.3-1.4,1.9-2.2c-6.6-1.8-13.4,2.2-15.2,8.8c-0.3,1.1-0.4,2.1-0.4,3.2
		c0,0.4,0,0.8,0.1,1.2C278.3,481.4,283.7,476.6,290,476.6z"/>
</g>
<g class="st8">
	<path d="M230.9,480.8c-1.2-0.1-2.5-0.2-3.7-0.4c-1.5-0.1-2.9-0.6-4.2-1.4c-2.8,2.1-4.7,5.3-5,8.8c0-0.4-0.1-0.9-0.1-1.3
		c0-3.9,1.8-7.7,5-10c1.3,0.8,2.7,1.3,4.2,1.4l1,0.1C229,479,229.9,479.9,230.9,480.8z"/>
	<path d="M230.4,476.6c-0.4,0-0.8,0-1.3,0.1c-0.6-0.7-1.3-1.4-1.9-2.2c6.6-1.8,13.4,2.2,15.2,8.8c0.3,1.1,0.4,2.1,0.4,3.2
		c0,0.4,0,0.8-0.1,1.2C242.1,481.4,236.8,476.6,230.4,476.6z"/>
</g>
<path class="st7" d="M196.7,599.1H99c-2.3,0-4.2-1.9-4.2-4.2l0,0v-46.2c0-2.3,1.9-4.2,4.1-4.2c0.6,0,1.2,0.1,1.8,0.4
	c28.1,13.3,58.3,17.9,94,0.2c2.1-1,4.6-0.2,5.6,1.9c0.3,0.6,0.4,1.2,0.4,1.8v46C200.8,597.2,199,599.1,196.7,599.1
	C196.7,599.1,196.7,599.1,196.7,599.1z"/>
<path class="st4" d="M196.7,599.1H99c-2.3,0-4.2-1.9-4.2-4.2l0,0v-46.2c0-2.3,1.9-4.2,4.1-4.2c0.6,0,1.2,0.1,1.8,0.4
	c28.1,13.3,58.3,17.9,94,0.2c2.1-1,4.6-0.2,5.6,1.9c0.3,0.6,0.4,1.2,0.4,1.8v46C200.8,597.2,199,599.1,196.7,599.1
	C196.7,599.1,196.7,599.1,196.7,599.1z"/>
<ellipse class="st10" cx="147.2" cy="556.4" rx="5.8" ry="7.6"/>
<ellipse class="st10" cx="147.2" cy="547.1" rx="5.8" ry="7.6"/>
<ellipse class="st10" cx="147.2" cy="537.9" rx="5.8" ry="7.6"/>
<ellipse class="st10" cx="147.2" cy="528.6" rx="5.8" ry="7.6"/>
<ellipse class="st10" cx="147.2" cy="519.4" rx="5.8" ry="7.6"/>
<ellipse class="st10" cx="147.2" cy="510.1" rx="5.8" ry="7.6"/>
<ellipse class="st10" cx="147.2" cy="500.8" rx="5.8" ry="7.6"/>
<path class="st7" d="M168.9,437.5c0.8-1,1.5-2.1,2.1-3.2l-15.2-2.5l16.4,0.1c3.2-6.9,3.4-14.9,0.5-22l-22.1,11.4l20.3-15
	c-7.7-13.2-24.6-17.8-37.9-10.1s-17.8,24.6-10.1,37.9c0.7,1.1,1.4,2.2,2.2,3.3c-1.2,1.6-2.3,3.3-3.2,5l19.7,10.4l-21-7.1
	c-3,8.9-1.3,18.6,4.5,26c-9.5,12-7.4,29.4,4.6,38.9s29.4,7.4,38.9-4.6c7.9-10.1,7.9-24.2,0-34.3
	C176.8,461.7,176.8,447.5,168.9,437.5L168.9,437.5z"/>
<path class="st4" d="M119.3,454.6c0,6.2,2.1,12.3,5.9,17.1c-9.5,12-7.4,29.4,4.6,38.9s29.4,7.4,38.9-4.6c7.9-10.1,7.9-24.2,0-34.3
	C172.5,467.1,119.3,451.5,119.3,454.6z"/>
<path class="st7" d="M196.7,601.5H99c-2.3,0-4.2-1.9-4.2-4.2l0,0v-48.7c0-2.3,1.9-4.2,4.1-4.2c0.6,0,1.2,0.1,1.8,0.4
	c28.1,13.3,50.3,28.8,94,0.2c2.6-1.7,6,0.6,6,3.7v48.5C200.8,599.6,199,601.5,196.7,601.5z"/>
<polygon class="st11" points="921.7,587.8 777.5,606.8 770.3,607.8 699.9,570.2 699.9,561.3 920.1,537.3 "/>
<polygon class="st12" points="740.7,574.2 896.8,555.7 895.3,584.6 773.6,593.5 "/>
<path class="st3" d="M777.5,597.4v9.5l-7.2,1l-70.5-37.7v-8.8l67.3,36C767.1,597.3,775.9,598.2,777.5,597.4z"/>
<path class="st10" d="M805.2,447.2l-32.4,150c-1.1,5.2,2.2,10.3,7.3,11.4c1.1,0.2,2.2,0.3,3.3,0.1l204.7-27.1c3.6-0.5,6.7-3,7.8-6.5
	l44.2-133.2c1.7-5-1.1-10.5-6.1-12.1c-1.1-0.4-2.3-0.5-3.5-0.5l-216.5,10.3C809.8,439.9,806.1,443,805.2,447.2z"/>
<ellipse transform="matrix(0.1045 -0.9945 0.9945 0.1045 317.5543 1356.6727)" class="st6" cx="912.1" cy="502" rx="8.7" ry="5.6"/>
</svg>
