<?xml version="1.0" encoding="utf-8"?><svg xmlns="http://www.w3.org/2000/svg" xmlns:xlink="http://www.w3.org/1999/xlink" width="1907" height="115" preserveAspectRatio="xMidYMid" viewBox="0 0 1907 115" style="z-index:1;margin-right:-2px;display:block;background-repeat-y:initial;background-repeat-x:initial;animation-play-state:paused" ><g transform="" style="animation-play-state:paused" ><linearGradient id="lg-0.8798319077892451" x1="0" x2="1" y1="0" y2="0" style="animation-play-state:paused" ><stop stop-color="#ffffff" offset="0" style="animation-play-state:paused" ></stop>

  
<stop stop-color="#ffffff" offset="1" style="animation-play-state:paused" ></stop></linearGradient>
<path fill="url(#lg-0.8798319077892451)" opacity="0.4" d="M 0 0 L 0 57.5 Q 476.75 81.3205 953.5 57.5 T 1907 57.5 L 1907 0 Z" style="opacity:0.4;animation-play-state:paused" ></path>
<path fill="url(#lg-0.8798319077892451)" opacity="0.4" d="M 0 0 L 0 57.5 Q 476.75 78.4536 953.5 57.5 T 1907 57.5 L 1907 0 Z" style="opacity:0.4;animation-play-state:paused" ></path>
<path fill="url(#lg-0.8798319077892451)" opacity="0.4" d="M 0 0 L 0 57.5 Q 476.75 97.8523 953.5 57.5 T 1907 57.5 L 1907 0 Z" style="opacity:0.4;animation-play-state:paused" ></path>
<path fill="url(#lg-0.8798319077892451)" opacity="0.4" d="M 0 0 L 0 57.5 Q 476.75 99.7701 953.5 57.5 T 1907 57.5 L 1907 0 Z" style="opacity:0.4;animation-play-state:paused" ></path>
<path fill="url(#lg-0.8798319077892451)" opacity="0.4" d="M 0 0 L 0 57.5 Q 476.75 79.8957 953.5 57.5 T 1907 57.5 L 1907 0 Z" style="opacity:0.4;animation-play-state:paused" ></path>
<path fill="url(#lg-0.8798319077892451)" opacity="0.4" d="M 0 0 L 0 57.5 Q 476.75 81.3743 953.5 57.5 T 1907 57.5 L 1907 0 Z" style="opacity:0.4;animation-play-state:paused" ></path>
<path fill="url(#lg-0.8798319077892451)" opacity="0.4" d="M 0 0 L 0 57.5 Q 476.75 79.9738 953.5 57.5 T 1907 57.5 L 1907 0 Z" style="opacity:0.4;animation-play-state:paused" ></path>
<path fill="url(#lg-0.8798319077892451)" opacity="0.4" d="M 0 0 L 0 57.5 Q 476.75 97.1423 953.5 57.5 T 1907 57.5 L 1907 0 Z" style="opacity:0.4;animation-play-state:paused" ></path>
<path fill="url(#lg-0.8798319077892451)" opacity="0.4" d="M 0 0 L 0 57.5 Q 476.75 89.5812 953.5 57.5 T 1907 57.5 L 1907 0 Z" style="opacity:0.4;animation-play-state:paused" ></path>
<path fill="url(#lg-0.8798319077892451)" opacity="0.4" d="M 0 0 L 0 57.5 Q 476.75 79.7462 953.5 57.5 T 1907 57.5 L 1907 0 Z" style="opacity:0.4;animation-play-state:paused" ></path></g></svg>